  0
SECTION
  2
HEADER
  9
$ACADVER
  1
AC1009
  9
$FILLMODE
 70
 0
  9
$SPLFRAME
 70
 1
  9
$EXTMIN
 10
0
 20
0
 30
0.0
  9
$EXTMAX
 10
1058.33
 20
1058.33
 30
0.0
  0
ENDSEC
  0
SECTION
  2
TABLES
  0
TABLE
  2
LAYER
 70
1
  0
LAYER
  2
0
 70
     0
 62
     7
  6
CONTINUOUS
  0
ENDTAB
  0
ENDSEC
  0
SECTION
  2
ENTITIES
  0
LINE
  8
0
 62
     0
 10
0.0950846
 20
105.033
 30
0.0
 11
247.745
 21
105.033
 31
0.0
  0
LINE
  8
0
 62
     0
 10
247.745
 20
105.033
 30
0.0
 11
247.745
 21
0.257693
 31
0.0
  0
LINE
  8
0
 62
     0
 10
247.745
 20
0.257693
 30
0.0
 11
0.0950846
 21
0.257693
 31
0.0
  0
LINE
  8
0
 62
     0
 10
0.0950846
 20
0.257693
 30
0.0
 11
0.0950846
 21
105.033
 31
0.0
  0
LINE
  8
0
 62
     0
 10
85.9621
 20
16.7831
 30
0.0
 11
85.9621
 21
12.0826
 31
0.0
  0
LINE
  8
0
 62
     0
 10
85.9621
 20
12.0826
 30
0.0
 11
84.4381
 21
12.0826
 31
0.0
  0
LINE
  8
0
 62
     0
 10
84.4381
 20
12.0826
 30
0.0
 11
84.4381
 21
15.3128
 31
0.0
  0
LINE
  8
0
 62
     0
 10
84.4381
 20
15.3128
 30
0.0
 11
77.687
 21
15.3128
 31
0.0
  0
LINE
  8
0
 62
     0
 10
77.687
 20
15.3128
 30
0.0
 11
77.687
 21
12.0826
 31
0.0
  0
LINE
  8
0
 62
     0
 10
77.687
 20
12.0826
 30
0.0
 11
76.8629
 21
12.0826
 31
0.0
  0
LINE
  8
0
 62
     0
 10
76.8629
 20
12.0826
 30
0.0
 11
76.8629
 21
9.28384
 31
0.0
  0
LINE
  8
0
 62
     0
 10
76.8629
 20
9.28384
 30
0.0
 11
77.687
 21
9.28384
 31
0.0
  0
LINE
  8
0
 62
     0
 10
77.687
 20
9.28384
 30
0.0
 11
77.687
 21
3.01377
 31
0.0
  0
LINE
  8
0
 62
     0
 10
77.687
 20
3.01377
 30
0.0
 11
79.412
 21
3.01377
 31
0.0
  0
LINE
  8
0
 62
     0
 10
79.412
 20
3.01377
 30
0.0
 11
79.412
 21
1.8135
 31
0.0
  0
LINE
  8
0
 62
     0
 10
79.412
 20
1.8135
 30
0.0
 11
82.7126
 21
1.8135
 31
0.0
  0
LINE
  8
0
 62
     0
 10
82.7126
 20
1.8135
 30
0.0
 11
82.7126
 21
3.01377
 31
0.0
  0
LINE
  8
0
 62
     0
 10
82.7126
 20
3.01377
 30
0.0
 11
84.4381
 21
3.01377
 31
0.0
  0
LINE
  8
0
 62
     0
 10
84.4381
 20
3.01377
 30
0.0
 11
84.4381
 21
7.48273
 31
0.0
  0
LINE
  8
0
 62
     0
 10
84.4381
 20
7.48273
 30
0.0
 11
85.9621
 21
7.48273
 31
0.0
  0
LINE
  8
0
 62
     0
 10
85.9621
 20
7.48273
 30
0.0
 11
85.9621
 21
2.78364
 31
0.0
  0
LINE
  8
0
 62
     0
 10
85.9621
 20
2.78364
 30
0.0
 11
99.9628
 21
2.78364
 31
0.0
  0
LINE
  8
0
 62
     0
 10
99.9628
 20
2.78364
 30
0.0
 11
99.9628
 21
7.48273
 31
0.0
  0
LINE
  8
0
 62
     0
 10
99.9628
 20
7.48273
 30
0.0
 11
101.487
 21
7.48273
 31
0.0
  0
LINE
  8
0
 62
     0
 10
101.487
 20
7.48273
 30
0.0
 11
101.487
 21
3.01377
 31
0.0
  0
LINE
  8
0
 62
     0
 10
101.487
 20
3.01377
 30
0.0
 11
103.212
 21
3.01377
 31
0.0
  0
LINE
  8
0
 62
     0
 10
103.212
 20
3.01377
 30
0.0
 11
103.212
 21
1.8135
 31
0.0
  0
LINE
  8
0
 62
     0
 10
103.212
 20
1.8135
 30
0.0
 11
106.513
 21
1.8135
 31
0.0
  0
LINE
  8
0
 62
     0
 10
106.513
 20
1.8135
 30
0.0
 11
106.513
 21
3.01377
 31
0.0
  0
LINE
  8
0
 62
     0
 10
106.513
 20
3.01377
 30
0.0
 11
108.238
 21
3.01377
 31
0.0
  0
LINE
  8
0
 62
     0
 10
108.238
 20
3.01377
 30
0.0
 11
108.238
 21
9.28384
 31
0.0
  0
LINE
  8
0
 62
     0
 10
108.238
 20
9.28384
 30
0.0
 11
109.062
 21
9.28384
 31
0.0
  0
LINE
  8
0
 62
     0
 10
109.062
 20
9.28384
 30
0.0
 11
109.062
 21
12.0826
 31
0.0
  0
LINE
  8
0
 62
     0
 10
109.062
 20
12.0826
 30
0.0
 11
108.238
 21
12.0826
 31
0.0
  0
LINE
  8
0
 62
     0
 10
108.238
 20
12.0826
 30
0.0
 11
108.238
 21
15.3128
 31
0.0
  0
LINE
  8
0
 62
     0
 10
108.238
 20
15.3128
 30
0.0
 11
101.487
 21
15.3128
 31
0.0
  0
LINE
  8
0
 62
     0
 10
101.487
 20
15.3128
 30
0.0
 11
101.487
 21
12.0826
 31
0.0
  0
LINE
  8
0
 62
     0
 10
101.487
 20
12.0826
 30
0.0
 11
99.9628
 21
12.0826
 31
0.0
  0
LINE
  8
0
 62
     0
 10
99.9628
 20
12.0826
 30
0.0
 11
99.9628
 21
16.7831
 31
0.0
  0
LINE
  8
0
 62
     0
 10
99.9628
 20
16.7831
 30
0.0
 11
85.9621
 21
16.7831
 31
0.0
  0
LINE
  8
0
 62
     0
 10
133.587
 20
16.7831
 30
0.0
 11
133.587
 21
12.0826
 31
0.0
  0
LINE
  8
0
 62
     0
 10
133.587
 20
12.0826
 30
0.0
 11
132.063
 21
12.0826
 31
0.0
  0
LINE
  8
0
 62
     0
 10
132.063
 20
12.0826
 30
0.0
 11
132.063
 21
15.3128
 31
0.0
  0
LINE
  8
0
 62
     0
 10
132.063
 20
15.3128
 30
0.0
 11
125.312
 21
15.3128
 31
0.0
  0
LINE
  8
0
 62
     0
 10
125.312
 20
15.3128
 30
0.0
 11
125.312
 21
12.0826
 31
0.0
  0
LINE
  8
0
 62
     0
 10
125.312
 20
12.0826
 30
0.0
 11
124.488
 21
12.0826
 31
0.0
  0
LINE
  8
0
 62
     0
 10
124.488
 20
12.0826
 30
0.0
 11
124.488
 21
9.28384
 31
0.0
  0
LINE
  8
0
 62
     0
 10
124.488
 20
9.28384
 30
0.0
 11
125.312
 21
9.28384
 31
0.0
  0
LINE
  8
0
 62
     0
 10
125.312
 20
9.28384
 30
0.0
 11
125.312
 21
3.01377
 31
0.0
  0
LINE
  8
0
 62
     0
 10
125.312
 20
3.01377
 30
0.0
 11
127.037
 21
3.01377
 31
0.0
  0
LINE
  8
0
 62
     0
 10
127.037
 20
3.01377
 30
0.0
 11
127.037
 21
1.8135
 31
0.0
  0
LINE
  8
0
 62
     0
 10
127.037
 20
1.8135
 30
0.0
 11
130.338
 21
1.8135
 31
0.0
  0
LINE
  8
0
 62
     0
 10
130.338
 20
1.8135
 30
0.0
 11
130.338
 21
3.01377
 31
0.0
  0
LINE
  8
0
 62
     0
 10
130.338
 20
3.01377
 30
0.0
 11
132.063
 21
3.01377
 31
0.0
  0
LINE
  8
0
 62
     0
 10
132.063
 20
3.01377
 30
0.0
 11
132.063
 21
7.48273
 31
0.0
  0
LINE
  8
0
 62
     0
 10
132.063
 20
7.48273
 30
0.0
 11
133.587
 21
7.48273
 31
0.0
  0
LINE
  8
0
 62
     0
 10
133.587
 20
7.48273
 30
0.0
 11
133.587
 21
2.78364
 31
0.0
  0
LINE
  8
0
 62
     0
 10
133.587
 20
2.78364
 30
0.0
 11
147.588
 21
2.78364
 31
0.0
  0
LINE
  8
0
 62
     0
 10
147.588
 20
2.78364
 30
0.0
 11
147.588
 21
7.48273
 31
0.0
  0
LINE
  8
0
 62
     0
 10
147.588
 20
7.48273
 30
0.0
 11
149.112
 21
7.48273
 31
0.0
  0
LINE
  8
0
 62
     0
 10
149.112
 20
7.48273
 30
0.0
 11
149.112
 21
3.01377
 31
0.0
  0
LINE
  8
0
 62
     0
 10
149.112
 20
3.01377
 30
0.0
 11
150.837
 21
3.01377
 31
0.0
  0
LINE
  8
0
 62
     0
 10
150.837
 20
3.01377
 30
0.0
 11
150.837
 21
1.8135
 31
0.0
  0
LINE
  8
0
 62
     0
 10
150.837
 20
1.8135
 30
0.0
 11
154.138
 21
1.8135
 31
0.0
  0
LINE
  8
0
 62
     0
 10
154.138
 20
1.8135
 30
0.0
 11
154.138
 21
3.01377
 31
0.0
  0
LINE
  8
0
 62
     0
 10
154.138
 20
3.01377
 30
0.0
 11
155.863
 21
3.01377
 31
0.0
  0
LINE
  8
0
 62
     0
 10
155.863
 20
3.01377
 30
0.0
 11
155.863
 21
9.28384
 31
0.0
  0
LINE
  8
0
 62
     0
 10
155.863
 20
9.28384
 30
0.0
 11
156.687
 21
9.28384
 31
0.0
  0
LINE
  8
0
 62
     0
 10
156.687
 20
9.28384
 30
0.0
 11
156.687
 21
12.0826
 31
0.0
  0
LINE
  8
0
 62
     0
 10
156.687
 20
12.0826
 30
0.0
 11
155.863
 21
12.0826
 31
0.0
  0
LINE
  8
0
 62
     0
 10
155.863
 20
12.0826
 30
0.0
 11
155.863
 21
15.3128
 31
0.0
  0
LINE
  8
0
 62
     0
 10
155.863
 20
15.3128
 30
0.0
 11
149.112
 21
15.3128
 31
0.0
  0
LINE
  8
0
 62
     0
 10
149.112
 20
15.3128
 30
0.0
 11
149.112
 21
12.0826
 31
0.0
  0
LINE
  8
0
 62
     0
 10
149.112
 20
12.0826
 30
0.0
 11
147.588
 21
12.0826
 31
0.0
  0
LINE
  8
0
 62
     0
 10
147.588
 20
12.0826
 30
0.0
 11
147.588
 21
16.7831
 31
0.0
  0
LINE
  8
0
 62
     0
 10
147.588
 20
16.7831
 30
0.0
 11
133.587
 21
16.7831
 31
0.0
  0
LINE
  8
0
 62
     0
 10
5.00091
 20
21.5456
 30
0.0
 11
19.0004
 21
21.5456
 31
0.0
  0
LINE
  8
0
 62
     0
 10
19.0004
 20
21.5456
 30
0.0
 11
19.0004
 21
7.54613
 31
0.0
  0
LINE
  8
0
 62
     0
 10
19.0004
 20
7.54613
 30
0.0
 11
5.00091
 21
7.54613
 31
0.0
  0
LINE
  8
0
 62
     0
 10
5.00091
 20
7.54613
 30
0.0
 11
5.00091
 21
21.5456
 31
0.0
  0
LINE
  8
0
 62
     0
 10
26.4322
 20
21.5456
 30
0.0
 11
40.4315
 21
21.5456
 31
0.0
  0
LINE
  8
0
 62
     0
 10
40.4315
 20
21.5456
 30
0.0
 11
40.4315
 21
7.54613
 31
0.0
  0
LINE
  8
0
 62
     0
 10
40.4315
 20
7.54613
 30
0.0
 11
26.4322
 21
7.54613
 31
0.0
  0
LINE
  8
0
 62
     0
 10
26.4322
 20
7.54613
 30
0.0
 11
26.4322
 21
21.5456
 31
0.0
  0
LINE
  8
0
 62
     0
 10
47.8621
 20
21.5456
 30
0.0
 11
61.8628
 21
21.5456
 31
0.0
  0
LINE
  8
0
 62
     0
 10
61.8628
 20
21.5456
 30
0.0
 11
61.8628
 21
7.54613
 31
0.0
  0
LINE
  8
0
 62
     0
 10
61.8628
 20
7.54613
 30
0.0
 11
47.8621
 21
7.54613
 31
0.0
  0
LINE
  8
0
 62
     0
 10
47.8621
 20
7.54613
 30
0.0
 11
47.8621
 21
21.5456
 31
0.0
  0
LINE
  8
0
 62
     0
 10
174.07
 20
21.5456
 30
0.0
 11
188.069
 21
21.5456
 31
0.0
  0
LINE
  8
0
 62
     0
 10
188.069
 20
21.5456
 30
0.0
 11
188.069
 21
7.54613
 31
0.0
  0
LINE
  8
0
 62
     0
 10
188.069
 20
7.54613
 30
0.0
 11
174.07
 21
7.54613
 31
0.0
  0
LINE
  8
0
 62
     0
 10
174.07
 20
7.54613
 30
0.0
 11
174.07
 21
21.5456
 31
0.0
  0
LINE
  8
0
 62
     0
 10
193.12
 20
21.5456
 30
0.0
 11
207.119
 21
21.5456
 31
0.0
  0
LINE
  8
0
 62
     0
 10
207.119
 20
21.5456
 30
0.0
 11
207.119
 21
7.54613
 31
0.0
  0
LINE
  8
0
 62
     0
 10
207.119
 20
7.54613
 30
0.0
 11
193.12
 21
7.54613
 31
0.0
  0
LINE
  8
0
 62
     0
 10
193.12
 20
7.54613
 30
0.0
 11
193.12
 21
21.5456
 31
0.0
  0
LINE
  8
0
 62
     0
 10
212.17
 20
21.5456
 30
0.0
 11
226.169
 21
21.5456
 31
0.0
  0
LINE
  8
0
 62
     0
 10
226.169
 20
21.5456
 30
0.0
 11
226.169
 21
7.54613
 31
0.0
  0
LINE
  8
0
 62
     0
 10
226.169
 20
7.54613
 30
0.0
 11
212.17
 21
7.54613
 31
0.0
  0
LINE
  8
0
 62
     0
 10
212.17
 20
7.54613
 30
0.0
 11
212.17
 21
21.5456
 31
0.0
  0
LINE
  8
0
 62
     0
 10
231.22
 20
21.5456
 30
0.0
 11
245.219
 21
21.5456
 31
0.0
  0
LINE
  8
0
 62
     0
 10
245.219
 20
21.5456
 30
0.0
 11
245.219
 21
7.54613
 31
0.0
  0
LINE
  8
0
 62
     0
 10
245.219
 20
7.54613
 30
0.0
 11
231.22
 21
7.54613
 31
0.0
  0
LINE
  8
0
 62
     0
 10
231.22
 20
7.54613
 30
0.0
 11
231.22
 21
21.5456
 31
0.0
  0
LINE
  8
0
 62
     0
 10
9.76203
 20
40.5955
 30
0.0
 11
23.7629
 21
40.5955
 31
0.0
  0
LINE
  8
0
 62
     0
 10
23.7629
 20
40.5955
 30
0.0
 11
23.7629
 21
26.5961
 31
0.0
  0
LINE
  8
0
 62
     0
 10
23.7629
 20
26.5961
 30
0.0
 11
9.76203
 21
26.5961
 31
0.0
  0
LINE
  8
0
 62
     0
 10
9.76203
 20
26.5961
 30
0.0
 11
9.76203
 21
40.5955
 31
0.0
  0
LINE
  8
0
 62
     0
 10
35.9572
 20
40.5955
 30
0.0
 11
49.9565
 21
40.5955
 31
0.0
  0
LINE
  8
0
 62
     0
 10
49.9565
 20
40.5955
 30
0.0
 11
49.9565
 21
26.5961
 31
0.0
  0
LINE
  8
0
 62
     0
 10
49.9565
 20
26.5961
 30
0.0
 11
35.9572
 21
26.5961
 31
0.0
  0
LINE
  8
0
 62
     0
 10
35.9572
 20
26.5961
 30
0.0
 11
35.9572
 21
40.5955
 31
0.0
  0
LINE
  8
0
 62
     0
 10
55.0072
 20
40.5955
 30
0.0
 11
69.0065
 21
40.5955
 31
0.0
  0
LINE
  8
0
 62
     0
 10
69.0065
 20
40.5955
 30
0.0
 11
69.0065
 21
26.5961
 31
0.0
  0
LINE
  8
0
 62
     0
 10
69.0065
 20
26.5961
 30
0.0
 11
55.0072
 21
26.5961
 31
0.0
  0
LINE
  8
0
 62
     0
 10
55.0072
 20
26.5961
 30
0.0
 11
55.0072
 21
40.5955
 31
0.0
  0
LINE
  8
0
 62
     0
 10
74.0572
 20
40.5955
 30
0.0
 11
88.0565
 21
40.5955
 31
0.0
  0
LINE
  8
0
 62
     0
 10
88.0565
 20
40.5955
 30
0.0
 11
88.0565
 21
26.5961
 31
0.0
  0
LINE
  8
0
 62
     0
 10
88.0565
 20
26.5961
 30
0.0
 11
74.0572
 21
26.5961
 31
0.0
  0
LINE
  8
0
 62
     0
 10
74.0572
 20
26.5961
 30
0.0
 11
74.0572
 21
40.5955
 31
0.0
  0
LINE
  8
0
 62
     0
 10
93.1072
 20
40.5955
 30
0.0
 11
107.107
 21
40.5955
 31
0.0
  0
LINE
  8
0
 62
     0
 10
107.107
 20
40.5955
 30
0.0
 11
107.107
 21
26.5961
 31
0.0
  0
LINE
  8
0
 62
     0
 10
107.107
 20
26.5961
 30
0.0
 11
93.1072
 21
26.5961
 31
0.0
  0
LINE
  8
0
 62
     0
 10
93.1072
 20
26.5961
 30
0.0
 11
93.1072
 21
40.5955
 31
0.0
  0
LINE
  8
0
 62
     0
 10
112.157
 20
40.5955
 30
0.0
 11
126.157
 21
40.5955
 31
0.0
  0
LINE
  8
0
 62
     0
 10
126.157
 20
40.5955
 30
0.0
 11
126.157
 21
26.5961
 31
0.0
  0
LINE
  8
0
 62
     0
 10
126.157
 20
26.5961
 30
0.0
 11
112.157
 21
26.5961
 31
0.0
  0
LINE
  8
0
 62
     0
 10
112.157
 20
26.5961
 30
0.0
 11
112.157
 21
40.5955
 31
0.0
  0
LINE
  8
0
 62
     0
 10
131.207
 20
40.5955
 30
0.0
 11
145.207
 21
40.5955
 31
0.0
  0
LINE
  8
0
 62
     0
 10
145.207
 20
40.5955
 30
0.0
 11
145.207
 21
26.5961
 31
0.0
  0
LINE
  8
0
 62
     0
 10
145.207
 20
26.5961
 30
0.0
 11
131.207
 21
26.5961
 31
0.0
  0
LINE
  8
0
 62
     0
 10
131.207
 20
26.5961
 30
0.0
 11
131.207
 21
40.5955
 31
0.0
  0
LINE
  8
0
 62
     0
 10
150.257
 20
40.5955
 30
0.0
 11
164.257
 21
40.5955
 31
0.0
  0
LINE
  8
0
 62
     0
 10
164.257
 20
40.5955
 30
0.0
 11
164.257
 21
26.5961
 31
0.0
  0
LINE
  8
0
 62
     0
 10
164.257
 20
26.5961
 30
0.0
 11
150.257
 21
26.5961
 31
0.0
  0
LINE
  8
0
 62
     0
 10
150.257
 20
26.5961
 30
0.0
 11
150.257
 21
40.5955
 31
0.0
  0
LINE
  8
0
 62
     0
 10
169.307
 20
40.5955
 30
0.0
 11
183.307
 21
40.5955
 31
0.0
  0
LINE
  8
0
 62
     0
 10
183.307
 20
40.5955
 30
0.0
 11
183.307
 21
26.5961
 31
0.0
  0
LINE
  8
0
 62
     0
 10
183.307
 20
26.5961
 30
0.0
 11
169.307
 21
26.5961
 31
0.0
  0
LINE
  8
0
 62
     0
 10
169.307
 20
26.5961
 30
0.0
 11
169.307
 21
40.5955
 31
0.0
  0
LINE
  8
0
 62
     0
 10
188.357
 20
40.5955
 30
0.0
 11
202.357
 21
40.5955
 31
0.0
  0
LINE
  8
0
 62
     0
 10
202.357
 20
40.5955
 30
0.0
 11
202.357
 21
26.5961
 31
0.0
  0
LINE
  8
0
 62
     0
 10
202.357
 20
26.5961
 30
0.0
 11
188.357
 21
26.5961
 31
0.0
  0
LINE
  8
0
 62
     0
 10
188.357
 20
26.5961
 30
0.0
 11
188.357
 21
40.5955
 31
0.0
  0
LINE
  8
0
 62
     0
 10
209.787
 20
40.5955
 30
0.0
 11
223.788
 21
40.5955
 31
0.0
  0
LINE
  8
0
 62
     0
 10
223.788
 20
40.5955
 30
0.0
 11
223.788
 21
26.5961
 31
0.0
  0
LINE
  8
0
 62
     0
 10
223.788
 20
26.5961
 30
0.0
 11
209.787
 21
26.5961
 31
0.0
  0
LINE
  8
0
 62
     0
 10
209.787
 20
26.5961
 30
0.0
 11
209.787
 21
40.5955
 31
0.0
  0
LINE
  8
0
 62
     0
 10
231.22
 20
40.5955
 30
0.0
 11
245.219
 21
40.5955
 31
0.0
  0
LINE
  8
0
 62
     0
 10
245.219
 20
40.5955
 30
0.0
 11
245.219
 21
26.5961
 31
0.0
  0
LINE
  8
0
 62
     0
 10
245.219
 20
26.5961
 30
0.0
 11
231.22
 21
26.5961
 31
0.0
  0
LINE
  8
0
 62
     0
 10
231.22
 20
26.5961
 30
0.0
 11
231.22
 21
40.5955
 31
0.0
  0
LINE
  8
0
 62
     0
 10
7.38216
 20
59.6456
 30
0.0
 11
21.3817
 21
59.6456
 31
0.0
  0
LINE
  8
0
 62
     0
 10
21.3817
 20
59.6456
 30
0.0
 11
21.3817
 21
45.6463
 31
0.0
  0
LINE
  8
0
 62
     0
 10
21.3817
 20
45.6463
 30
0.0
 11
7.38216
 21
45.6463
 31
0.0
  0
LINE
  8
0
 62
     0
 10
7.38216
 20
45.6463
 30
0.0
 11
7.38216
 21
59.6456
 31
0.0
  0
LINE
  8
0
 62
     0
 10
31.1947
 20
59.6456
 30
0.0
 11
45.194
 21
59.6456
 31
0.0
  0
LINE
  8
0
 62
     0
 10
45.194
 20
59.6456
 30
0.0
 11
45.194
 21
45.6463
 31
0.0
  0
LINE
  8
0
 62
     0
 10
45.194
 20
45.6463
 30
0.0
 11
31.1947
 21
45.6463
 31
0.0
  0
LINE
  8
0
 62
     0
 10
31.1947
 20
45.6463
 30
0.0
 11
31.1947
 21
59.6456
 31
0.0
  0
LINE
  8
0
 62
     0
 10
50.2447
 20
59.6456
 30
0.0
 11
64.244
 21
59.6456
 31
0.0
  0
LINE
  8
0
 62
     0
 10
64.244
 20
59.6456
 30
0.0
 11
64.244
 21
45.6463
 31
0.0
  0
LINE
  8
0
 62
     0
 10
64.244
 20
45.6463
 30
0.0
 11
50.2447
 21
45.6463
 31
0.0
  0
LINE
  8
0
 62
     0
 10
50.2447
 20
45.6463
 30
0.0
 11
50.2447
 21
59.6456
 31
0.0
  0
LINE
  8
0
 62
     0
 10
69.2947
 20
59.6456
 30
0.0
 11
83.294
 21
59.6456
 31
0.0
  0
LINE
  8
0
 62
     0
 10
83.294
 20
59.6456
 30
0.0
 11
83.294
 21
45.6463
 31
0.0
  0
LINE
  8
0
 62
     0
 10
83.294
 20
45.6463
 30
0.0
 11
69.2947
 21
45.6463
 31
0.0
  0
LINE
  8
0
 62
     0
 10
69.2947
 20
45.6463
 30
0.0
 11
69.2947
 21
59.6456
 31
0.0
  0
LINE
  8
0
 62
     0
 10
88.3447
 20
59.6456
 30
0.0
 11
102.344
 21
59.6456
 31
0.0
  0
LINE
  8
0
 62
     0
 10
102.344
 20
59.6456
 30
0.0
 11
102.344
 21
45.6463
 31
0.0
  0
LINE
  8
0
 62
     0
 10
102.344
 20
45.6463
 30
0.0
 11
88.3447
 21
45.6463
 31
0.0
  0
LINE
  8
0
 62
     0
 10
88.3447
 20
45.6463
 30
0.0
 11
88.3447
 21
59.6456
 31
0.0
  0
LINE
  8
0
 62
     0
 10
107.395
 20
59.6456
 30
0.0
 11
121.394
 21
59.6456
 31
0.0
  0
LINE
  8
0
 62
     0
 10
121.394
 20
59.6456
 30
0.0
 11
121.394
 21
45.6463
 31
0.0
  0
LINE
  8
0
 62
     0
 10
121.394
 20
45.6463
 30
0.0
 11
107.395
 21
45.6463
 31
0.0
  0
LINE
  8
0
 62
     0
 10
107.395
 20
45.6463
 30
0.0
 11
107.395
 21
59.6456
 31
0.0
  0
LINE
  8
0
 62
     0
 10
126.445
 20
59.6456
 30
0.0
 11
140.444
 21
59.6456
 31
0.0
  0
LINE
  8
0
 62
     0
 10
140.444
 20
59.6456
 30
0.0
 11
140.444
 21
45.6463
 31
0.0
  0
LINE
  8
0
 62
     0
 10
140.444
 20
45.6463
 30
0.0
 11
126.445
 21
45.6463
 31
0.0
  0
LINE
  8
0
 62
     0
 10
126.445
 20
45.6463
 30
0.0
 11
126.445
 21
59.6456
 31
0.0
  0
LINE
  8
0
 62
     0
 10
145.495
 20
59.6456
 30
0.0
 11
159.494
 21
59.6456
 31
0.0
  0
LINE
  8
0
 62
     0
 10
159.494
 20
59.6456
 30
0.0
 11
159.494
 21
45.6463
 31
0.0
  0
LINE
  8
0
 62
     0
 10
159.494
 20
45.6463
 30
0.0
 11
145.495
 21
45.6463
 31
0.0
  0
LINE
  8
0
 62
     0
 10
145.495
 20
45.6463
 30
0.0
 11
145.495
 21
59.6456
 31
0.0
  0
LINE
  8
0
 62
     0
 10
164.545
 20
59.6456
 30
0.0
 11
178.544
 21
59.6456
 31
0.0
  0
LINE
  8
0
 62
     0
 10
178.544
 20
59.6456
 30
0.0
 11
178.544
 21
45.6463
 31
0.0
  0
LINE
  8
0
 62
     0
 10
178.544
 20
45.6463
 30
0.0
 11
164.545
 21
45.6463
 31
0.0
  0
LINE
  8
0
 62
     0
 10
164.545
 20
45.6463
 30
0.0
 11
164.545
 21
59.6456
 31
0.0
  0
LINE
  8
0
 62
     0
 10
183.595
 20
59.6456
 30
0.0
 11
197.594
 21
59.6456
 31
0.0
  0
LINE
  8
0
 62
     0
 10
197.594
 20
59.6456
 30
0.0
 11
197.594
 21
45.6463
 31
0.0
  0
LINE
  8
0
 62
     0
 10
197.594
 20
45.6463
 30
0.0
 11
183.595
 21
45.6463
 31
0.0
  0
LINE
  8
0
 62
     0
 10
183.595
 20
45.6463
 30
0.0
 11
183.595
 21
59.6456
 31
0.0
  0
LINE
  8
0
 62
     0
 10
202.645
 20
59.6456
 30
0.0
 11
216.644
 21
59.6456
 31
0.0
  0
LINE
  8
0
 62
     0
 10
216.644
 20
59.6456
 30
0.0
 11
216.644
 21
45.6463
 31
0.0
  0
LINE
  8
0
 62
     0
 10
216.644
 20
45.6463
 30
0.0
 11
202.645
 21
45.6463
 31
0.0
  0
LINE
  8
0
 62
     0
 10
202.645
 20
45.6463
 30
0.0
 11
202.645
 21
59.6456
 31
0.0
  0
LINE
  8
0
 62
     0
 10
226.457
 20
59.6456
 30
0.0
 11
240.457
 21
59.6456
 31
0.0
  0
LINE
  8
0
 62
     0
 10
240.457
 20
59.6456
 30
0.0
 11
240.457
 21
45.6463
 31
0.0
  0
LINE
  8
0
 62
     0
 10
240.457
 20
45.6463
 30
0.0
 11
226.457
 21
45.6463
 31
0.0
  0
LINE
  8
0
 62
     0
 10
226.457
 20
45.6463
 30
0.0
 11
226.457
 21
59.6456
 31
0.0
  0
LINE
  8
0
 62
     0
 10
2.61965
 20
78.6956
 30
0.0
 11
16.6192
 21
78.6956
 31
0.0
  0
LINE
  8
0
 62
     0
 10
16.6192
 20
78.6956
 30
0.0
 11
16.6192
 21
64.6963
 31
0.0
  0
LINE
  8
0
 62
     0
 10
16.6192
 20
64.6963
 30
0.0
 11
2.61965
 21
64.6963
 31
0.0
  0
LINE
  8
0
 62
     0
 10
2.61965
 20
64.6963
 30
0.0
 11
2.61965
 21
78.6956
 31
0.0
  0
LINE
  8
0
 62
     0
 10
21.6697
 20
78.6956
 30
0.0
 11
35.669
 21
78.6956
 31
0.0
  0
LINE
  8
0
 62
     0
 10
35.669
 20
78.6956
 30
0.0
 11
35.669
 21
64.6963
 31
0.0
  0
LINE
  8
0
 62
     0
 10
35.669
 20
64.6963
 30
0.0
 11
21.6697
 21
64.6963
 31
0.0
  0
LINE
  8
0
 62
     0
 10
21.6697
 20
64.6963
 30
0.0
 11
21.6697
 21
78.6956
 31
0.0
  0
LINE
  8
0
 62
     0
 10
40.7197
 20
78.6956
 30
0.0
 11
54.719
 21
78.6956
 31
0.0
  0
LINE
  8
0
 62
     0
 10
54.719
 20
78.6956
 30
0.0
 11
54.719
 21
64.6963
 31
0.0
  0
LINE
  8
0
 62
     0
 10
54.719
 20
64.6963
 30
0.0
 11
40.7197
 21
64.6963
 31
0.0
  0
LINE
  8
0
 62
     0
 10
40.7197
 20
64.6963
 30
0.0
 11
40.7197
 21
78.6956
 31
0.0
  0
LINE
  8
0
 62
     0
 10
59.7697
 20
78.6956
 30
0.0
 11
73.769
 21
78.6956
 31
0.0
  0
LINE
  8
0
 62
     0
 10
73.769
 20
78.6956
 30
0.0
 11
73.769
 21
64.6963
 31
0.0
  0
LINE
  8
0
 62
     0
 10
73.769
 20
64.6963
 30
0.0
 11
59.7697
 21
64.6963
 31
0.0
  0
LINE
  8
0
 62
     0
 10
59.7697
 20
64.6963
 30
0.0
 11
59.7697
 21
78.6956
 31
0.0
  0
LINE
  8
0
 62
     0
 10
78.8197
 20
78.6956
 30
0.0
 11
92.819
 21
78.6956
 31
0.0
  0
LINE
  8
0
 62
     0
 10
92.819
 20
78.6956
 30
0.0
 11
92.819
 21
64.6963
 31
0.0
  0
LINE
  8
0
 62
     0
 10
92.819
 20
64.6963
 30
0.0
 11
78.8197
 21
64.6963
 31
0.0
  0
LINE
  8
0
 62
     0
 10
78.8197
 20
64.6963
 30
0.0
 11
78.8197
 21
78.6956
 31
0.0
  0
LINE
  8
0
 62
     0
 10
97.8683
 20
78.6956
 30
0.0
 11
111.869
 21
78.6956
 31
0.0
  0
LINE
  8
0
 62
     0
 10
111.869
 20
78.6956
 30
0.0
 11
111.869
 21
64.6963
 31
0.0
  0
LINE
  8
0
 62
     0
 10
111.869
 20
64.6963
 30
0.0
 11
97.8683
 21
64.6963
 31
0.0
  0
LINE
  8
0
 62
     0
 10
97.8683
 20
64.6963
 30
0.0
 11
97.8683
 21
78.6956
 31
0.0
  0
LINE
  8
0
 62
     0
 10
116.918
 20
78.6956
 30
0.0
 11
130.919
 21
78.6956
 31
0.0
  0
LINE
  8
0
 62
     0
 10
130.919
 20
78.6956
 30
0.0
 11
130.919
 21
64.6963
 31
0.0
  0
LINE
  8
0
 62
     0
 10
130.919
 20
64.6963
 30
0.0
 11
116.918
 21
64.6963
 31
0.0
  0
LINE
  8
0
 62
     0
 10
116.918
 20
64.6963
 30
0.0
 11
116.918
 21
78.6956
 31
0.0
  0
LINE
  8
0
 62
     0
 10
135.97
 20
78.6956
 30
0.0
 11
149.969
 21
78.6956
 31
0.0
  0
LINE
  8
0
 62
     0
 10
149.969
 20
78.6956
 30
0.0
 11
149.969
 21
64.6963
 31
0.0
  0
LINE
  8
0
 62
     0
 10
149.969
 20
64.6963
 30
0.0
 11
135.97
 21
64.6963
 31
0.0
  0
LINE
  8
0
 62
     0
 10
135.97
 20
64.6963
 30
0.0
 11
135.97
 21
78.6956
 31
0.0
  0
LINE
  8
0
 62
     0
 10
155.02
 20
78.6956
 30
0.0
 11
169.019
 21
78.6956
 31
0.0
  0
LINE
  8
0
 62
     0
 10
169.019
 20
78.6956
 30
0.0
 11
169.019
 21
64.6963
 31
0.0
  0
LINE
  8
0
 62
     0
 10
169.019
 20
64.6963
 30
0.0
 11
155.02
 21
64.6963
 31
0.0
  0
LINE
  8
0
 62
     0
 10
155.02
 20
64.6963
 30
0.0
 11
155.02
 21
78.6956
 31
0.0
  0
LINE
  8
0
 62
     0
 10
174.07
 20
78.6956
 30
0.0
 11
188.069
 21
78.6956
 31
0.0
  0
LINE
  8
0
 62
     0
 10
188.069
 20
78.6956
 30
0.0
 11
188.069
 21
64.6963
 31
0.0
  0
LINE
  8
0
 62
     0
 10
188.069
 20
64.6963
 30
0.0
 11
174.07
 21
64.6963
 31
0.0
  0
LINE
  8
0
 62
     0
 10
174.07
 20
64.6963
 30
0.0
 11
174.07
 21
78.6956
 31
0.0
  0
LINE
  8
0
 62
     0
 10
193.12
 20
78.6956
 30
0.0
 11
207.119
 21
78.6956
 31
0.0
  0
LINE
  8
0
 62
     0
 10
207.119
 20
78.6956
 30
0.0
 11
207.119
 21
64.6963
 31
0.0
  0
LINE
  8
0
 62
     0
 10
207.119
 20
64.6963
 30
0.0
 11
193.12
 21
64.6963
 31
0.0
  0
LINE
  8
0
 62
     0
 10
193.12
 20
64.6963
 30
0.0
 11
193.12
 21
78.6956
 31
0.0
  0
LINE
  8
0
 62
     0
 10
212.17
 20
78.6956
 30
0.0
 11
226.169
 21
78.6956
 31
0.0
  0
LINE
  8
0
 62
     0
 10
226.169
 20
78.6956
 30
0.0
 11
226.169
 21
64.6963
 31
0.0
  0
LINE
  8
0
 62
     0
 10
226.169
 20
64.6963
 30
0.0
 11
212.17
 21
64.6963
 31
0.0
  0
LINE
  8
0
 62
     0
 10
212.17
 20
64.6963
 30
0.0
 11
212.17
 21
78.6956
 31
0.0
  0
LINE
  8
0
 62
     0
 10
231.22
 20
78.6956
 30
0.0
 11
245.219
 21
78.6956
 31
0.0
  0
LINE
  8
0
 62
     0
 10
245.219
 20
78.6956
 30
0.0
 11
245.219
 21
64.6963
 31
0.0
  0
LINE
  8
0
 62
     0
 10
245.219
 20
64.6963
 30
0.0
 11
231.22
 21
64.6963
 31
0.0
  0
LINE
  8
0
 62
     0
 10
231.22
 20
64.6963
 30
0.0
 11
231.22
 21
78.6956
 31
0.0
  0
LINE
  8
0
 62
     0
 10
2.61965
 20
102.508
 30
0.0
 11
16.6192
 21
102.508
 31
0.0
  0
LINE
  8
0
 62
     0
 10
16.6192
 20
102.508
 30
0.0
 11
16.6192
 21
88.5088
 31
0.0
  0
LINE
  8
0
 62
     0
 10
16.6192
 20
88.5088
 30
0.0
 11
2.61965
 21
88.5088
 31
0.0
  0
LINE
  8
0
 62
     0
 10
2.61965
 20
88.5088
 30
0.0
 11
2.61965
 21
102.508
 31
0.0
  0
LINE
  8
0
 62
     0
 10
26.4322
 20
102.508
 30
0.0
 11
40.4315
 21
102.508
 31
0.0
  0
LINE
  8
0
 62
     0
 10
40.4315
 20
102.508
 30
0.0
 11
40.4315
 21
88.5088
 31
0.0
  0
LINE
  8
0
 62
     0
 10
40.4315
 20
88.5088
 30
0.0
 11
26.4322
 21
88.5088
 31
0.0
  0
LINE
  8
0
 62
     0
 10
26.4322
 20
88.5088
 30
0.0
 11
26.4322
 21
102.508
 31
0.0
  0
LINE
  8
0
 62
     0
 10
45.4822
 20
102.508
 30
0.0
 11
59.4815
 21
102.508
 31
0.0
  0
LINE
  8
0
 62
     0
 10
59.4815
 20
102.508
 30
0.0
 11
59.4815
 21
88.5088
 31
0.0
  0
LINE
  8
0
 62
     0
 10
59.4815
 20
88.5088
 30
0.0
 11
45.4822
 21
88.5088
 31
0.0
  0
LINE
  8
0
 62
     0
 10
45.4822
 20
88.5088
 30
0.0
 11
45.4822
 21
102.508
 31
0.0
  0
LINE
  8
0
 62
     0
 10
64.5322
 20
102.508
 30
0.0
 11
78.5315
 21
102.508
 31
0.0
  0
LINE
  8
0
 62
     0
 10
78.5315
 20
102.508
 30
0.0
 11
78.5315
 21
88.5088
 31
0.0
  0
LINE
  8
0
 62
     0
 10
78.5315
 20
88.5088
 30
0.0
 11
64.5322
 21
88.5088
 31
0.0
  0
LINE
  8
0
 62
     0
 10
64.5322
 20
88.5088
 30
0.0
 11
64.5322
 21
102.508
 31
0.0
  0
LINE
  8
0
 62
     0
 10
83.5822
 20
102.508
 30
0.0
 11
97.5815
 21
102.508
 31
0.0
  0
LINE
  8
0
 62
     0
 10
97.5815
 20
102.508
 30
0.0
 11
97.5815
 21
88.5088
 31
0.0
  0
LINE
  8
0
 62
     0
 10
97.5815
 20
88.5088
 30
0.0
 11
83.5822
 21
88.5088
 31
0.0
  0
LINE
  8
0
 62
     0
 10
83.5822
 20
88.5088
 30
0.0
 11
83.5822
 21
102.508
 31
0.0
  0
LINE
  8
0
 62
     0
 10
102.632
 20
102.508
 30
0.0
 11
116.632
 21
102.508
 31
0.0
  0
LINE
  8
0
 62
     0
 10
116.632
 20
102.508
 30
0.0
 11
116.632
 21
88.5088
 31
0.0
  0
LINE
  8
0
 62
     0
 10
116.632
 20
88.5088
 30
0.0
 11
102.632
 21
88.5088
 31
0.0
  0
LINE
  8
0
 62
     0
 10
102.632
 20
88.5088
 30
0.0
 11
102.632
 21
102.508
 31
0.0
  0
ENDSEC
  0
EOF
