0
SECTION
2
HEADER
9
$INSUNITS
70
4
9
$ACADVER
1
AC1014
9
$HANDSEED
5
FFFF
0
ENDSEC
0
SECTION
2
TABLES
0
TABLE
2
VPORT
5
8
100
AcDbSymbolTable
0
ENDTAB
0
TABLE
2
LTYPE
5
5
100
AcDbSymbolTable
0
LTYPE
5
14
100
AcDbSymbolTableRecord
100
AcDbLinetypeTableRecord
2
BYBLOCK
70
0
0
LTYPE
5
15
100
AcDbSymbolTableRecord
100
AcDbLinetypeTableRecord
2
BYLAYER
70
0
0
LTYPE
5
16
100
AcDbSymbolTableRecord
100
AcDbLinetypeTableRecord
2
DASHED
70
0
3
Dashed __ __ __ __ __ __ __ __ __ __ __ __ __ _
72
65
73
2
40
0.75
49
0.5
74
0
49
-0.25
74
0
0
ENDTAB
0
TABLE
2
LAYER
5
2
100
AcDbSymbolTable
70
3
0
LAYER
5
50
100
AcDbSymbolTableRecord
100
AcDbLayerTableRecord
2
1
70
0
62
7
6
DASHED
0
LAYER
5
51
100
AcDbSymbolTableRecord
100
AcDbLayerTableRecord
2
0
70
0
62
7
6
CONTINUOUS
0
ENDTAB
0
TABLE
2
STYLE
5
3
100
AcDbSymbolTable
70
1
0
STYLE
5
11
100
AcDbSymbolTableRecord
100
AcDbTextStyleTableRecord
2
STANDARD
70
0
0
ENDTAB
0
TABLE
2
VIEW
5
6
100
AcDbSymbolTable
70
0
0
ENDTAB
0
TABLE
2
UCS
5
7
100
AcDbSymbolTable
70
0
0
ENDTAB
0
TABLE
2
APPID
5
9
100
AcDbSymbolTable
70
2
0
APPID
5
12
100
AcDbSymbolTableRecord
100
AcDbRegAppTableRecord
2
ACAD
70
0
0
ENDTAB
0
TABLE
2
DIMSTYLE
5
A
100
AcDbSymbolTable
70
1
0
ENDTAB
0
TABLE
2
BLOCK_RECORD
5
1
100
AcDbSymbolTable
70
1
0
BLOCK_RECORD
5
1F
100
AcDbSymbolTableRecord
100
AcDbBlockTableRecord
2
*MODEL_SPACE
0
BLOCK_RECORD
5
1B
100
AcDbSymbolTableRecord
100
AcDbBlockTableRecord
2
*PAPER_SPACE
0
ENDTAB
0
ENDSEC
0
SECTION
2
BLOCKS
0
BLOCK
5
20
100
AcDbEntity
100
AcDbBlockBegin
2
*MODEL_SPACE
0
ENDBLK
5
21
100
AcDbEntity
100
AcDbBlockEnd
0
BLOCK
5
1C
100
AcDbEntity
100
AcDbBlockBegin
2
*PAPER_SPACE
0
ENDBLK
5
1D
100
AcDbEntity
100
AcDbBlockEnd
0
ENDSEC
0
SECTION
2
ENTITIES
0
CIRCLE
5
100
100
AcDbEntity
8
0
100
AcDbCircle
10
-218.3159
20
-57.345499999999959
30
0
40
1.0999999999999943
210
0
220
0
230
1
0
LWPOLYLINE
5
101
100
AcDbEntity
8
0
100
AcDbPolyline
90
12
70
1
43
0.0
10
-147.58800000000002
20
-12.082600000000001
10
-147.58839999999998
20
-12.082600000000001
10
-147.58839999999998
20
-7.482730000000001
10
-147.58800000000002
20
-7.482730000000001
10
-147.58800000000002
20
-3.283640000000001
42
-0.4142135623730957
10
-147.08799999999999
20
-2.7836400000000001
10
-134.08839999999998
20
-2.783639999999993
42
-0.4142135623730957
10
-133.58839999999998
20
-3.283640000000001
10
-133.58839999999998
20
-16.282999999999973
42
-0.41421356237309503
10
-134.08840000000001
20
-16.782999999999973
10
-147.08799999999999
20
-16.78299999999998
42
-0.41421356237309503
10
-147.58800000000002
20
-16.282999999999973
0
LWPOLYLINE
5
102
100
AcDbEntity
8
0
100
AcDbPolyline
90
8
70
1
43
0.0
10
-78.025399999999962
20
-15.782999999999978
10
-84.025399999999991
20
-15.782999999999985
42
-0.41421356237309503
10
-84.525399999999991
20
-15.282999999999978
10
-84.525399999999991
20
-1.2829999999999808
42
-0.41421356237309631
10
-84.025399999999991
20
-0.78299999999997871
10
-78.025399999999962
20
-0.78299999999997982
42
-0.41421356237309404
10
-77.525399999999976
20
-1.2829999999999764
10
-77.525399999999962
20
-15.282999999999978
42
-0.41421356237309503
0
LWPOLYLINE
5
103
100
AcDbEntity
8
0
100
AcDbPolyline
90
8
70
1
43
0.0
10
-125.65039999999998
20
-15.782999999999978
10
-131.65039999999996
20
-15.782999999999985
42
-0.41421356237309503
10
-132.15039999999996
20
-15.282999999999978
10
-132.15039999999996
20
-1.2829999999999808
42
-0.41421356237309631
10
-131.65039999999996
20
-0.78299999999997871
10
-125.65039999999998
20
-0.78299999999997094
42
-0.41421356237309404
10
-125.15039999999998
20
-1.2829999999999764
10
-125.15039999999998
20
-15.282999999999978
42
-0.41421356237309503
0
LWPOLYLINE
5
104
100
AcDbEntity
8
0
100
AcDbPolyline
90
8
70
1
43
0.0
10
-101.90139999999998
20
-15.782999999999978
10
-107.90139999999995
20
-15.782999999999985
42
-0.41421356237309503
10
-108.40139999999997
20
-15.282999999999978
10
-108.40139999999997
20
-1.2829999999999808
42
-0.41421356237309631
10
-107.90139999999995
20
-0.78299999999997871
10
-101.90139999999998
20
-0.78299999999997094
42
-0.41421356237309404
10
-101.40139999999997
20
-1.2829999999999764
10
-101.40139999999997
20
-15.282999999999978
42
-0.41421356237309503
0
LWPOLYLINE
5
105
100
AcDbEntity
8
0
100
AcDbPolyline
90
12
70
1
43
0.0
10
-99.962800000000001
20
-12.082600000000001
10
-99.963399999999979
20
-12.082600000000001
10
-99.963399999999979
20
-7.482730000000001
10
-99.962800000000001
20
-7.482730000000001
10
-99.962800000000001
20
-3.283640000000001
42
-0.4142135623730957
10
-99.462800000000001
20
-2.7836400000000001
10
-86.463399999999979
20
-2.783639999999993
42
-0.4142135623730957
10
-85.963399999999979
20
-3.283640000000001
10
-85.963399999999979
20
-16.282999999999973
42
-0.41421356237309503
10
-86.463399999999979
20
-16.782999999999973
10
-99.462800000000016
20
-16.78299999999998
42
-0.41421356237309503
10
-99.962800000000016
20
-16.282999999999973
0
LWPOLYLINE
5
106
100
AcDbEntity
8
0
100
AcDbPolyline
90
8
70
1
43
0.0
10
-149.5264
20
-15.782999999999978
10
-155.5264
20
-15.782999999999985
42
-0.41421356237309503
10
-156.02640000000002
20
-15.282999999999978
10
-156.02640000000002
20
-1.2829999999999808
42
-0.41421356237309631
10
-155.5264
20
-0.78299999999997871
10
-149.5264
20
-0.78299999999997094
42
-0.41421356237309404
10
-149.02639999999997
20
-1.2829999999999764
10
-149.02639999999997
20
-15.282999999999978
42
-0.41421356237309503
0
LWPOLYLINE
5
107
100
AcDbEntity
8
0
100
AcDbPolyline
90
8
70
1
43
0.0
10
-179.33215000000001
20
-59.64549999999997
10
-192.33215000000001
20
-59.645499999999984
42
-0.41421356237309503
10
-192.83215000000001
20
-59.145499999999977
10
-192.83215000000001
20
-46.145499999999956
42
-0.41421356237309503
10
-192.33215000000001
20
-45.645499999999963
10
-179.33215000000001
20
-45.645499999999942
42
-0.41421356237309503
10
-178.83215000000001
20
-46.145499999999949
10
-178.83215000000001
20
-59.14549999999997
42
-0.41421356237309503
0
LWPOLYLINE
5
108
100
AcDbEntity
8
0
100
AcDbPolyline
90
8
70
1
43
0.0
10
-103.13215
20
-59.64549999999997
10
-116.13215
20
-59.645499999999984
42
-0.41421356237309503
10
-116.63215000000001
20
-59.145499999999977
10
-116.63214999999997
20
-46.145499999999998
42
-0.41421356237309503
10
-116.13214999999998
20
-45.645499999999998
10
-103.13215
20
-45.645499999999977
42
-0.41421356237309503
10
-102.63215
20
-46.145499999999984
10
-102.63215
20
-59.14549999999997
42
-0.41421356237309503
0
LWPOLYLINE
5
109
100
AcDbEntity
8
0
100
AcDbPolyline
90
8
70
1
43
0.0
10
-26.932149999999979
20
-59.64549999999997
10
-39.932149999999965
20
-59.64549999999997
42
-0.41421356237309503
10
-40.432149999999965
20
-59.145499999999977
10
-40.432149999999965
20
-46.145499999999998
42
-0.41421356237309503
10
-39.932149999999965
20
-45.645499999999998
10
-26.932149999999979
20
-45.645499999999984
42
-0.41421356237309503
10
-26.432149999999979
20
-46.145499999999984
10
-26.432149999999972
20
-59.14549999999997
42
-0.41421356237309503
0
LWPOLYLINE
5
110
100
AcDbEntity
8
0
100
AcDbPolyline
90
8
70
1
43
0.0
10
-45.98214999999999
20
-59.64549999999997
10
-58.982149999999969
20
-59.64549999999997
42
-0.41421356237309503
10
-59.482149999999969
20
-59.145499999999977
10
-59.482149999999976
20
-46.145499999999998
42
-0.41421356237309503
10
-58.982149999999976
20
-45.645499999999998
10
-45.982149999999997
20
-45.645499999999984
42
-0.41421356237309503
10
-45.482149999999997
20
-46.145499999999984
10
-45.482149999999983
20
-59.14549999999997
42
-0.41421356237309503
0
LWPOLYLINE
5
111
100
AcDbEntity
8
0
100
AcDbPolyline
90
8
70
1
43
0.0
10
-122.18215000000001
20
-59.64549999999997
10
-135.18215000000001
20
-59.645499999999984
42
-0.41421356237309503
10
-135.68215000000004
20
-59.145499999999977
10
-135.68214999999998
20
-46.145499999999998
42
-0.41421356237309503
10
-135.18215000000001
20
-45.645499999999998
10
-122.18215000000001
20
-45.645499999999977
42
-0.41421356237309503
10
-121.68215000000001
20
-46.145499999999984
10
-121.68215000000001
20
-59.14549999999997
42
-0.41421356237309503
0
LWPOLYLINE
5
112
100
AcDbEntity
8
0
100
AcDbPolyline
90
8
70
1
43
0.0
10
-198.38215000000002
20
-59.64549999999997
10
-211.38214999999997
20
-59.645499999999984
42
-0.41421356237309503
10
-211.88214999999997
20
-59.145499999999977
10
-211.88215
20
-46.145499999999956
42
-0.41421356237309503
10
-211.38215
20
-45.645499999999963
10
-198.38215000000005
20
-45.645499999999942
42
-0.41421356237309503
10
-197.88215000000005
20
-46.145499999999949
10
-197.88215000000002
20
-59.14549999999997
42
-0.41421356237309503
0
LWPOLYLINE
5
113
100
AcDbEntity
8
0
100
AcDbPolyline
90
8
70
1
43
0.0
10
-160.28215
20
-59.64549999999997
10
-173.28215
20
-59.645499999999984
42
-0.41421356237309503
10
-173.78215
20
-59.145499999999977
10
-173.78215
20
-46.145499999999956
42
-0.41421356237309503
10
-173.28215
20
-45.645499999999963
10
-160.28215
20
-45.645499999999977
42
-0.41421356237309503
10
-159.78215
20
-46.145499999999984
10
-159.78215
20
-59.14549999999997
42
-0.41421356237309503
0
LWPOLYLINE
5
114
100
AcDbEntity
8
0
100
AcDbPolyline
90
8
70
1
43
0.0
10
-84.082150000000013
20
-59.64549999999997
10
-97.082149999999984
20
-59.645499999999984
42
-0.41421356237309503
10
-97.582149999999999
20
-59.145499999999977
10
-97.582149999999999
20
-46.145499999999998
42
-0.41421356237309503
10
-97.082149999999984
20
-45.645499999999998
10
-84.082150000000013
20
-45.645499999999977
42
-0.41421356237309503
10
-83.582150000000013
20
-46.145499999999984
10
-83.582150000000013
20
-59.14549999999997
42
-0.41421356237309503
0
LWPOLYLINE
5
115
100
AcDbEntity
8
0
100
AcDbPolyline
90
8
70
1
43
0.0
10
-5.5008999999999997
20
-59.645500000000013
10
-18.500899999999987
20
-59.64549999999997
42
-0.4142135623730937
10
-19.000899999999987
20
-59.145499999999977
10
-19.000899999999984
20
-46.145499999999998
42
-0.4142135623730937
10
-18.500899999999987
20
-45.645499999999998
10
-5.5008999999999642
20
-45.645499999999984
42
-0.41421356237309309
10
-5.0008999999999668
20
-46.145499999999984
10
-5.0008999999999935
20
-59.145499999999998
42
-0.41421356237309437
0
LWPOLYLINE
5
116
100
AcDbEntity
8
0
100
AcDbPolyline
90
8
70
1
43
0.0
10
-65.032150000000001
20
-59.64549999999997
10
-78.032149999999973
20
-59.64549999999997
42
-0.41421356237309503
10
-78.532149999999973
20
-59.145499999999977
10
-78.532149999999987
20
-46.145499999999998
42
-0.41421356237309503
10
-78.032149999999987
20
-45.645499999999998
10
-65.032150000000001
20
-45.645499999999984
42
-0.41421356237309503
10
-64.532150000000016
20
-46.145499999999984
10
-64.532149999999987
20
-59.14549999999997
42
-0.41421356237309503
0
LWPOLYLINE
5
117
100
AcDbEntity
8
0
100
AcDbPolyline
90
8
70
1
43
0.0
10
-141.23214999999999
20
-59.64549999999997
10
-154.23214999999996
20
-59.645499999999984
42
-0.41421356237309503
10
-154.73214999999996
20
-59.145499999999977
10
-154.73214999999996
20
-46.145499999999998
42
-0.41421356237309503
10
-154.23214999999996
20
-45.645499999999998
10
-141.23214999999999
20
-45.645499999999977
42
-0.41421356237309503
10
-140.73214999999999
20
-46.145499999999984
10
-140.73214999999999
20
-59.14549999999997
42
-0.41421356237309503
0
LWPOLYLINE
5
118
100
AcDbEntity
8
0
100
AcDbPolyline
90
8
70
1
43
0.0
10
-224.57589999999999
20
-59.64549999999997
10
-237.57589999999993
20
-59.645499999999984
42
-0.41421356237309503
10
-238.07589999999993
20
-59.145499999999977
10
-238.07589999999999
20
-46.145499999999956
42
-0.41421356237309503
10
-237.57589999999996
20
-45.645499999999963
10
-224.57590000000005
20
-45.645499999999942
42
-0.41421356237309503
10
-224.07590000000002
20
-46.145499999999949
10
-224.07589999999999
20
-59.14549999999997
42
-0.41421356237309503
0
LWPOLYLINE
5
119
100
AcDbEntity
8
0
100
AcDbPolyline
90
90
70
1
43
0.0
10
-209.874425
20
-100.48340000000002
42
0.41421356237309764
10
-211.87442499999997
20
-102.4834
10
-211.87442500000003
20
-105.11117745971602
42
0.19505961453205464
10
-211.2529662500001
20
-106.64356367802009
42
-0.19505961453209517
10
-210.74450000000002
20
-107.897334220269
10
-210.74449999999999
20
-114.8334
42
0.41421356237310453
10
-208.5445
20
-117.03339999999999
10
-202.94450000000001
20
-117.0334
42
0.41421356237309975
10
-200.74450000000007
20
-114.8334
10
-200.74450000000002
20
-108.83340000000001
42
-0.41421356237309503
10
-198.94450000000003
20
-107.0334
10
-162.54450000000003
20
-107.0334
42
-0.41421356237309503
10
-160.74450000000002
20
-108.83340000000001
10
-160.74449999999999
20
-114.8334
42
0.41421356237309742
10
-158.5445
20
-117.0334
10
-152.94450000000001
20
-117.0334
42
0.4142135623730856
10
-150.74450000000002
20
-114.8334
10
-150.74450000000002
20
-108.83340000000001
42
-0.41421356237309503
10
-148.94450000000001
20
-107.0334
10
-104.89442500000001
20
-107.0334
42
-0.41421356237309503
10
-103.09442500000002
20
-108.83340000000001
10
-103.09442500000002
20
-114.8334
42
0.4142135623730856
10
-100.89442500000001
20
-117.0334
10
-95.294425000000004
20
-117.0334
42
0.41421356237309037
10
-93.094425000000001
20
-114.8334
10
-93.094425000000015
20
-108.83340000000001
42
-0.41421356237309503
10
-91.294425000000018
20
-107.0334
10
-49.894424999999998
20
-107.0334
42
-0.41421356237309503
10
-48.094425000000001
20
-108.83340000000001
10
-48.094425000000001
20
-114.8334
42
0.4142135623730927
10
-45.894424999999998
20
-117.0334
10
-40.294425000000004
20
-117.0334
42
0.4142135623730927
10
-38.094425000000015
20
-114.8334
10
-38.094424999999994
20
-108.83340000000001
42
-0.41421356237309503
10
-36.294424999999997
20
-107.0334
10
-0.29442500000000038
20
-107.0334
42
0.41421356237309315
10
1.9055749999999918
20
-104.8334
10
1.9055749999999998
20
-5.2208650000000034
42
0.41421356237309359
10
-0.29442499999998373
20
-3.0208650000000006
10
-26.294425
20
-3.0208650000000015
42
-0.41421356237309509
10
-28.094425000000001
20
-1.2208649999999996
10
-28.094425000000001
20
4.779135000000001
42
0.41421356237309281
10
-30.294425
20
6.9791350000000039
10
-35.894424999999998
20
6.9791350000000012
42
0.4142135623730937
10
-38.094425000000001
20
4.7791350000000001
10
-38.094425000000001
20
-1.2208650000000001
42
-0.41421356237309503
10
-39.894424999999998
20
-3.0208649999999997
10
-62.178920587728399
20
-3.0208649999999992
42
-0.1989123673796647
10
-63.451712793864246
20
-2.4936572061358273
10
-67.042634918610403
20
1.0972649186104
42
0.19891236737965892
10
-68.598269837220798
20
1.7416299999999985
10
-83.944500000000005
20
1.7416300000000029
42
-0.41421356237309515
10
-85.744500000000002
20
3.5416300000000005
10
-85.744500000000002
20
9.5416299999999996
42
0.41421356237308932
10
-87.944500000000005
20
11.741629999999999
10
-93.544499999999999
20
11.741630000000001
42
0.41421356237308932
10
-95.744500000000002
20
9.5416299999999996
10
-95.744500000000002
20
3.5416300000000001
42
-0.41421356237309503
10
-97.544499999999999
20
1.7416300000000005
10
-153.94450000000001
20
1.7416300000000029
42
-0.41421356237309515
10
-155.74450000000002
20
3.5416300000000005
10
-155.74449999999999
20
9.5416299999999996
42
0.41421356237308932
10
-157.94450000000001
20
11.741629999999999
10
-163.5445
20
11.741630000000001
42
0.41421356237310408
10
-165.74449999999999
20
9.5416299999999996
10
-165.74450000000002
20
3.5416300000000001
42
-0.41421356237309503
10
-167.54450000000003
20
1.7416300000000005
10
-169.951730162779
20
1.7416300000000002
42
0.19891236737969897
10
-171.50736508138971
20
1.0972649186101071
10
-175.625495
20
-3.0208650000000006
10
-213.94450000000003
20
-3.020864999999997
42
-0.41421356237309509
10
-215.74450000000002
20
-1.2208650000000001
10
-215.74449999999999
20
4.779135000000001
42
0.41421356237309914
10
-217.94450000000001
20
6.9791350000000199
10
-223.5445
20
6.9791350000000012
42
0.41421356237310403
10
-225.74449999999999
20
4.7791350000000001
10
-225.74450000000002
20
-1.2208650000000001
42
-0.41421356237309503
10
-227.54450000000003
20
-3.0208649999999997
10
-248.5445
20
-3.0208650000000006
42
0.41421356237310392
10
-250.74449999999999
20
-5.2208649999999999
10
-250.74449999999999
20
-83.103399999999993
42
0.41421356237310214
10
-248.5445
20
-85.303399999999968
10
-213.67442500000004
20
-85.303400000000011
42
-0.41421356237309503
10
-211.87442500000003
20
-87.103400000000008
10
-211.87442500000003
20
-88.483400000000003
42
0.41421356237309764
10
-209.874425
20
-90.483400000000017
10
-203.87442500000003
20
-90.483400000000017
42
-0.41421356237309503
10
-201.87442500000003
20
-92.483400000000003
10
-201.87442500000003
20
-98.483400000000003
42
-0.41421356237309503
10
-203.87442500000003
20
-100.48339999999999
0
CIRCLE
5
120
100
AcDbEntity
8
0
100
AcDbCircle
10
-164.74442500000004
20
-19.303400000000003
30
0
40
1.1000000000000001
210
0
220
-0
230
1
0
CIRCLE
5
121
100
AcDbEntity
8
0
100
AcDbCircle
10
-30.494425
20
-36.303400000000003
30
0
40
1.1000000000000001
210
0
220
-0
230
1
0
CIRCLE
5
122
100
AcDbEntity
8
0
100
AcDbCircle
10
-17.694424999999999
20
-84.053400000000011
30
0
40
1.1000000000000001
210
0
220
-0
230
1
0
CIRCLE
5
123
100
AcDbEntity
8
0
100
AcDbCircle
10
-126.094425
20
-90.453400000000016
30
0
40
1.1000000000000001
210
0
220
-0
230
1
0
CIRCLE
5
124
100
AcDbEntity
8
0
100
AcDbCircle
10
-117.29442500000002
20
-19.303400000000003
30
0
40
1.1000000000000001
210
0
220
-0
230
1
0
LWPOLYLINE
5
125
100
AcDbEntity
8
0
100
AcDbPolyline
90
8
70
1
43
0.0
10
-111.369
20
-64.696299999999994
10
-98.368300000000033
20
-64.696299999999979
42
-0.41421356237309503
10
-97.868300000000019
20
-65.196299999999994
10
-97.868300000000019
20
-78.195599999999999
42
-0.41421356237309503
10
-98.368300000000033
20
-78.695599999999999
10
-111.369
20
-78.695599999999999
42
-0.41421356237309503
10
-111.86900000000001
20
-78.195599999999985
10
-111.86900000000001
20
-65.196299999999994
42
-0.41421356237309503
0
LWPOLYLINE
5
126
100
AcDbEntity
8
0
100
AcDbPolyline
90
8
70
1
43
0.0
10
-68.506500000000003
20
-26.596100000000003
10
-55.507199999999997
20
-26.596100000000003
42
-0.41421356237309503
10
-55.007200000000005
20
-27.0961
10
-55.007200000000005
20
-40.095500000000008
42
-0.41421356237309503
10
-55.507199999999997
20
-40.595500000000008
10
-68.506500000000003
20
-40.595500000000008
42
-0.41421356237309503
10
-69.006500000000003
20
-40.095500000000008
10
-69.006500000000003
20
-27.0961
42
-0.41421356237309503
0
LWPOLYLINE
5
127
100
AcDbEntity
8
0
100
AcDbPolyline
90
8
70
1
43
0.0
10
-187.56900000000002
20
-7.5461299999999998
10
-174.56999999999999
20
-7.5461299999999927
42
-0.41421356237309503
10
-174.06999999999999
20
-8.0461299999999998
10
-174.06999999999999
20
-21.0456
42
-0.41421356237309503
10
-174.56999999999999
20
-21.5456
10
-187.56899999999999
20
-21.545600000000007
42
-0.41421356237309503
10
-188.06899999999999
20
-21.0456
10
-188.06900000000002
20
-8.0461299999999998
42
-0.41421356237309503
0
LWPOLYLINE
5
128
100
AcDbEntity
8
0
100
AcDbPolyline
90
8
70
1
43
0.0
10
-244.71900000000005
20
-64.696299999999994
10
-231.72
20
-64.696299999999979
42
-0.41421356237309503
10
-231.22
20
-65.196299999999994
10
-231.21999999999997
20
-78.195599999999999
42
-0.41421356237309503
10
-231.71999999999997
20
-78.695599999999999
10
-244.71900000000002
20
-78.695599999999999
42
-0.41421356237309503
10
-245.21900000000002
20
-78.195599999999985
10
-245.21900000000005
20
-65.196299999999994
42
-0.41421356237309503
0
LWPOLYLINE
5
129
100
AcDbEntity
8
0
100
AcDbPolyline
90
8
70
1
43
0.0
10
-73.269000000000005
20
-64.696299999999994
10
-60.2697
20
-64.696299999999994
42
-0.41421356237309503
10
-59.769700000000007
20
-65.196299999999994
10
-59.769700000000007
20
-78.195599999999999
42
-0.41421356237309503
10
-60.2697
20
-78.695599999999999
10
-73.269000000000005
20
-78.695599999999985
42
-0.41421356237309503
10
-73.769000000000005
20
-78.195599999999985
10
-73.769000000000005
20
-65.196299999999994
42
-0.41421356237309503
0
LWPOLYLINE
5
130
100
AcDbEntity
8
0
100
AcDbPolyline
90
8
70
1
43
0.0
10
-58.981499999999997
20
-88.508800000000008
10
-45.982199999999992
20
-88.508800000000008
42
-0.41421356237309503
10
-45.482199999999999
20
-89.008800000000008
10
-45.482199999999992
20
-102.008
42
-0.41421356237309503
10
-45.982199999999992
20
-102.508
10
-58.981500000000004
20
-102.50799999999998
42
-0.41421356237309503
10
-59.481499999999997
20
-102.008
10
-59.481499999999997
20
-89.008800000000008
42
-0.41421356237309503
0
LWPOLYLINE
5
131
100
AcDbEntity
8
0
100
AcDbPolyline
90
8
70
1
43
0.0
10
-223.28800000000001
20
-26.596100000000003
10
-210.28700000000003
20
-26.596099999999993
42
-0.41421356237309503
10
-209.78700000000003
20
-27.0961
10
-209.78700000000001
20
-40.095500000000008
42
-0.41421356237309503
10
-210.28700000000001
20
-40.595500000000008
10
-223.28800000000001
20
-40.595500000000015
42
-0.41421356237309503
10
-223.78800000000001
20
-40.095500000000008
10
-223.78800000000001
20
-27.0961
42
-0.41421356237309503
0
LWPOLYLINE
5
132
100
AcDbEntity
8
0
100
AcDbPolyline
90
8
70
1
43
0.0
10
-92.318999999999988
20
-64.696299999999994
10
-79.319699999999997
20
-64.696299999999994
42
-0.41421356237309503
10
-78.819699999999997
20
-65.196299999999994
10
-78.819699999999997
20
-78.195599999999999
42
-0.41421356237309503
10
-79.319699999999997
20
-78.695599999999999
10
-92.318999999999988
20
-78.695599999999999
42
-0.41421356237309503
10
-92.819000000000003
20
-78.195599999999985
10
-92.819000000000003
20
-65.196299999999994
42
-0.41421356237309503
0
LWPOLYLINE
5
133
100
AcDbEntity
8
0
100
AcDbPolyline
90
8
70
1
43
0.0
10
-163.75700000000001
20
-26.596100000000003
10
-150.75700000000001
20
-26.596099999999993
42
-0.41421356237309503
10
-150.25700000000001
20
-27.0961
10
-150.25700000000001
20
-40.095500000000008
42
-0.41421356237309503
10
-150.75700000000001
20
-40.595500000000008
10
-163.75700000000001
20
-40.595500000000015
42
-0.41421356237309503
10
-164.25700000000003
20
-40.095500000000008
10
-164.25700000000003
20
-27.0961
42
-0.41421356237309503
0
LWPOLYLINE
5
134
100
AcDbEntity
8
0
100
AcDbPolyline
90
8
70
1
43
0.0
10
-206.61900000000003
20
-7.5461299999999998
10
-193.62
20
-7.5461299999999927
42
-0.41421356237309503
10
-193.12
20
-8.0461299999999998
10
-193.12
20
-21.0456
42
-0.41421356237309503
10
-193.62
20
-21.5456
10
-206.619
20
-21.545600000000007
42
-0.41421356237309503
10
-207.119
20
-21.0456
10
-207.11900000000003
20
-8.0461299999999998
42
-0.41421356237309503
0
LWPOLYLINE
5
135
100
AcDbEntity
8
0
100
AcDbPolyline
90
8
70
1
43
0.0
10
-244.71900000000005
20
-26.596100000000003
10
-231.72
20
-26.596099999999993
42
-0.41421356237309503
10
-231.22
20
-27.0961
10
-231.21999999999997
20
-40.095500000000008
42
-0.41421356237309503
10
-231.71999999999997
20
-40.595500000000008
10
-244.71900000000002
20
-40.595500000000015
42
-0.41421356237309503
10
-245.21900000000002
20
-40.095500000000008
10
-245.21900000000005
20
-27.0961
42
-0.41421356237309503
0
LWPOLYLINE
5
136
100
AcDbEntity
8
0
100
AcDbPolyline
90
8
70
1
43
0.0
10
-244.71900000000005
20
-7.5461299999999998
10
-231.72
20
-7.5461299999999927
42
-0.41421356237309503
10
-231.22
20
-8.0461299999999998
10
-231.21999999999997
20
-21.0456
42
-0.41421356237309503
10
-231.71999999999997
20
-21.5456
10
-244.71900000000002
20
-21.545600000000007
42
-0.41421356237309503
10
-245.21900000000002
20
-21.0456
10
-245.21900000000005
20
-8.0461299999999998
42
-0.41421356237309503
0
LWPOLYLINE
5
137
100
AcDbEntity
8
0
100
AcDbPolyline
90
8
70
1
43
0.0
10
-182.80700000000002
20
-26.596100000000003
10
-169.80699999999999
20
-26.596099999999993
42
-0.41421356237309503
10
-169.30699999999999
20
-27.0961
10
-169.30699999999999
20
-40.095500000000008
42
-0.41421356237309503
10
-169.80699999999999
20
-40.595500000000008
10
-182.80699999999999
20
-40.595500000000015
42
-0.41421356237309503
10
-183.30700000000002
20
-40.095500000000008
10
-183.30700000000004
20
-27.0961
42
-0.41421356237309503
0
LWPOLYLINE
5
138
100
AcDbEntity
8
0
100
AcDbPolyline
90
8
70
1
43
0.0
10
-39.931500000000007
20
-7.5461299999999998
10
-26.932200000000002
20
-7.5461300000000016
42
-0.41421356237309503
10
-26.432200000000002
20
-8.0461299999999998
10
-26.432200000000002
20
-21.0456
42
-0.41421356237309503
10
-26.932200000000002
20
-21.5456
10
-39.9315
20
-21.5456
42
-0.41421356237309503
10
-40.4315
20
-21.0456
10
-40.431500000000007
20
-8.0461299999999998
42
-0.41421356237309503
0
LWPOLYLINE
5
139
100
AcDbEntity
8
0
100
AcDbPolyline
90
8
70
1
43
0.0
10
-87.5565
20
-26.596100000000003
10
-74.557199999999995
20
-26.596100000000003
42
-0.41421356237309503
10
-74.057199999999995
20
-27.0961
10
-74.057199999999995
20
-40.095500000000008
42
-0.41421356237309503
10
-74.557199999999995
20
-40.595500000000008
10
-87.5565
20
-40.595500000000015
42
-0.41421356237309503
10
-88.0565
20
-40.095500000000008
10
-88.0565
20
-27.0961
42
-0.41421356237309503
0
LWPOLYLINE
5
140
100
AcDbEntity
8
0
100
AcDbPolyline
90
8
70
1
43
0.0
10
-144.70699999999999
20
-26.596100000000003
10
-131.70699999999999
20
-26.596099999999993
42
-0.41421356237309503
10
-131.20699999999999
20
-27.0961
10
-131.20699999999999
20
-40.095500000000008
42
-0.41421356237309503
10
-131.70699999999999
20
-40.595500000000008
10
-144.70699999999999
20
-40.595500000000015
42
-0.41421356237309503
10
-145.20699999999999
20
-40.095500000000008
10
-145.20699999999999
20
-27.0961
42
-0.41421356237309503
0
LWPOLYLINE
5
141
100
AcDbEntity
8
0
100
AcDbPolyline
90
8
70
1
43
0.0
10
-187.56900000000002
20
-64.696299999999994
10
-174.56999999999999
20
-64.696299999999979
42
-0.41421356237309503
10
-174.06999999999999
20
-65.196299999999994
10
-174.06999999999999
20
-78.195599999999999
42
-0.41421356237309503
10
-174.56999999999999
20
-78.695599999999999
10
-187.56899999999999
20
-78.695599999999999
42
-0.41421356237309503
10
-188.06899999999999
20
-78.195599999999985
10
-188.06900000000002
20
-65.196299999999994
42
-0.41421356237309503
0
LWPOLYLINE
5
142
100
AcDbEntity
8
0
100
AcDbPolyline
90
8
70
1
43
0.0
10
-201.85700000000003
20
-26.596100000000003
10
-188.857
20
-26.596099999999993
42
-0.41421356237309503
10
-188.357
20
-27.0961
10
-188.357
20
-40.095500000000008
42
-0.41421356237309503
10
-188.857
20
-40.595500000000008
10
-201.857
20
-40.595500000000015
42
-0.41421356237309503
10
-202.35700000000003
20
-40.095500000000008
10
-202.35700000000006
20
-27.0961
42
-0.41421356237309503
0
LWPOLYLINE
5
143
100
AcDbEntity
8
0
100
AcDbPolyline
90
8
70
1
43
0.0
10
-16.119199999999999
20
-64.696299999999994
10
-3.1196500000000005
20
-64.696299999999994
42
-0.41421356237309503
10
-2.6196500000000005
20
-65.196299999999994
10
-2.6196500000000023
20
-78.195599999999999
42
-0.41421356237309503
10
-3.1196500000000005
20
-78.695599999999999
10
-16.119199999999999
20
-78.695599999999985
42
-0.41421356237309503
10
-16.619199999999999
20
-78.195599999999985
10
-16.619199999999999
20
-65.196299999999994
42
-0.41421356237309503
0
LWPOLYLINE
5
144
100
AcDbEntity
8
0
100
AcDbPolyline
90
8
70
1
43
0.0
10
-225.66900000000004
20
-7.5461299999999998
10
-212.66999999999999
20
-7.5461299999999927
42
-0.41421356237309503
10
-212.16999999999999
20
-8.0461299999999998
10
-212.16999999999996
20
-21.0456
42
-0.41421356237309503
10
-212.66999999999996
20
-21.5456
10
-225.66900000000001
20
-21.545600000000007
42
-0.41421356237309503
10
-226.16900000000001
20
-21.0456
10
-226.16900000000004
20
-8.0461299999999998
42
-0.41421356237309503
0
LWPOLYLINE
5
145
100
AcDbEntity
8
0
100
AcDbPolyline
90
8
70
1
43
0.0
10
-130.41900000000001
20
-64.696299999999994
10
-117.41800000000001
20
-64.696299999999979
42
-0.41421356237309503
10
-116.91800000000001
20
-65.196299999999994
10
-116.91800000000001
20
-78.195599999999999
42
-0.41421356237309503
10
-117.41800000000001
20
-78.695599999999999
10
-130.41900000000001
20
-78.695599999999999
42
-0.41421356237309503
10
-130.91900000000004
20
-78.195599999999985
10
-130.91900000000004
20
-65.196299999999994
42
-0.41421356237309503
0
LWPOLYLINE
5
146
100
AcDbEntity
8
0
100
AcDbPolyline
90
8
70
1
43
0.0
10
-168.51900000000001
20
-64.696299999999994
10
-155.52000000000004
20
-64.696299999999979
42
-0.41421356237309503
10
-155.02000000000004
20
-65.196299999999994
10
-155.02000000000004
20
-78.195599999999999
42
-0.41421356237309503
10
-155.52000000000004
20
-78.695599999999999
10
-168.51900000000001
20
-78.695599999999999
42
-0.41421356237309503
10
-169.01900000000001
20
-78.195599999999985
10
-169.01900000000001
20
-65.196299999999994
42
-0.41421356237309503
0
LWPOLYLINE
5
147
100
AcDbEntity
8
0
100
AcDbPolyline
90
8
70
1
43
0.0
10
-39.931500000000007
20
-88.508800000000008
10
-26.932200000000002
20
-88.508800000000008
42
-0.41421356237309503
10
-26.432200000000002
20
-89.008800000000008
10
-26.432199999999995
20
-102.008
42
-0.41421356237309503
10
-26.932200000000002
20
-102.508
10
-39.9315
20
-102.50799999999998
42
-0.41421356237309503
10
-40.4315
20
-102.008
10
-40.431500000000007
20
-89.008800000000008
42
-0.41421356237309503
0
LWPOLYLINE
5
148
100
AcDbEntity
8
0
100
AcDbPolyline
90
8
70
1
43
0.0
10
-49.456500000000005
20
-26.596100000000003
10
-36.4572
20
-26.596100000000003
42
-0.41421356237309503
10
-35.9572
20
-27.0961
10
-35.9572
20
-40.095500000000008
42
-0.41421356237309503
10
-36.4572
20
-40.595500000000008
10
-49.456500000000005
20
-40.595500000000008
42
-0.41421356237309503
10
-49.956500000000005
20
-40.095500000000008
10
-49.956500000000005
20
-27.0961
42
-0.41421356237309503
0
LWPOLYLINE
5
149
100
AcDbEntity
8
0
100
AcDbPolyline
90
8
70
1
43
0.0
10
-35.169000000000004
20
-64.696299999999994
10
-22.169699999999999
20
-64.696299999999994
42
-0.41421356237309503
10
-21.669699999999999
20
-65.196299999999994
10
-21.669699999999999
20
-78.195599999999999
42
-0.41421356237309503
10
-22.169699999999999
20
-78.695599999999999
10
-35.169000000000004
20
-78.695599999999985
42
-0.41421356237309503
10
-35.668999999999997
20
-78.195599999999985
10
-35.668999999999997
20
-65.196299999999994
42
-0.41421356237309503
0
LWPOLYLINE
5
150
100
AcDbEntity
8
0
100
AcDbPolyline
90
8
70
1
43
0.0
10
-23.262900000000002
20
-26.596100000000003
10
-10.262029999999999
20
-26.5961
42
-0.41421356237309503
10
-9.7620299999999993
20
-27.0961
10
-9.7620299999999993
20
-40.095500000000008
42
-0.41421356237309503
10
-10.262029999999998
20
-40.595500000000008
10
-23.262900000000002
20
-40.595500000000008
42
-0.41421356237309503
10
-23.762900000000002
20
-40.095500000000008
10
-23.762900000000002
20
-27.0961
42
-0.41421356237309503
0
LWPOLYLINE
5
151
100
AcDbEntity
8
0
100
AcDbPolyline
90
8
70
1
43
0.0
10
-97.081500000000005
20
-88.508800000000008
10
-84.082200000000014
20
-88.508800000000008
42
-0.41421356237309503
10
-83.582200000000014
20
-89.008800000000008
10
-83.582200000000014
20
-102.008
42
-0.41421356237309503
10
-84.082200000000014
20
-102.508
10
-97.081500000000005
20
-102.508
42
-0.41421356237309503
10
-97.581500000000005
20
-102.008
10
-97.581500000000005
20
-89.008800000000008
42
-0.41421356237309503
0
LWPOLYLINE
5
152
100
AcDbEntity
8
0
100
AcDbPolyline
90
8
70
1
43
0.0
10
-16.119199999999999
20
-88.508800000000008
10
-3.1196500000000005
20
-88.508800000000008
42
-0.41421356237309503
10
-2.6196500000000005
20
-89.008800000000008
10
-2.6196499999999934
20
-102.008
42
-0.41421356237309503
10
-3.1196500000000005
20
-102.508
10
-16.119199999999999
20
-102.508
42
-0.41421356237309503
10
-16.619199999999999
20
-102.008
10
-16.619200000000006
20
-89.008800000000008
42
-0.41421356237309503
0
LWPOLYLINE
5
153
100
AcDbEntity
8
0
100
AcDbPolyline
90
8
70
1
43
0.0
10
-54.219000000000008
20
-64.696299999999994
10
-41.219700000000003
20
-64.696299999999994
42
-0.41421356237309503
10
-40.719700000000003
20
-65.196299999999994
10
-40.71970000000001
20
-78.195599999999999
42
-0.41421356237309503
10
-41.21970000000001
20
-78.695599999999999
10
-54.219000000000008
20
-78.695599999999985
42
-0.41421356237309503
10
-54.719000000000008
20
-78.195599999999985
10
-54.719000000000008
20
-65.196299999999994
42
-0.41421356237309503
0
LWPOLYLINE
5
154
100
AcDbEntity
8
0
100
AcDbPolyline
90
8
70
1
43
0.0
10
-18.500399999999999
20
-7.5461299999999998
10
-5.5009100000000011
20
-7.5461299999999998
42
-0.41421356237309503
10
-5.0009100000000011
20
-8.0461299999999998
10
-5.0009100000000029
20
-21.0456
42
-0.41421356237309503
10
-5.5009100000000011
20
-21.5456
10
-18.500399999999999
20
-21.5456
42
-0.41421356237309503
10
-19.000399999999999
20
-21.0456
10
-19.000399999999999
20
-8.0461299999999998
42
-0.41421356237309503
0
LWPOLYLINE
5
155
100
AcDbEntity
8
0
100
AcDbPolyline
90
8
70
1
43
0.0
10
-225.66900000000004
20
-64.696299999999994
10
-212.66999999999999
20
-64.696299999999979
42
-0.41421356237309503
10
-212.16999999999999
20
-65.196299999999994
10
-212.16999999999996
20
-78.195599999999999
42
-0.41421356237309503
10
-212.66999999999996
20
-78.695599999999999
10
-225.66900000000001
20
-78.695599999999999
42
-0.41421356237309503
10
-226.16900000000001
20
-78.195599999999985
10
-226.16900000000004
20
-65.196299999999994
42
-0.41421356237309503
0
LWPOLYLINE
5
156
100
AcDbEntity
8
0
100
AcDbPolyline
90
8
70
1
43
0.0
10
-78.031499999999994
20
-88.508800000000008
10
-65.032200000000003
20
-88.508800000000008
42
-0.41421356237309503
10
-64.532200000000003
20
-89.008800000000008
10
-64.532200000000003
20
-102.008
42
-0.41421356237309503
10
-65.032200000000003
20
-102.508
10
-78.031499999999994
20
-102.50799999999998
42
-0.41421356237309503
10
-78.531499999999994
20
-102.008
10
-78.531499999999994
20
-89.008800000000008
42
-0.41421356237309503
0
LWPOLYLINE
5
157
100
AcDbEntity
8
0
100
AcDbPolyline
90
8
70
1
43
0.0
10
-125.657
20
-26.596100000000003
10
-112.65700000000001
20
-26.596099999999993
42
-0.41421356237309503
10
-112.157
20
-27.0961
10
-112.15700000000001
20
-40.095500000000008
42
-0.41421356237309503
10
-112.65700000000001
20
-40.595500000000008
10
-125.657
20
-40.595500000000015
42
-0.41421356237309503
10
-126.15700000000001
20
-40.095500000000008
10
-126.15700000000001
20
-27.0961
42
-0.41421356237309503
0
LWPOLYLINE
5
158
100
AcDbEntity
8
0
100
AcDbPolyline
90
8
70
1
43
0.0
10
-106.607
20
-26.596100000000003
10
-93.60720000000002
20
-26.596099999999993
42
-0.41421356237309503
10
-93.10720000000002
20
-27.0961
10
-93.107200000000034
20
-40.095500000000008
42
-0.41421356237309503
10
-93.60720000000002
20
-40.595500000000008
10
-106.607
20
-40.595500000000015
42
-0.41421356237309503
10
-107.10700000000001
20
-40.095500000000008
10
-107.107
20
-27.0961
42
-0.41421356237309503
0
LWPOLYLINE
5
159
100
AcDbEntity
8
0
100
AcDbPolyline
90
8
70
1
43
0.0
10
-61.362799999999993
20
-7.5461299999999998
10
-48.362099999999998
20
-7.5461300000000016
42
-0.41421356237309503
10
-47.862099999999998
20
-8.0461299999999998
10
-47.862099999999998
20
-21.0456
42
-0.41421356237309503
10
-48.362099999999998
20
-21.5456
10
-61.3628
20
-21.5456
42
-0.41421356237309503
10
-61.8628
20
-21.0456
10
-61.862799999999993
20
-8.0461299999999998
42
-0.41421356237309503
0
LWPOLYLINE
5
160
100
AcDbEntity
8
0
100
AcDbPolyline
90
8
70
1
43
0.0
10
-116.13200000000001
20
-88.508800000000008
10
-103.13200000000002
20
-88.508800000000008
42
-0.41421356237309503
10
-102.63200000000001
20
-89.008800000000008
10
-102.63200000000001
20
-102.008
42
-0.41421356237309503
10
-103.13200000000002
20
-102.508
10
-116.13200000000001
20
-102.508
42
-0.41421356237309503
10
-116.63200000000002
20
-102.008
10
-116.63200000000002
20
-89.008800000000008
42
-0.41421356237309503
0
LWPOLYLINE
5
161
100
AcDbEntity
8
0
100
AcDbPolyline
90
8
70
1
43
0.0
10
-149.46899999999999
20
-64.696299999999994
10
-136.47000000000003
20
-64.696299999999979
42
-0.41421356237309503
10
-135.97000000000003
20
-65.196299999999994
10
-135.97000000000003
20
-78.195599999999999
42
-0.41421356237309503
10
-136.47000000000003
20
-78.695599999999999
10
-149.46899999999999
20
-78.695599999999999
42
-0.41421356237309503
10
-149.96899999999999
20
-78.195599999999985
10
-149.96899999999999
20
-65.196299999999994
42
-0.41421356237309503
0
LWPOLYLINE
5
162
100
AcDbEntity
8
0
100
AcDbPolyline
90
8
70
1
43
0.0
10
-206.61900000000003
20
-64.696299999999994
10
-193.62
20
-64.696299999999979
42
-0.41421356237309503
10
-193.12
20
-65.196299999999994
10
-193.12
20
-78.195599999999999
42
-0.41421356237309503
10
-193.62
20
-78.695599999999999
10
-206.619
20
-78.695599999999999
42
-0.41421356237309503
10
-207.119
20
-78.195599999999985
10
-207.11900000000003
20
-65.196299999999994
42
-0.41421356237309503
0
CIRCLE
5
163
100
AcDbEntity
8
0
100
AcDbCircle
10
-220.74449999999999
20
1.9791350000000003
30
0
40
2.5815000000000006
210
0
220
-0
230
1
0
CIRCLE
5
164
100
AcDbEntity
8
0
100
AcDbCircle
10
-90.744500000000002
20
6.7416300000000007
30
0
40
2.5815000000000006
210
0
220
-0
230
1
0
CIRCLE
5
165
100
AcDbEntity
8
0
100
AcDbCircle
10
-205.74449999999999
20
-112.0334
30
0
40
2.5815000000000006
210
0
220
-0
230
1
0
CIRCLE
5
166
100
AcDbEntity
8
0
100
AcDbCircle
10
-98.094425000000015
20
-112.0334
30
0
40
2.5815000000000006
210
0
220
-0
230
1
0
CIRCLE
5
167
100
AcDbEntity
8
0
100
AcDbCircle
10
-43.094425000000001
20
-112.0334
30
0
40
2.5815000000000006
210
0
220
-0
230
1
0
CIRCLE
5
168
100
AcDbEntity
8
0
100
AcDbCircle
10
-155.74449999999999
20
-112.0334
30
0
40
2.5815000000000006
210
0
220
-0
230
1
0
CIRCLE
5
169
100
AcDbEntity
8
0
100
AcDbCircle
10
-33.094425000000001
20
1.9791350000000003
30
0
40
2.5815000000000006
210
0
220
-0
230
1
0
CIRCLE
5
170
100
AcDbEntity
8
0
100
AcDbCircle
10
-160.74449999999999
20
6.7416300000000007
30
0
40
2.5815000000000006
210
0
220
-0
230
1
0
CIRCLE
5
171
100
AcDbEntity
8
0
100
AcDbCircle
10
-141.494180511092
20
-95.50800000000001
30
0
40
3.9999999999999902
210
0
220
0
230
1
0
ENDSEC
0
SECTION
2
OBJECTS
0
DICTIONARY
5
C
100
AcDbDictionary
3
ACAD_GROUP
350
D
3
ACAD_MLINESTYLE
350
17
0
DICTIONARY
5
D
100
AcDbDictionary
0
DICTIONARY
5
1A
330
C
100
AcDbDictionary
0
DICTIONARY
5
17
100
AcDbDictionary
0
ENDSEC
0
EOF
