  0
SECTION
  2
HEADER
  9
$ACADVER
  1
AC1009
  9
$FILLMODE
 70
 0
  9
$SPLFRAME
 70
 1
  9
$EXTMIN
 10
0
 20
0
 30
0.0
  9
$EXTMAX
 10
1058.33
 20
1058.33
 30
0.0
  0
ENDSEC
  0
SECTION
  2
TABLES
  0
TABLE
  2
LAYER
 70
1
  0
LAYER
  2
0
 70
     0
 62
     7
  6
CONTINUOUS
  0
ENDTAB
  0
ENDSEC
  0
SECTION
  2
ENTITIES
  0
LINE
  8
0
 62
     0
 10
0.0950846
 20
105.033
 30
0.0
 11
247.745
 21
105.033
 31
0.0
  0
LINE
  8
0
 62
     0
 10
247.745
 20
105.033
 30
0.0
 11
247.745
 21
0.257693
 31
0.0
  0
LINE
  8
0
 62
     0
 10
247.745
 20
0.257693
 30
0.0
 11
0.0950846
 21
0.257693
 31
0.0
  0
LINE
  8
0
 62
     0
 10
0.0950846
 20
0.257693
 30
0.0
 11
0.0950846
 21
105.033
 31
0.0
  0
LINE
  8
0
 62
     0
 10
77.5339
 20
5.9104
 30
0.0
 11
80.1991
 21
5.9104
 31
0.0
  0
LINE
  8
0
 62
     0
 10
80.1991
 20
5.9104
 30
0.0
 11
80.1991
 21
0.7028
 31
0.0
  0
LINE
  8
0
 62
     0
 10
80.1991
 20
0.7028
 30
0.0
 11
77.5339
 21
0.7028
 31
0.0
  0
LINE
  8
0
 62
     0
 10
77.5339
 20
0.7028
 30
0.0
 11
77.5339
 21
5.9104
 31
0.0
  0
LINE
  8
0
 62
     0
 10
105.726
 20
5.9104
 30
0.0
 11
108.391
 21
5.9104
 31
0.0
  0
LINE
  8
0
 62
     0
 10
108.391
 20
5.9104
 30
0.0
 11
108.391
 21
0.7028
 31
0.0
  0
LINE
  8
0
 62
     0
 10
108.391
 20
0.7028
 30
0.0
 11
105.726
 21
0.7028
 31
0.0
  0
LINE
  8
0
 62
     0
 10
105.726
 20
0.7028
 30
0.0
 11
105.726
 21
5.9104
 31
0.0
  0
LINE
  8
0
 62
     0
 10
125.159
 20
5.9104
 30
0.0
 11
127.824
 21
5.9104
 31
0.0
  0
LINE
  8
0
 62
     0
 10
127.824
 20
5.9104
 30
0.0
 11
127.824
 21
0.7028
 31
0.0
  0
LINE
  8
0
 62
     0
 10
127.824
 20
0.7028
 30
0.0
 11
125.159
 21
0.7028
 31
0.0
  0
LINE
  8
0
 62
     0
 10
125.159
 20
0.7028
 30
0.0
 11
125.159
 21
5.9104
 31
0.0
  0
LINE
  8
0
 62
     0
 10
153.351
 20
5.9104
 30
0.0
 11
156.016
 21
5.9104
 31
0.0
  0
LINE
  8
0
 62
     0
 10
156.016
 20
5.9104
 30
0.0
 11
156.016
 21
0.7028
 31
0.0
  0
LINE
  8
0
 62
     0
 10
156.016
 20
0.7028
 30
0.0
 11
153.351
 21
0.7028
 31
0.0
  0
LINE
  8
0
 62
     0
 10
153.351
 20
0.7028
 30
0.0
 11
153.351
 21
5.9104
 31
0.0
  0
LINE
  8
0
 62
     0
 10
85.1627
 20
16.1837
 30
0.0
 11
100.762
 21
16.1837
 31
0.0
  0
LINE
  8
0
 62
     0
 10
100.762
 20
16.1837
 30
0.0
 11
100.762
 21
3.38308
 31
0.0
  0
LINE
  8
0
 62
     0
 10
100.762
 20
3.38308
 30
0.0
 11
85.1627
 21
3.38308
 31
0.0
  0
LINE
  8
0
 62
     0
 10
85.1627
 20
3.38308
 30
0.0
 11
85.1627
 21
16.1837
 31
0.0
  0
LINE
  8
0
 62
     0
 10
132.788
 20
16.1837
 30
0.0
 11
148.387
 21
16.1837
 31
0.0
  0
LINE
  8
0
 62
     0
 10
148.387
 20
16.1837
 30
0.0
 11
148.387
 21
3.38308
 31
0.0
  0
LINE
  8
0
 62
     0
 10
148.387
 20
3.38308
 30
0.0
 11
132.788
 21
3.38308
 31
0.0
  0
LINE
  8
0
 62
     0
 10
132.788
 20
3.38308
 30
0.0
 11
132.788
 21
16.1837
 31
0.0
  0
LINE
  8
0
 62
     0
 10
4.20028
 20
20.9462
 30
0.0
 11
19.801
 21
20.9462
 31
0.0
  0
LINE
  8
0
 62
     0
 10
19.801
 20
20.9462
 30
0.0
 11
19.801
 21
8.14698
 31
0.0
  0
LINE
  8
0
 62
     0
 10
19.801
 20
8.14698
 30
0.0
 11
4.20028
 21
8.14698
 31
0.0
  0
LINE
  8
0
 62
     0
 10
4.20028
 20
8.14698
 30
0.0
 11
4.20028
 21
20.9462
 31
0.0
  0
LINE
  8
0
 62
     0
 10
25.6315
 20
20.9462
 30
0.0
 11
41.2309
 21
20.9462
 31
0.0
  0
LINE
  8
0
 62
     0
 10
41.2309
 20
20.9462
 30
0.0
 11
41.2309
 21
8.14698
 31
0.0
  0
LINE
  8
0
 62
     0
 10
41.2309
 20
8.14698
 30
0.0
 11
25.6315
 21
8.14698
 31
0.0
  0
LINE
  8
0
 62
     0
 10
25.6315
 20
8.14698
 30
0.0
 11
25.6315
 21
20.9462
 31
0.0
  0
LINE
  8
0
 62
     0
 10
47.0627
 20
20.9462
 30
0.0
 11
62.6622
 21
20.9462
 31
0.0
  0
LINE
  8
0
 62
     0
 10
62.6622
 20
20.9462
 30
0.0
 11
62.6622
 21
8.14698
 31
0.0
  0
LINE
  8
0
 62
     0
 10
62.6622
 20
8.14698
 30
0.0
 11
47.0627
 21
8.14698
 31
0.0
  0
LINE
  8
0
 62
     0
 10
47.0627
 20
8.14698
 30
0.0
 11
47.0627
 21
20.9462
 31
0.0
  0
LINE
  8
0
 62
     0
 10
173.269
 20
20.9462
 30
0.0
 11
188.87
 21
20.9462
 31
0.0
  0
LINE
  8
0
 62
     0
 10
188.87
 20
20.9462
 30
0.0
 11
188.87
 21
8.14698
 31
0.0
  0
LINE
  8
0
 62
     0
 10
188.87
 20
8.14698
 30
0.0
 11
173.269
 21
8.14698
 31
0.0
  0
LINE
  8
0
 62
     0
 10
173.269
 20
8.14698
 30
0.0
 11
173.269
 21
20.9462
 31
0.0
  0
LINE
  8
0
 62
     0
 10
192.319
 20
20.9462
 30
0.0
 11
207.92
 21
20.9462
 31
0.0
  0
LINE
  8
0
 62
     0
 10
207.92
 20
20.9462
 30
0.0
 11
207.92
 21
8.14698
 31
0.0
  0
LINE
  8
0
 62
     0
 10
207.92
 20
8.14698
 30
0.0
 11
192.319
 21
8.14698
 31
0.0
  0
LINE
  8
0
 62
     0
 10
192.319
 20
8.14698
 30
0.0
 11
192.319
 21
20.9462
 31
0.0
  0
LINE
  8
0
 62
     0
 10
211.369
 20
20.9462
 30
0.0
 11
226.97
 21
20.9462
 31
0.0
  0
LINE
  8
0
 62
     0
 10
226.97
 20
20.9462
 30
0.0
 11
226.97
 21
8.14698
 31
0.0
  0
LINE
  8
0
 62
     0
 10
226.97
 20
8.14698
 30
0.0
 11
211.369
 21
8.14698
 31
0.0
  0
LINE
  8
0
 62
     0
 10
211.369
 20
8.14698
 30
0.0
 11
211.369
 21
20.9462
 31
0.0
  0
LINE
  8
0
 62
     0
 10
230.419
 20
20.9462
 30
0.0
 11
246.02
 21
20.9462
 31
0.0
  0
LINE
  8
0
 62
     0
 10
246.02
 20
20.9462
 30
0.0
 11
246.02
 21
8.14698
 31
0.0
  0
LINE
  8
0
 62
     0
 10
246.02
 20
8.14698
 30
0.0
 11
230.419
 21
8.14698
 31
0.0
  0
LINE
  8
0
 62
     0
 10
230.419
 20
8.14698
 30
0.0
 11
230.419
 21
20.9462
 31
0.0
  0
LINE
  8
0
 62
     0
 10
3.49195
 20
29.7229
 30
0.0
 11
6.15707
 21
29.7229
 31
0.0
  0
LINE
  8
0
 62
     0
 10
6.15707
 20
29.7229
 30
0.0
 11
6.15707
 21
24.5167
 31
0.0
  0
LINE
  8
0
 62
     0
 10
6.15707
 20
24.5167
 30
0.0
 11
3.49195
 21
24.5167
 31
0.0
  0
LINE
  8
0
 62
     0
 10
3.49195
 20
24.5167
 30
0.0
 11
3.49195
 21
29.7229
 31
0.0
  0
LINE
  8
0
 62
     0
 10
27.3678
 20
29.7229
 30
0.0
 11
30.033
 21
29.7229
 31
0.0
  0
LINE
  8
0
 62
     0
 10
30.033
 20
29.7229
 30
0.0
 11
30.033
 21
24.5167
 31
0.0
  0
LINE
  8
0
 62
     0
 10
30.033
 20
24.5167
 30
0.0
 11
27.3678
 21
24.5167
 31
0.0
  0
LINE
  8
0
 62
     0
 10
27.3678
 20
24.5167
 30
0.0
 11
27.3678
 21
29.7229
 31
0.0
  0
LINE
  8
0
 62
     0
 10
8.96278
 20
39.9962
 30
0.0
 11
24.5622
 21
39.9962
 31
0.0
  0
LINE
  8
0
 62
     0
 10
24.5622
 20
39.9962
 30
0.0
 11
24.5622
 21
27.197
 31
0.0
  0
LINE
  8
0
 62
     0
 10
24.5622
 20
27.197
 30
0.0
 11
8.96278
 21
27.197
 31
0.0
  0
LINE
  8
0
 62
     0
 10
8.96278
 20
27.197
 30
0.0
 11
8.96278
 21
39.9962
 31
0.0
  0
LINE
  8
0
 62
     0
 10
35.1565
 20
39.9962
 30
0.0
 11
50.7559
 21
39.9962
 31
0.0
  0
LINE
  8
0
 62
     0
 10
50.7559
 20
39.9962
 30
0.0
 11
50.7559
 21
27.197
 31
0.0
  0
LINE
  8
0
 62
     0
 10
50.7559
 20
27.197
 30
0.0
 11
35.1565
 21
27.197
 31
0.0
  0
LINE
  8
0
 62
     0
 10
35.1565
 20
27.197
 30
0.0
 11
35.1565
 21
39.9962
 31
0.0
  0
LINE
  8
0
 62
     0
 10
54.2064
 20
39.9962
 30
0.0
 11
69.8059
 21
39.9962
 31
0.0
  0
LINE
  8
0
 62
     0
 10
69.8059
 20
39.9962
 30
0.0
 11
69.8059
 21
27.197
 31
0.0
  0
LINE
  8
0
 62
     0
 10
69.8059
 20
27.197
 30
0.0
 11
54.2064
 21
27.197
 31
0.0
  0
LINE
  8
0
 62
     0
 10
54.2064
 20
27.197
 30
0.0
 11
54.2064
 21
39.9962
 31
0.0
  0
LINE
  8
0
 62
     0
 10
73.2564
 20
39.9962
 30
0.0
 11
88.8559
 21
39.9962
 31
0.0
  0
LINE
  8
0
 62
     0
 10
88.8559
 20
39.9962
 30
0.0
 11
88.8559
 21
27.197
 31
0.0
  0
LINE
  8
0
 62
     0
 10
88.8559
 20
27.197
 30
0.0
 11
73.2564
 21
27.197
 31
0.0
  0
LINE
  8
0
 62
     0
 10
73.2564
 20
27.197
 30
0.0
 11
73.2564
 21
39.9962
 31
0.0
  0
LINE
  8
0
 62
     0
 10
92.3064
 20
39.9962
 30
0.0
 11
107.906
 21
39.9962
 31
0.0
  0
LINE
  8
0
 62
     0
 10
107.906
 20
39.9962
 30
0.0
 11
107.906
 21
27.197
 31
0.0
  0
LINE
  8
0
 62
     0
 10
107.906
 20
27.197
 30
0.0
 11
92.3064
 21
27.197
 31
0.0
  0
LINE
  8
0
 62
     0
 10
92.3064
 20
27.197
 30
0.0
 11
92.3064
 21
39.9962
 31
0.0
  0
LINE
  8
0
 62
     0
 10
111.356
 20
39.9962
 30
0.0
 11
126.956
 21
39.9962
 31
0.0
  0
LINE
  8
0
 62
     0
 10
126.956
 20
39.9962
 30
0.0
 11
126.956
 21
27.197
 31
0.0
  0
LINE
  8
0
 62
     0
 10
126.956
 20
27.197
 30
0.0
 11
111.356
 21
27.197
 31
0.0
  0
LINE
  8
0
 62
     0
 10
111.356
 20
27.197
 30
0.0
 11
111.356
 21
39.9962
 31
0.0
  0
LINE
  8
0
 62
     0
 10
130.406
 20
39.9962
 30
0.0
 11
146.006
 21
39.9962
 31
0.0
  0
LINE
  8
0
 62
     0
 10
146.006
 20
39.9962
 30
0.0
 11
146.006
 21
27.197
 31
0.0
  0
LINE
  8
0
 62
     0
 10
146.006
 20
27.197
 30
0.0
 11
130.406
 21
27.197
 31
0.0
  0
LINE
  8
0
 62
     0
 10
130.406
 20
27.197
 30
0.0
 11
130.406
 21
39.9962
 31
0.0
  0
LINE
  8
0
 62
     0
 10
149.456
 20
39.9962
 30
0.0
 11
165.056
 21
39.9962
 31
0.0
  0
LINE
  8
0
 62
     0
 10
165.056
 20
39.9962
 30
0.0
 11
165.056
 21
27.197
 31
0.0
  0
LINE
  8
0
 62
     0
 10
165.056
 20
27.197
 30
0.0
 11
149.456
 21
27.197
 31
0.0
  0
LINE
  8
0
 62
     0
 10
149.456
 20
27.197
 30
0.0
 11
149.456
 21
39.9962
 31
0.0
  0
LINE
  8
0
 62
     0
 10
168.506
 20
39.9962
 30
0.0
 11
184.106
 21
39.9962
 31
0.0
  0
LINE
  8
0
 62
     0
 10
184.106
 20
39.9962
 30
0.0
 11
184.106
 21
27.197
 31
0.0
  0
LINE
  8
0
 62
     0
 10
184.106
 20
27.197
 30
0.0
 11
168.506
 21
27.197
 31
0.0
  0
LINE
  8
0
 62
     0
 10
168.506
 20
27.197
 30
0.0
 11
168.506
 21
39.9962
 31
0.0
  0
LINE
  8
0
 62
     0
 10
187.556
 20
39.9962
 30
0.0
 11
203.156
 21
39.9962
 31
0.0
  0
LINE
  8
0
 62
     0
 10
203.156
 20
39.9962
 30
0.0
 11
203.156
 21
27.197
 31
0.0
  0
LINE
  8
0
 62
     0
 10
203.156
 20
27.197
 30
0.0
 11
187.556
 21
27.197
 31
0.0
  0
LINE
  8
0
 62
     0
 10
187.556
 20
27.197
 30
0.0
 11
187.556
 21
39.9962
 31
0.0
  0
LINE
  8
0
 62
     0
 10
208.988
 20
39.9962
 30
0.0
 11
224.587
 21
39.9962
 31
0.0
  0
LINE
  8
0
 62
     0
 10
224.587
 20
39.9962
 30
0.0
 11
224.587
 21
27.197
 31
0.0
  0
LINE
  8
0
 62
     0
 10
224.587
 20
27.197
 30
0.0
 11
208.988
 21
27.197
 31
0.0
  0
LINE
  8
0
 62
     0
 10
208.988
 20
27.197
 30
0.0
 11
208.988
 21
39.9962
 31
0.0
  0
LINE
  8
0
 62
     0
 10
230.419
 20
39.9962
 30
0.0
 11
246.02
 21
39.9962
 31
0.0
  0
LINE
  8
0
 62
     0
 10
246.02
 20
39.9962
 30
0.0
 11
246.02
 21
27.197
 31
0.0
  0
LINE
  8
0
 62
     0
 10
246.02
 20
27.197
 30
0.0
 11
230.419
 21
27.197
 31
0.0
  0
LINE
  8
0
 62
     0
 10
230.419
 20
27.197
 30
0.0
 11
230.419
 21
39.9962
 31
0.0
  0
LINE
  8
0
 62
     0
 10
6.58153
 20
59.0462
 30
0.0
 11
22.1809
 21
59.0462
 31
0.0
  0
LINE
  8
0
 62
     0
 10
22.1809
 20
59.0462
 30
0.0
 11
22.1809
 21
46.247
 31
0.0
  0
LINE
  8
0
 62
     0
 10
22.1809
 20
46.247
 30
0.0
 11
6.58153
 21
46.247
 31
0.0
  0
LINE
  8
0
 62
     0
 10
6.58153
 20
46.247
 30
0.0
 11
6.58153
 21
59.0462
 31
0.0
  0
LINE
  8
0
 62
     0
 10
30.394
 20
59.0462
 30
0.0
 11
45.9948
 21
59.0462
 31
0.0
  0
LINE
  8
0
 62
     0
 10
45.9948
 20
59.0462
 30
0.0
 11
45.9948
 21
46.247
 31
0.0
  0
LINE
  8
0
 62
     0
 10
45.9948
 20
46.247
 30
0.0
 11
30.394
 21
46.247
 31
0.0
  0
LINE
  8
0
 62
     0
 10
30.394
 20
46.247
 30
0.0
 11
30.394
 21
59.0462
 31
0.0
  0
LINE
  8
0
 62
     0
 10
49.4439
 20
59.0462
 30
0.0
 11
65.0448
 21
59.0462
 31
0.0
  0
LINE
  8
0
 62
     0
 10
65.0448
 20
59.0462
 30
0.0
 11
65.0448
 21
46.247
 31
0.0
  0
LINE
  8
0
 62
     0
 10
65.0448
 20
46.247
 30
0.0
 11
49.4439
 21
46.247
 31
0.0
  0
LINE
  8
0
 62
     0
 10
49.4439
 20
46.247
 30
0.0
 11
49.4439
 21
59.0462
 31
0.0
  0
LINE
  8
0
 62
     0
 10
68.4939
 20
59.0462
 30
0.0
 11
84.0948
 21
59.0462
 31
0.0
  0
LINE
  8
0
 62
     0
 10
84.0948
 20
59.0462
 30
0.0
 11
84.0948
 21
46.247
 31
0.0
  0
LINE
  8
0
 62
     0
 10
84.0948
 20
46.247
 30
0.0
 11
68.4939
 21
46.247
 31
0.0
  0
LINE
  8
0
 62
     0
 10
68.4939
 20
46.247
 30
0.0
 11
68.4939
 21
59.0462
 31
0.0
  0
LINE
  8
0
 62
     0
 10
87.5439
 20
59.0462
 30
0.0
 11
103.145
 21
59.0462
 31
0.0
  0
LINE
  8
0
 62
     0
 10
103.145
 20
59.0462
 30
0.0
 11
103.145
 21
46.247
 31
0.0
  0
LINE
  8
0
 62
     0
 10
103.145
 20
46.247
 30
0.0
 11
87.5439
 21
46.247
 31
0.0
  0
LINE
  8
0
 62
     0
 10
87.5439
 20
46.247
 30
0.0
 11
87.5439
 21
59.0462
 31
0.0
  0
LINE
  8
0
 62
     0
 10
106.594
 20
59.0462
 30
0.0
 11
122.195
 21
59.0462
 31
0.0
  0
LINE
  8
0
 62
     0
 10
122.195
 20
59.0462
 30
0.0
 11
122.195
 21
46.247
 31
0.0
  0
LINE
  8
0
 62
     0
 10
122.195
 20
46.247
 30
0.0
 11
106.594
 21
46.247
 31
0.0
  0
LINE
  8
0
 62
     0
 10
106.594
 20
46.247
 30
0.0
 11
106.594
 21
59.0462
 31
0.0
  0
LINE
  8
0
 62
     0
 10
125.644
 20
59.0462
 30
0.0
 11
141.245
 21
59.0462
 31
0.0
  0
LINE
  8
0
 62
     0
 10
141.245
 20
59.0462
 30
0.0
 11
141.245
 21
46.247
 31
0.0
  0
LINE
  8
0
 62
     0
 10
141.245
 20
46.247
 30
0.0
 11
125.644
 21
46.247
 31
0.0
  0
LINE
  8
0
 62
     0
 10
125.644
 20
46.247
 30
0.0
 11
125.644
 21
59.0462
 31
0.0
  0
LINE
  8
0
 62
     0
 10
144.694
 20
59.0462
 30
0.0
 11
160.295
 21
59.0462
 31
0.0
  0
LINE
  8
0
 62
     0
 10
160.295
 20
59.0462
 30
0.0
 11
160.295
 21
46.247
 31
0.0
  0
LINE
  8
0
 62
     0
 10
160.295
 20
46.247
 30
0.0
 11
144.694
 21
46.247
 31
0.0
  0
LINE
  8
0
 62
     0
 10
144.694
 20
46.247
 30
0.0
 11
144.694
 21
59.0462
 31
0.0
  0
LINE
  8
0
 62
     0
 10
163.744
 20
59.0462
 30
0.0
 11
179.345
 21
59.0462
 31
0.0
  0
LINE
  8
0
 62
     0
 10
179.345
 20
59.0462
 30
0.0
 11
179.345
 21
46.247
 31
0.0
  0
LINE
  8
0
 62
     0
 10
179.345
 20
46.247
 30
0.0
 11
163.744
 21
46.247
 31
0.0
  0
LINE
  8
0
 62
     0
 10
163.744
 20
46.247
 30
0.0
 11
163.744
 21
59.0462
 31
0.0
  0
LINE
  8
0
 62
     0
 10
182.794
 20
59.0462
 30
0.0
 11
198.395
 21
59.0462
 31
0.0
  0
LINE
  8
0
 62
     0
 10
198.395
 20
59.0462
 30
0.0
 11
198.395
 21
46.247
 31
0.0
  0
LINE
  8
0
 62
     0
 10
198.395
 20
46.247
 30
0.0
 11
182.794
 21
46.247
 31
0.0
  0
LINE
  8
0
 62
     0
 10
182.794
 20
46.247
 30
0.0
 11
182.794
 21
59.0462
 31
0.0
  0
LINE
  8
0
 62
     0
 10
201.844
 20
59.0462
 30
0.0
 11
217.445
 21
59.0462
 31
0.0
  0
LINE
  8
0
 62
     0
 10
217.445
 20
59.0462
 30
0.0
 11
217.445
 21
46.247
 31
0.0
  0
LINE
  8
0
 62
     0
 10
217.445
 20
46.247
 30
0.0
 11
201.844
 21
46.247
 31
0.0
  0
LINE
  8
0
 62
     0
 10
201.844
 20
46.247
 30
0.0
 11
201.844
 21
59.0462
 31
0.0
  0
LINE
  8
0
 62
     0
 10
225.656
 20
59.0462
 30
0.0
 11
241.256
 21
59.0462
 31
0.0
  0
LINE
  8
0
 62
     0
 10
241.256
 20
59.0462
 30
0.0
 11
241.256
 21
46.247
 31
0.0
  0
LINE
  8
0
 62
     0
 10
241.256
 20
46.247
 30
0.0
 11
225.656
 21
46.247
 31
0.0
  0
LINE
  8
0
 62
     0
 10
225.656
 20
46.247
 30
0.0
 11
225.656
 21
59.0462
 31
0.0
  0
LINE
  8
0
 62
     0
 10
1.81901
 20
78.0962
 30
0.0
 11
17.4198
 21
78.0962
 31
0.0
  0
LINE
  8
0
 62
     0
 10
17.4198
 20
78.0962
 30
0.0
 11
17.4198
 21
65.297
 31
0.0
  0
LINE
  8
0
 62
     0
 10
17.4198
 20
65.297
 30
0.0
 11
1.81901
 21
65.297
 31
0.0
  0
LINE
  8
0
 62
     0
 10
1.81901
 20
65.297
 30
0.0
 11
1.81901
 21
78.0962
 31
0.0
  0
LINE
  8
0
 62
     0
 10
20.869
 20
78.0962
 30
0.0
 11
36.4698
 21
78.0962
 31
0.0
  0
LINE
  8
0
 62
     0
 10
36.4698
 20
78.0962
 30
0.0
 11
36.4698
 21
65.297
 31
0.0
  0
LINE
  8
0
 62
     0
 10
36.4698
 20
65.297
 30
0.0
 11
20.869
 21
65.297
 31
0.0
  0
LINE
  8
0
 62
     0
 10
20.869
 20
65.297
 30
0.0
 11
20.869
 21
78.0962
 31
0.0
  0
LINE
  8
0
 62
     0
 10
39.9189
 20
78.0962
 30
0.0
 11
55.5198
 21
78.0962
 31
0.0
  0
LINE
  8
0
 62
     0
 10
55.5198
 20
78.0962
 30
0.0
 11
55.5198
 21
65.297
 31
0.0
  0
LINE
  8
0
 62
     0
 10
55.5198
 20
65.297
 30
0.0
 11
39.9189
 21
65.297
 31
0.0
  0
LINE
  8
0
 62
     0
 10
39.9189
 20
65.297
 30
0.0
 11
39.9189
 21
78.0962
 31
0.0
  0
LINE
  8
0
 62
     0
 10
58.9689
 20
78.0962
 30
0.0
 11
74.5698
 21
78.0962
 31
0.0
  0
LINE
  8
0
 62
     0
 10
74.5698
 20
78.0962
 30
0.0
 11
74.5698
 21
65.297
 31
0.0
  0
LINE
  8
0
 62
     0
 10
74.5698
 20
65.297
 30
0.0
 11
58.9689
 21
65.297
 31
0.0
  0
LINE
  8
0
 62
     0
 10
58.9689
 20
65.297
 30
0.0
 11
58.9689
 21
78.0962
 31
0.0
  0
LINE
  8
0
 62
     0
 10
78.0189
 20
78.0962
 30
0.0
 11
93.6184
 21
78.0962
 31
0.0
  0
LINE
  8
0
 62
     0
 10
93.6184
 20
78.0962
 30
0.0
 11
93.6184
 21
65.297
 31
0.0
  0
LINE
  8
0
 62
     0
 10
93.6184
 20
65.297
 30
0.0
 11
78.0189
 21
65.297
 31
0.0
  0
LINE
  8
0
 62
     0
 10
78.0189
 20
65.297
 30
0.0
 11
78.0189
 21
78.0962
 31
0.0
  0
LINE
  8
0
 62
     0
 10
97.0689
 20
78.0962
 30
0.0
 11
112.668
 21
78.0962
 31
0.0
  0
LINE
  8
0
 62
     0
 10
112.668
 20
78.0962
 30
0.0
 11
112.668
 21
65.297
 31
0.0
  0
LINE
  8
0
 62
     0
 10
112.668
 20
65.297
 30
0.0
 11
97.0689
 21
65.297
 31
0.0
  0
LINE
  8
0
 62
     0
 10
97.0689
 20
65.297
 30
0.0
 11
97.0689
 21
78.0962
 31
0.0
  0
LINE
  8
0
 62
     0
 10
116.119
 20
78.0962
 30
0.0
 11
131.72
 21
78.0962
 31
0.0
  0
LINE
  8
0
 62
     0
 10
131.72
 20
78.0962
 30
0.0
 11
131.72
 21
65.297
 31
0.0
  0
LINE
  8
0
 62
     0
 10
131.72
 20
65.297
 30
0.0
 11
116.119
 21
65.297
 31
0.0
  0
LINE
  8
0
 62
     0
 10
116.119
 20
65.297
 30
0.0
 11
116.119
 21
78.0962
 31
0.0
  0
LINE
  8
0
 62
     0
 10
135.169
 20
78.0962
 30
0.0
 11
150.77
 21
78.0962
 31
0.0
  0
LINE
  8
0
 62
     0
 10
150.77
 20
78.0962
 30
0.0
 11
150.77
 21
65.297
 31
0.0
  0
LINE
  8
0
 62
     0
 10
150.77
 20
65.297
 30
0.0
 11
135.169
 21
65.297
 31
0.0
  0
LINE
  8
0
 62
     0
 10
135.169
 20
65.297
 30
0.0
 11
135.169
 21
78.0962
 31
0.0
  0
LINE
  8
0
 62
     0
 10
154.219
 20
78.0962
 30
0.0
 11
169.82
 21
78.0962
 31
0.0
  0
LINE
  8
0
 62
     0
 10
169.82
 20
78.0962
 30
0.0
 11
169.82
 21
65.297
 31
0.0
  0
LINE
  8
0
 62
     0
 10
169.82
 20
65.297
 30
0.0
 11
154.219
 21
65.297
 31
0.0
  0
LINE
  8
0
 62
     0
 10
154.219
 20
65.297
 30
0.0
 11
154.219
 21
78.0962
 31
0.0
  0
LINE
  8
0
 62
     0
 10
173.269
 20
78.0962
 30
0.0
 11
188.87
 21
78.0962
 31
0.0
  0
LINE
  8
0
 62
     0
 10
188.87
 20
78.0962
 30
0.0
 11
188.87
 21
65.297
 31
0.0
  0
LINE
  8
0
 62
     0
 10
188.87
 20
65.297
 30
0.0
 11
173.269
 21
65.297
 31
0.0
  0
LINE
  8
0
 62
     0
 10
173.269
 20
65.297
 30
0.0
 11
173.269
 21
78.0962
 31
0.0
  0
LINE
  8
0
 62
     0
 10
192.319
 20
78.0962
 30
0.0
 11
207.92
 21
78.0962
 31
0.0
  0
LINE
  8
0
 62
     0
 10
207.92
 20
78.0962
 30
0.0
 11
207.92
 21
65.297
 31
0.0
  0
LINE
  8
0
 62
     0
 10
207.92
 20
65.297
 30
0.0
 11
192.319
 21
65.297
 31
0.0
  0
LINE
  8
0
 62
     0
 10
192.319
 20
65.297
 30
0.0
 11
192.319
 21
78.0962
 31
0.0
  0
LINE
  8
0
 62
     0
 10
211.369
 20
78.0962
 30
0.0
 11
226.97
 21
78.0962
 31
0.0
  0
LINE
  8
0
 62
     0
 10
226.97
 20
78.0962
 30
0.0
 11
226.97
 21
65.297
 31
0.0
  0
LINE
  8
0
 62
     0
 10
226.97
 20
65.297
 30
0.0
 11
211.369
 21
65.297
 31
0.0
  0
LINE
  8
0
 62
     0
 10
211.369
 20
65.297
 30
0.0
 11
211.369
 21
78.0962
 31
0.0
  0
LINE
  8
0
 62
     0
 10
230.419
 20
78.0962
 30
0.0
 11
246.02
 21
78.0962
 31
0.0
  0
LINE
  8
0
 62
     0
 10
246.02
 20
78.0962
 30
0.0
 11
246.02
 21
65.297
 31
0.0
  0
LINE
  8
0
 62
     0
 10
246.02
 20
65.297
 30
0.0
 11
230.419
 21
65.297
 31
0.0
  0
LINE
  8
0
 62
     0
 10
230.419
 20
65.297
 30
0.0
 11
230.419
 21
78.0962
 31
0.0
  0
LINE
  8
0
 62
     0
 10
1.81901
 20
101.909
 30
0.0
 11
17.4198
 21
101.909
 31
0.0
  0
LINE
  8
0
 62
     0
 10
17.4198
 20
101.909
 30
0.0
 11
17.4198
 21
89.1081
 31
0.0
  0
LINE
  8
0
 62
     0
 10
17.4198
 20
89.1081
 30
0.0
 11
1.81901
 21
89.1081
 31
0.0
  0
LINE
  8
0
 62
     0
 10
1.81901
 20
89.1081
 30
0.0
 11
1.81901
 21
101.909
 31
0.0
  0
LINE
  8
0
 62
     0
 10
25.6315
 20
101.909
 30
0.0
 11
41.2309
 21
101.909
 31
0.0
  0
LINE
  8
0
 62
     0
 10
41.2309
 20
101.909
 30
0.0
 11
41.2309
 21
89.1081
 31
0.0
  0
LINE
  8
0
 62
     0
 10
41.2309
 20
89.1081
 30
0.0
 11
25.6315
 21
89.1081
 31
0.0
  0
LINE
  8
0
 62
     0
 10
25.6315
 20
89.1081
 30
0.0
 11
25.6315
 21
101.909
 31
0.0
  0
LINE
  8
0
 62
     0
 10
44.6814
 20
101.909
 30
0.0
 11
60.2809
 21
101.909
 31
0.0
  0
LINE
  8
0
 62
     0
 10
60.2809
 20
101.909
 30
0.0
 11
60.2809
 21
89.1081
 31
0.0
  0
LINE
  8
0
 62
     0
 10
60.2809
 20
89.1081
 30
0.0
 11
44.6814
 21
89.1081
 31
0.0
  0
LINE
  8
0
 62
     0
 10
44.6814
 20
89.1081
 30
0.0
 11
44.6814
 21
101.909
 31
0.0
  0
LINE
  8
0
 62
     0
 10
63.7314
 20
101.909
 30
0.0
 11
79.3309
 21
101.909
 31
0.0
  0
LINE
  8
0
 62
     0
 10
79.3309
 20
101.909
 30
0.0
 11
79.3309
 21
89.1081
 31
0.0
  0
LINE
  8
0
 62
     0
 10
79.3309
 20
89.1081
 30
0.0
 11
63.7314
 21
89.1081
 31
0.0
  0
LINE
  8
0
 62
     0
 10
63.7314
 20
89.1081
 30
0.0
 11
63.7314
 21
101.909
 31
0.0
  0
LINE
  8
0
 62
     0
 10
82.7814
 20
101.909
 30
0.0
 11
98.3809
 21
101.909
 31
0.0
  0
LINE
  8
0
 62
     0
 10
98.3809
 20
101.909
 30
0.0
 11
98.3809
 21
89.1081
 31
0.0
  0
LINE
  8
0
 62
     0
 10
98.3809
 20
89.1081
 30
0.0
 11
82.7814
 21
89.1081
 31
0.0
  0
LINE
  8
0
 62
     0
 10
82.7814
 20
89.1081
 30
0.0
 11
82.7814
 21
101.909
 31
0.0
  0
LINE
  8
0
 62
     0
 10
101.831
 20
101.909
 30
0.0
 11
117.431
 21
101.909
 31
0.0
  0
LINE
  8
0
 62
     0
 10
117.431
 20
101.909
 30
0.0
 11
117.431
 21
89.1081
 31
0.0
  0
LINE
  8
0
 62
     0
 10
117.431
 20
89.1081
 30
0.0
 11
101.831
 21
89.1081
 31
0.0
  0
LINE
  8
0
 62
     0
 10
101.831
 20
89.1081
 30
0.0
 11
101.831
 21
101.909
 31
0.0
  0
ENDSEC
  0
EOF
