ISO-10303-21;
HEADER;
/* Generated by software containing ST-Developer
 * from STEP Tools, Inc. (www.steptools.com) 
 */

FILE_DESCRIPTION(
/* description */ ('',
'CAx-IF Rec.Pracs.---Representation and Presentation of Product Manufa
cturing Information (PMI)---4.0---2014-10-13'),
/* implementation_level */ '2;1');

FILE_NAME(
/* name */ 'case_weight.step',
/* time_stamp */ '2025-02-15T15:58:02-05:00',
/* author */ (''),
/* organization */ (''),
/* preprocessor_version */ 'ST-DEVELOPER v20',
/* originating_system */ 'Autodesk Translation Framework v13.20.0.188',

/* authorisation */ '');

FILE_SCHEMA (('MODEL_BASED_INTEGRATED_MANUFACTURING_SCHEMA','AP242_MANAGED_MODEL_BASED_3D_ENGINEERING_MIM_LF { 1 0 10303 442 1 1 4 }'));
ENDSEC;

DATA;
#10=MECHANICAL_DESIGN_GEOMETRIC_PRESENTATION_REPRESENTATION('',(#17),#1177);
#11=ITEM_DEFINED_TRANSFORMATION($,$,#711,#774);
#12=(
REPRESENTATION_RELATIONSHIP($,$,#1188,#1187)
REPRESENTATION_RELATIONSHIP_WITH_TRANSFORMATION(#11)
SHAPE_REPRESENTATION_RELATIONSHIP()
);
#13=CONTEXT_DEPENDENT_SHAPE_REPRESENTATION(#12,#1186);
#14=NEXT_ASSEMBLY_USAGE_OCCURRENCE('weight:1','weight:1','weight:1',#1190,
#1191,'weight:1');
#15=SHAPE_REPRESENTATION_RELATIONSHIP('SRR','None',#1188,#16);
#16=ADVANCED_BREP_SHAPE_REPRESENTATION('',(#18),#1176);
#17=STYLED_ITEM('',(#1202),#18);
#18=MANIFOLD_SOLID_BREP('angle',#697);
#19=FACE_BOUND('',#129,.T.);
#20=FACE_BOUND('',#130,.T.);
#21=FACE_BOUND('',#131,.T.);
#22=FACE_BOUND('',#132,.T.);
#23=FACE_BOUND('',#141,.T.);
#24=FACE_BOUND('',#142,.T.);
#25=CIRCLE('',#714,3.);
#26=CIRCLE('',#715,3.);
#27=CIRCLE('',#718,3.);
#28=CIRCLE('',#719,3.);
#29=CIRCLE('',#723,3.);
#30=CIRCLE('',#724,3.);
#31=CIRCLE('',#727,3.);
#32=CIRCLE('',#728,3.);
#33=CIRCLE('',#732,3.00000000000001);
#34=CIRCLE('',#733,3.00000000000001);
#35=CIRCLE('',#736,3.00000000000001);
#36=CIRCLE('',#737,3.00000000000001);
#37=CIRCLE('',#741,3.00000000000001);
#38=CIRCLE('',#742,3.00000000000001);
#39=CIRCLE('',#745,3.00000000000001);
#40=CIRCLE('',#746,3.00000000000001);
#41=CIRCLE('',#762,1.2645);
#42=CIRCLE('',#763,1.2645);
#43=CIRCLE('',#766,1.2645);
#44=CIRCLE('',#767,1.2645);
#45=CYLINDRICAL_SURFACE('',#713,3.);
#46=CYLINDRICAL_SURFACE('',#717,3.);
#47=CYLINDRICAL_SURFACE('',#722,3.);
#48=CYLINDRICAL_SURFACE('',#726,3.);
#49=CYLINDRICAL_SURFACE('',#731,3.00000000000001);
#50=CYLINDRICAL_SURFACE('',#735,3.00000000000001);
#51=CYLINDRICAL_SURFACE('',#740,3.00000000000001);
#52=CYLINDRICAL_SURFACE('',#744,3.00000000000001);
#53=CYLINDRICAL_SURFACE('',#761,1.2645);
#54=CYLINDRICAL_SURFACE('',#765,1.2645);
#55=FACE_OUTER_BOUND('',#97,.T.);
#56=FACE_OUTER_BOUND('',#98,.T.);
#57=FACE_OUTER_BOUND('',#99,.T.);
#58=FACE_OUTER_BOUND('',#100,.T.);
#59=FACE_OUTER_BOUND('',#101,.T.);
#60=FACE_OUTER_BOUND('',#102,.T.);
#61=FACE_OUTER_BOUND('',#103,.T.);
#62=FACE_OUTER_BOUND('',#104,.T.);
#63=FACE_OUTER_BOUND('',#105,.T.);
#64=FACE_OUTER_BOUND('',#106,.T.);
#65=FACE_OUTER_BOUND('',#107,.T.);
#66=FACE_OUTER_BOUND('',#108,.T.);
#67=FACE_OUTER_BOUND('',#109,.T.);
#68=FACE_OUTER_BOUND('',#110,.T.);
#69=FACE_OUTER_BOUND('',#111,.T.);
#70=FACE_OUTER_BOUND('',#112,.T.);
#71=FACE_OUTER_BOUND('',#113,.T.);
#72=FACE_OUTER_BOUND('',#114,.T.);
#73=FACE_OUTER_BOUND('',#115,.T.);
#74=FACE_OUTER_BOUND('',#116,.T.);
#75=FACE_OUTER_BOUND('',#117,.T.);
#76=FACE_OUTER_BOUND('',#118,.T.);
#77=FACE_OUTER_BOUND('',#119,.T.);
#78=FACE_OUTER_BOUND('',#120,.T.);
#79=FACE_OUTER_BOUND('',#121,.T.);
#80=FACE_OUTER_BOUND('',#122,.T.);
#81=FACE_OUTER_BOUND('',#123,.T.);
#82=FACE_OUTER_BOUND('',#124,.T.);
#83=FACE_OUTER_BOUND('',#125,.T.);
#84=FACE_OUTER_BOUND('',#126,.T.);
#85=FACE_OUTER_BOUND('',#127,.T.);
#86=FACE_OUTER_BOUND('',#128,.T.);
#87=FACE_OUTER_BOUND('',#133,.T.);
#88=FACE_OUTER_BOUND('',#134,.T.);
#89=FACE_OUTER_BOUND('',#135,.T.);
#90=FACE_OUTER_BOUND('',#136,.T.);
#91=FACE_OUTER_BOUND('',#137,.T.);
#92=FACE_OUTER_BOUND('',#138,.T.);
#93=FACE_OUTER_BOUND('',#139,.T.);
#94=FACE_OUTER_BOUND('',#140,.T.);
#95=FACE_OUTER_BOUND('',#143,.T.);
#96=FACE_OUTER_BOUND('',#144,.T.);
#97=EDGE_LOOP('',(#439,#440,#441,#442));
#98=EDGE_LOOP('',(#443,#444,#445,#446));
#99=EDGE_LOOP('',(#447,#448,#449,#450));
#100=EDGE_LOOP('',(#451,#452,#453,#454));
#101=EDGE_LOOP('',(#455,#456,#457,#458));
#102=EDGE_LOOP('',(#459,#460,#461,#462));
#103=EDGE_LOOP('',(#463,#464,#465,#466));
#104=EDGE_LOOP('',(#467,#468,#469,#470));
#105=EDGE_LOOP('',(#471,#472,#473,#474));
#106=EDGE_LOOP('',(#475,#476,#477,#478));
#107=EDGE_LOOP('',(#479,#480,#481,#482));
#108=EDGE_LOOP('',(#483,#484,#485,#486));
#109=EDGE_LOOP('',(#487,#488,#489,#490));
#110=EDGE_LOOP('',(#491,#492,#493,#494));
#111=EDGE_LOOP('',(#495,#496,#497,#498));
#112=EDGE_LOOP('',(#499,#500,#501,#502));
#113=EDGE_LOOP('',(#503,#504,#505,#506));
#114=EDGE_LOOP('',(#507,#508,#509,#510));
#115=EDGE_LOOP('',(#511,#512,#513,#514));
#116=EDGE_LOOP('',(#515,#516,#517,#518));
#117=EDGE_LOOP('',(#519,#520,#521,#522));
#118=EDGE_LOOP('',(#523,#524,#525));
#119=EDGE_LOOP('',(#526,#527,#528,#529));
#120=EDGE_LOOP('',(#530,#531,#532,#533));
#121=EDGE_LOOP('',(#534,#535,#536,#537));
#122=EDGE_LOOP('',(#538,#539,#540));
#123=EDGE_LOOP('',(#541,#542,#543,#544));
#124=EDGE_LOOP('',(#545,#546,#547,#548));
#125=EDGE_LOOP('',(#549,#550,#551,#552));
#126=EDGE_LOOP('',(#553,#554,#555,#556));
#127=EDGE_LOOP('',(#557,#558,#559,#560));
#128=EDGE_LOOP('',(#561,#562,#563,#564));
#129=EDGE_LOOP('',(#565,#566,#567,#568));
#130=EDGE_LOOP('',(#569,#570,#571,#572));
#131=EDGE_LOOP('',(#573,#574,#575,#576));
#132=EDGE_LOOP('',(#577,#578,#579,#580));
#133=EDGE_LOOP('',(#581,#582,#583,#584,#585));
#134=EDGE_LOOP('',(#586,#587,#588,#589));
#135=EDGE_LOOP('',(#590));
#136=EDGE_LOOP('',(#591,#592,#593,#594));
#137=EDGE_LOOP('',(#595));
#138=EDGE_LOOP('',(#596,#597,#598,#599));
#139=EDGE_LOOP('',(#600,#601,#602,#603,#604));
#140=EDGE_LOOP('',(#605,#606,#607,#608,#609,#610,#611,#612));
#141=EDGE_LOOP('',(#613));
#142=EDGE_LOOP('',(#614));
#143=EDGE_LOOP('',(#615,#616,#617,#618));
#144=EDGE_LOOP('',(#619,#620,#621,#622));
#145=LINE('',#982,#217);
#146=LINE('',#984,#218);
#147=LINE('',#986,#219);
#148=LINE('',#987,#220);
#149=LINE('',#992,#221);
#150=LINE('',#996,#222);
#151=LINE('',#998,#223);
#152=LINE('',#999,#224);
#153=LINE('',#1007,#225);
#154=LINE('',#1009,#226);
#155=LINE('',#1011,#227);
#156=LINE('',#1012,#228);
#157=LINE('',#1017,#229);
#158=LINE('',#1021,#230);
#159=LINE('',#1023,#231);
#160=LINE('',#1024,#232);
#161=LINE('',#1032,#233);
#162=LINE('',#1034,#234);
#163=LINE('',#1036,#235);
#164=LINE('',#1037,#236);
#165=LINE('',#1042,#237);
#166=LINE('',#1046,#238);
#167=LINE('',#1048,#239);
#168=LINE('',#1049,#240);
#169=LINE('',#1057,#241);
#170=LINE('',#1059,#242);
#171=LINE('',#1061,#243);
#172=LINE('',#1062,#244);
#173=LINE('',#1067,#245);
#174=LINE('',#1071,#246);
#175=LINE('',#1073,#247);
#176=LINE('',#1074,#248);
#177=LINE('',#1082,#249);
#178=LINE('',#1084,#250);
#179=LINE('',#1086,#251);
#180=LINE('',#1087,#252);
#181=LINE('',#1091,#253);
#182=LINE('',#1093,#254);
#183=LINE('',#1094,#255);
#184=LINE('',#1097,#256);
#185=LINE('',#1099,#257);
#186=LINE('',#1100,#258);
#187=LINE('',#1104,#259);
#188=LINE('',#1105,#260);
#189=LINE('',#1106,#261);
#190=LINE('',#1109,#262);
#191=LINE('',#1111,#263);
#192=LINE('',#1112,#264);
#193=LINE('',#1116,#265);
#194=LINE('',#1118,#266);
#195=LINE('',#1119,#267);
#196=LINE('',#1121,#268);
#197=LINE('',#1122,#269);
#198=LINE('',#1124,#270);
#199=LINE('',#1125,#271);
#200=LINE('',#1129,#272);
#201=LINE('',#1130,#273);
#202=LINE('',#1131,#274);
#203=LINE('',#1134,#275);
#204=LINE('',#1136,#276);
#205=LINE('',#1137,#277);
#206=LINE('',#1140,#278);
#207=LINE('',#1142,#279);
#208=LINE('',#1143,#280);
#209=LINE('',#1145,#281);
#210=LINE('',#1147,#282);
#211=LINE('',#1152,#283);
#212=LINE('',#1159,#284);
#213=LINE('',#1163,#285);
#214=LINE('',#1164,#286);
#215=LINE('',#1166,#287);
#216=LINE('',#1168,#288);
#217=VECTOR('',#781,10.);
#218=VECTOR('',#782,10.);
#219=VECTOR('',#783,10.);
#220=VECTOR('',#784,10.);
#221=VECTOR('',#789,10.);
#222=VECTOR('',#794,10.);
#223=VECTOR('',#795,10.);
#224=VECTOR('',#796,10.);
#225=VECTOR('',#807,10.);
#226=VECTOR('',#808,10.);
#227=VECTOR('',#809,10.);
#228=VECTOR('',#810,10.);
#229=VECTOR('',#815,10.);
#230=VECTOR('',#820,10.);
#231=VECTOR('',#821,10.);
#232=VECTOR('',#822,10.);
#233=VECTOR('',#833,10.);
#234=VECTOR('',#834,10.);
#235=VECTOR('',#835,10.);
#236=VECTOR('',#836,10.);
#237=VECTOR('',#841,10.);
#238=VECTOR('',#846,10.);
#239=VECTOR('',#847,10.);
#240=VECTOR('',#848,10.);
#241=VECTOR('',#859,10.);
#242=VECTOR('',#860,10.);
#243=VECTOR('',#861,10.);
#244=VECTOR('',#862,10.);
#245=VECTOR('',#867,10.);
#246=VECTOR('',#872,10.);
#247=VECTOR('',#873,10.);
#248=VECTOR('',#874,10.);
#249=VECTOR('',#885,10.);
#250=VECTOR('',#886,10.);
#251=VECTOR('',#887,10.);
#252=VECTOR('',#888,10.);
#253=VECTOR('',#891,10.);
#254=VECTOR('',#892,10.);
#255=VECTOR('',#893,10.);
#256=VECTOR('',#896,10.);
#257=VECTOR('',#897,10.);
#258=VECTOR('',#898,10.);
#259=VECTOR('',#901,10.);
#260=VECTOR('',#902,10.);
#261=VECTOR('',#903,10.);
#262=VECTOR('',#906,10.);
#263=VECTOR('',#907,10.);
#264=VECTOR('',#908,10.);
#265=VECTOR('',#911,10.);
#266=VECTOR('',#912,10.);
#267=VECTOR('',#913,10.);
#268=VECTOR('',#916,10.);
#269=VECTOR('',#917,10.);
#270=VECTOR('',#920,10.);
#271=VECTOR('',#921,10.);
#272=VECTOR('',#924,10.);
#273=VECTOR('',#925,10.);
#274=VECTOR('',#926,10.);
#275=VECTOR('',#929,10.);
#276=VECTOR('',#930,10.);
#277=VECTOR('',#931,10.);
#278=VECTOR('',#934,10.);
#279=VECTOR('',#935,10.);
#280=VECTOR('',#936,10.);
#281=VECTOR('',#939,10.);
#282=VECTOR('',#942,10.);
#283=VECTOR('',#947,1.2645);
#284=VECTOR('',#956,1.2645);
#285=VECTOR('',#963,10.);
#286=VECTOR('',#964,10.);
#287=VECTOR('',#967,10.);
#288=VECTOR('',#970,10.);
#289=VERTEX_POINT('',#980);
#290=VERTEX_POINT('',#981);
#291=VERTEX_POINT('',#983);
#292=VERTEX_POINT('',#985);
#293=VERTEX_POINT('',#989);
#294=VERTEX_POINT('',#991);
#295=VERTEX_POINT('',#995);
#296=VERTEX_POINT('',#997);
#297=VERTEX_POINT('',#1005);
#298=VERTEX_POINT('',#1006);
#299=VERTEX_POINT('',#1008);
#300=VERTEX_POINT('',#1010);
#301=VERTEX_POINT('',#1014);
#302=VERTEX_POINT('',#1016);
#303=VERTEX_POINT('',#1020);
#304=VERTEX_POINT('',#1022);
#305=VERTEX_POINT('',#1030);
#306=VERTEX_POINT('',#1031);
#307=VERTEX_POINT('',#1033);
#308=VERTEX_POINT('',#1035);
#309=VERTEX_POINT('',#1039);
#310=VERTEX_POINT('',#1041);
#311=VERTEX_POINT('',#1045);
#312=VERTEX_POINT('',#1047);
#313=VERTEX_POINT('',#1055);
#314=VERTEX_POINT('',#1056);
#315=VERTEX_POINT('',#1058);
#316=VERTEX_POINT('',#1060);
#317=VERTEX_POINT('',#1064);
#318=VERTEX_POINT('',#1066);
#319=VERTEX_POINT('',#1070);
#320=VERTEX_POINT('',#1072);
#321=VERTEX_POINT('',#1080);
#322=VERTEX_POINT('',#1081);
#323=VERTEX_POINT('',#1083);
#324=VERTEX_POINT('',#1085);
#325=VERTEX_POINT('',#1089);
#326=VERTEX_POINT('',#1090);
#327=VERTEX_POINT('',#1092);
#328=VERTEX_POINT('',#1096);
#329=VERTEX_POINT('',#1098);
#330=VERTEX_POINT('',#1102);
#331=VERTEX_POINT('',#1103);
#332=VERTEX_POINT('',#1108);
#333=VERTEX_POINT('',#1110);
#334=VERTEX_POINT('',#1114);
#335=VERTEX_POINT('',#1115);
#336=VERTEX_POINT('',#1117);
#337=VERTEX_POINT('',#1127);
#338=VERTEX_POINT('',#1128);
#339=VERTEX_POINT('',#1133);
#340=VERTEX_POINT('',#1135);
#341=VERTEX_POINT('',#1139);
#342=VERTEX_POINT('',#1141);
#343=VERTEX_POINT('',#1149);
#344=VERTEX_POINT('',#1151);
#345=VERTEX_POINT('',#1156);
#346=VERTEX_POINT('',#1158);
#347=EDGE_CURVE('',#289,#290,#145,.T.);
#348=EDGE_CURVE('',#289,#291,#146,.T.);
#349=EDGE_CURVE('',#291,#292,#147,.T.);
#350=EDGE_CURVE('',#290,#292,#148,.T.);
#351=EDGE_CURVE('',#293,#289,#25,.T.);
#352=EDGE_CURVE('',#293,#294,#149,.T.);
#353=EDGE_CURVE('',#294,#291,#26,.T.);
#354=EDGE_CURVE('',#295,#293,#150,.T.);
#355=EDGE_CURVE('',#295,#296,#151,.T.);
#356=EDGE_CURVE('',#296,#294,#152,.T.);
#357=EDGE_CURVE('',#290,#295,#27,.T.);
#358=EDGE_CURVE('',#292,#296,#28,.T.);
#359=EDGE_CURVE('',#297,#298,#153,.T.);
#360=EDGE_CURVE('',#297,#299,#154,.T.);
#361=EDGE_CURVE('',#299,#300,#155,.T.);
#362=EDGE_CURVE('',#298,#300,#156,.T.);
#363=EDGE_CURVE('',#301,#297,#29,.T.);
#364=EDGE_CURVE('',#301,#302,#157,.T.);
#365=EDGE_CURVE('',#302,#299,#30,.T.);
#366=EDGE_CURVE('',#303,#301,#158,.T.);
#367=EDGE_CURVE('',#303,#304,#159,.T.);
#368=EDGE_CURVE('',#304,#302,#160,.T.);
#369=EDGE_CURVE('',#298,#303,#31,.T.);
#370=EDGE_CURVE('',#300,#304,#32,.T.);
#371=EDGE_CURVE('',#305,#306,#161,.T.);
#372=EDGE_CURVE('',#305,#307,#162,.T.);
#373=EDGE_CURVE('',#307,#308,#163,.T.);
#374=EDGE_CURVE('',#306,#308,#164,.T.);
#375=EDGE_CURVE('',#309,#305,#33,.T.);
#376=EDGE_CURVE('',#309,#310,#165,.T.);
#377=EDGE_CURVE('',#310,#307,#34,.T.);
#378=EDGE_CURVE('',#311,#309,#166,.T.);
#379=EDGE_CURVE('',#311,#312,#167,.T.);
#380=EDGE_CURVE('',#312,#310,#168,.T.);
#381=EDGE_CURVE('',#306,#311,#35,.T.);
#382=EDGE_CURVE('',#308,#312,#36,.T.);
#383=EDGE_CURVE('',#313,#314,#169,.T.);
#384=EDGE_CURVE('',#313,#315,#170,.T.);
#385=EDGE_CURVE('',#315,#316,#171,.T.);
#386=EDGE_CURVE('',#314,#316,#172,.T.);
#387=EDGE_CURVE('',#317,#313,#37,.T.);
#388=EDGE_CURVE('',#317,#318,#173,.T.);
#389=EDGE_CURVE('',#318,#315,#38,.T.);
#390=EDGE_CURVE('',#319,#317,#174,.T.);
#391=EDGE_CURVE('',#319,#320,#175,.T.);
#392=EDGE_CURVE('',#320,#318,#176,.T.);
#393=EDGE_CURVE('',#314,#319,#39,.T.);
#394=EDGE_CURVE('',#316,#320,#40,.T.);
#395=EDGE_CURVE('',#321,#322,#177,.T.);
#396=EDGE_CURVE('',#322,#323,#178,.T.);
#397=EDGE_CURVE('',#323,#324,#179,.T.);
#398=EDGE_CURVE('',#324,#321,#180,.T.);
#399=EDGE_CURVE('',#325,#326,#181,.T.);
#400=EDGE_CURVE('',#327,#325,#182,.T.);
#401=EDGE_CURVE('',#326,#327,#183,.T.);
#402=EDGE_CURVE('',#328,#327,#184,.T.);
#403=EDGE_CURVE('',#325,#329,#185,.T.);
#404=EDGE_CURVE('',#329,#328,#186,.T.);
#405=EDGE_CURVE('',#330,#331,#187,.T.);
#406=EDGE_CURVE('',#331,#326,#188,.T.);
#407=EDGE_CURVE('',#327,#330,#189,.T.);
#408=EDGE_CURVE('',#324,#332,#190,.T.);
#409=EDGE_CURVE('',#332,#333,#191,.T.);
#410=EDGE_CURVE('',#333,#321,#192,.T.);
#411=EDGE_CURVE('',#334,#335,#193,.T.);
#412=EDGE_CURVE('',#336,#334,#194,.T.);
#413=EDGE_CURVE('',#335,#336,#195,.T.);
#414=EDGE_CURVE('',#332,#336,#196,.T.);
#415=EDGE_CURVE('',#334,#333,#197,.T.);
#416=EDGE_CURVE('',#326,#335,#198,.T.);
#417=EDGE_CURVE('',#336,#325,#199,.T.);
#418=EDGE_CURVE('',#337,#338,#200,.T.);
#419=EDGE_CURVE('',#338,#334,#201,.T.);
#420=EDGE_CURVE('',#335,#337,#202,.T.);
#421=EDGE_CURVE('',#339,#328,#203,.T.);
#422=EDGE_CURVE('',#329,#340,#204,.T.);
#423=EDGE_CURVE('',#340,#339,#205,.T.);
#424=EDGE_CURVE('',#340,#341,#206,.T.);
#425=EDGE_CURVE('',#341,#342,#207,.T.);
#426=EDGE_CURVE('',#342,#339,#208,.T.);
#427=EDGE_CURVE('',#332,#329,#209,.T.);
#428=EDGE_CURVE('',#322,#338,#210,.T.);
#429=EDGE_CURVE('',#343,#343,#41,.T.);
#430=EDGE_CURVE('',#343,#344,#211,.T.);
#431=EDGE_CURVE('',#344,#344,#42,.T.);
#432=EDGE_CURVE('',#345,#345,#43,.T.);
#433=EDGE_CURVE('',#345,#346,#212,.T.);
#434=EDGE_CURVE('',#346,#346,#44,.T.);
#435=EDGE_CURVE('',#324,#340,#213,.T.);
#436=EDGE_CURVE('',#341,#323,#214,.T.);
#437=EDGE_CURVE('',#330,#342,#215,.T.);
#438=EDGE_CURVE('',#337,#331,#216,.T.);
#439=ORIENTED_EDGE('',*,*,#347,.F.);
#440=ORIENTED_EDGE('',*,*,#348,.T.);
#441=ORIENTED_EDGE('',*,*,#349,.T.);
#442=ORIENTED_EDGE('',*,*,#350,.F.);
#443=ORIENTED_EDGE('',*,*,#351,.F.);
#444=ORIENTED_EDGE('',*,*,#352,.T.);
#445=ORIENTED_EDGE('',*,*,#353,.T.);
#446=ORIENTED_EDGE('',*,*,#348,.F.);
#447=ORIENTED_EDGE('',*,*,#354,.F.);
#448=ORIENTED_EDGE('',*,*,#355,.T.);
#449=ORIENTED_EDGE('',*,*,#356,.T.);
#450=ORIENTED_EDGE('',*,*,#352,.F.);
#451=ORIENTED_EDGE('',*,*,#357,.F.);
#452=ORIENTED_EDGE('',*,*,#350,.T.);
#453=ORIENTED_EDGE('',*,*,#358,.T.);
#454=ORIENTED_EDGE('',*,*,#355,.F.);
#455=ORIENTED_EDGE('',*,*,#358,.F.);
#456=ORIENTED_EDGE('',*,*,#349,.F.);
#457=ORIENTED_EDGE('',*,*,#353,.F.);
#458=ORIENTED_EDGE('',*,*,#356,.F.);
#459=ORIENTED_EDGE('',*,*,#359,.F.);
#460=ORIENTED_EDGE('',*,*,#360,.T.);
#461=ORIENTED_EDGE('',*,*,#361,.T.);
#462=ORIENTED_EDGE('',*,*,#362,.F.);
#463=ORIENTED_EDGE('',*,*,#363,.F.);
#464=ORIENTED_EDGE('',*,*,#364,.T.);
#465=ORIENTED_EDGE('',*,*,#365,.T.);
#466=ORIENTED_EDGE('',*,*,#360,.F.);
#467=ORIENTED_EDGE('',*,*,#366,.F.);
#468=ORIENTED_EDGE('',*,*,#367,.T.);
#469=ORIENTED_EDGE('',*,*,#368,.T.);
#470=ORIENTED_EDGE('',*,*,#364,.F.);
#471=ORIENTED_EDGE('',*,*,#369,.F.);
#472=ORIENTED_EDGE('',*,*,#362,.T.);
#473=ORIENTED_EDGE('',*,*,#370,.T.);
#474=ORIENTED_EDGE('',*,*,#367,.F.);
#475=ORIENTED_EDGE('',*,*,#370,.F.);
#476=ORIENTED_EDGE('',*,*,#361,.F.);
#477=ORIENTED_EDGE('',*,*,#365,.F.);
#478=ORIENTED_EDGE('',*,*,#368,.F.);
#479=ORIENTED_EDGE('',*,*,#371,.F.);
#480=ORIENTED_EDGE('',*,*,#372,.T.);
#481=ORIENTED_EDGE('',*,*,#373,.T.);
#482=ORIENTED_EDGE('',*,*,#374,.F.);
#483=ORIENTED_EDGE('',*,*,#375,.F.);
#484=ORIENTED_EDGE('',*,*,#376,.T.);
#485=ORIENTED_EDGE('',*,*,#377,.T.);
#486=ORIENTED_EDGE('',*,*,#372,.F.);
#487=ORIENTED_EDGE('',*,*,#378,.F.);
#488=ORIENTED_EDGE('',*,*,#379,.T.);
#489=ORIENTED_EDGE('',*,*,#380,.T.);
#490=ORIENTED_EDGE('',*,*,#376,.F.);
#491=ORIENTED_EDGE('',*,*,#381,.F.);
#492=ORIENTED_EDGE('',*,*,#374,.T.);
#493=ORIENTED_EDGE('',*,*,#382,.T.);
#494=ORIENTED_EDGE('',*,*,#379,.F.);
#495=ORIENTED_EDGE('',*,*,#382,.F.);
#496=ORIENTED_EDGE('',*,*,#373,.F.);
#497=ORIENTED_EDGE('',*,*,#377,.F.);
#498=ORIENTED_EDGE('',*,*,#380,.F.);
#499=ORIENTED_EDGE('',*,*,#383,.F.);
#500=ORIENTED_EDGE('',*,*,#384,.T.);
#501=ORIENTED_EDGE('',*,*,#385,.T.);
#502=ORIENTED_EDGE('',*,*,#386,.F.);
#503=ORIENTED_EDGE('',*,*,#387,.F.);
#504=ORIENTED_EDGE('',*,*,#388,.T.);
#505=ORIENTED_EDGE('',*,*,#389,.T.);
#506=ORIENTED_EDGE('',*,*,#384,.F.);
#507=ORIENTED_EDGE('',*,*,#390,.F.);
#508=ORIENTED_EDGE('',*,*,#391,.T.);
#509=ORIENTED_EDGE('',*,*,#392,.T.);
#510=ORIENTED_EDGE('',*,*,#388,.F.);
#511=ORIENTED_EDGE('',*,*,#393,.F.);
#512=ORIENTED_EDGE('',*,*,#386,.T.);
#513=ORIENTED_EDGE('',*,*,#394,.T.);
#514=ORIENTED_EDGE('',*,*,#391,.F.);
#515=ORIENTED_EDGE('',*,*,#394,.F.);
#516=ORIENTED_EDGE('',*,*,#385,.F.);
#517=ORIENTED_EDGE('',*,*,#389,.F.);
#518=ORIENTED_EDGE('',*,*,#392,.F.);
#519=ORIENTED_EDGE('',*,*,#395,.T.);
#520=ORIENTED_EDGE('',*,*,#396,.T.);
#521=ORIENTED_EDGE('',*,*,#397,.T.);
#522=ORIENTED_EDGE('',*,*,#398,.T.);
#523=ORIENTED_EDGE('',*,*,#399,.F.);
#524=ORIENTED_EDGE('',*,*,#400,.F.);
#525=ORIENTED_EDGE('',*,*,#401,.F.);
#526=ORIENTED_EDGE('',*,*,#402,.T.);
#527=ORIENTED_EDGE('',*,*,#400,.T.);
#528=ORIENTED_EDGE('',*,*,#403,.T.);
#529=ORIENTED_EDGE('',*,*,#404,.T.);
#530=ORIENTED_EDGE('',*,*,#405,.T.);
#531=ORIENTED_EDGE('',*,*,#406,.T.);
#532=ORIENTED_EDGE('',*,*,#401,.T.);
#533=ORIENTED_EDGE('',*,*,#407,.T.);
#534=ORIENTED_EDGE('',*,*,#408,.T.);
#535=ORIENTED_EDGE('',*,*,#409,.T.);
#536=ORIENTED_EDGE('',*,*,#410,.T.);
#537=ORIENTED_EDGE('',*,*,#398,.F.);
#538=ORIENTED_EDGE('',*,*,#411,.F.);
#539=ORIENTED_EDGE('',*,*,#412,.F.);
#540=ORIENTED_EDGE('',*,*,#413,.F.);
#541=ORIENTED_EDGE('',*,*,#414,.T.);
#542=ORIENTED_EDGE('',*,*,#412,.T.);
#543=ORIENTED_EDGE('',*,*,#415,.T.);
#544=ORIENTED_EDGE('',*,*,#409,.F.);
#545=ORIENTED_EDGE('',*,*,#399,.T.);
#546=ORIENTED_EDGE('',*,*,#416,.T.);
#547=ORIENTED_EDGE('',*,*,#413,.T.);
#548=ORIENTED_EDGE('',*,*,#417,.T.);
#549=ORIENTED_EDGE('',*,*,#418,.T.);
#550=ORIENTED_EDGE('',*,*,#419,.T.);
#551=ORIENTED_EDGE('',*,*,#411,.T.);
#552=ORIENTED_EDGE('',*,*,#420,.T.);
#553=ORIENTED_EDGE('',*,*,#421,.T.);
#554=ORIENTED_EDGE('',*,*,#404,.F.);
#555=ORIENTED_EDGE('',*,*,#422,.T.);
#556=ORIENTED_EDGE('',*,*,#423,.T.);
#557=ORIENTED_EDGE('',*,*,#424,.T.);
#558=ORIENTED_EDGE('',*,*,#425,.T.);
#559=ORIENTED_EDGE('',*,*,#426,.T.);
#560=ORIENTED_EDGE('',*,*,#423,.F.);
#561=ORIENTED_EDGE('',*,*,#403,.F.);
#562=ORIENTED_EDGE('',*,*,#417,.F.);
#563=ORIENTED_EDGE('',*,*,#414,.F.);
#564=ORIENTED_EDGE('',*,*,#427,.T.);
#565=ORIENTED_EDGE('',*,*,#347,.T.);
#566=ORIENTED_EDGE('',*,*,#357,.T.);
#567=ORIENTED_EDGE('',*,*,#354,.T.);
#568=ORIENTED_EDGE('',*,*,#351,.T.);
#569=ORIENTED_EDGE('',*,*,#359,.T.);
#570=ORIENTED_EDGE('',*,*,#369,.T.);
#571=ORIENTED_EDGE('',*,*,#366,.T.);
#572=ORIENTED_EDGE('',*,*,#363,.T.);
#573=ORIENTED_EDGE('',*,*,#371,.T.);
#574=ORIENTED_EDGE('',*,*,#381,.T.);
#575=ORIENTED_EDGE('',*,*,#378,.T.);
#576=ORIENTED_EDGE('',*,*,#375,.T.);
#577=ORIENTED_EDGE('',*,*,#383,.T.);
#578=ORIENTED_EDGE('',*,*,#393,.T.);
#579=ORIENTED_EDGE('',*,*,#390,.T.);
#580=ORIENTED_EDGE('',*,*,#387,.T.);
#581=ORIENTED_EDGE('',*,*,#395,.F.);
#582=ORIENTED_EDGE('',*,*,#410,.F.);
#583=ORIENTED_EDGE('',*,*,#415,.F.);
#584=ORIENTED_EDGE('',*,*,#419,.F.);
#585=ORIENTED_EDGE('',*,*,#428,.F.);
#586=ORIENTED_EDGE('',*,*,#429,.F.);
#587=ORIENTED_EDGE('',*,*,#430,.T.);
#588=ORIENTED_EDGE('',*,*,#431,.T.);
#589=ORIENTED_EDGE('',*,*,#430,.F.);
#590=ORIENTED_EDGE('',*,*,#431,.F.);
#591=ORIENTED_EDGE('',*,*,#432,.F.);
#592=ORIENTED_EDGE('',*,*,#433,.T.);
#593=ORIENTED_EDGE('',*,*,#434,.T.);
#594=ORIENTED_EDGE('',*,*,#433,.F.);
#595=ORIENTED_EDGE('',*,*,#434,.F.);
#596=ORIENTED_EDGE('',*,*,#424,.F.);
#597=ORIENTED_EDGE('',*,*,#435,.F.);
#598=ORIENTED_EDGE('',*,*,#397,.F.);
#599=ORIENTED_EDGE('',*,*,#436,.F.);
#600=ORIENTED_EDGE('',*,*,#426,.F.);
#601=ORIENTED_EDGE('',*,*,#437,.F.);
#602=ORIENTED_EDGE('',*,*,#407,.F.);
#603=ORIENTED_EDGE('',*,*,#402,.F.);
#604=ORIENTED_EDGE('',*,*,#421,.F.);
#605=ORIENTED_EDGE('',*,*,#425,.F.);
#606=ORIENTED_EDGE('',*,*,#436,.T.);
#607=ORIENTED_EDGE('',*,*,#396,.F.);
#608=ORIENTED_EDGE('',*,*,#428,.T.);
#609=ORIENTED_EDGE('',*,*,#418,.F.);
#610=ORIENTED_EDGE('',*,*,#438,.T.);
#611=ORIENTED_EDGE('',*,*,#405,.F.);
#612=ORIENTED_EDGE('',*,*,#437,.T.);
#613=ORIENTED_EDGE('',*,*,#429,.T.);
#614=ORIENTED_EDGE('',*,*,#432,.T.);
#615=ORIENTED_EDGE('',*,*,#406,.F.);
#616=ORIENTED_EDGE('',*,*,#438,.F.);
#617=ORIENTED_EDGE('',*,*,#420,.F.);
#618=ORIENTED_EDGE('',*,*,#416,.F.);
#619=ORIENTED_EDGE('',*,*,#422,.F.);
#620=ORIENTED_EDGE('',*,*,#427,.F.);
#621=ORIENTED_EDGE('',*,*,#408,.F.);
#622=ORIENTED_EDGE('',*,*,#435,.T.);
#623=PLANE('',#712);
#624=PLANE('',#716);
#625=PLANE('',#720);
#626=PLANE('',#721);
#627=PLANE('',#725);
#628=PLANE('',#729);
#629=PLANE('',#730);
#630=PLANE('',#734);
#631=PLANE('',#738);
#632=PLANE('',#739);
#633=PLANE('',#743);
#634=PLANE('',#747);
#635=PLANE('',#748);
#636=PLANE('',#749);
#637=PLANE('',#750);
#638=PLANE('',#751);
#639=PLANE('',#752);
#640=PLANE('',#753);
#641=PLANE('',#754);
#642=PLANE('',#755);
#643=PLANE('',#756);
#644=PLANE('',#757);
#645=PLANE('',#758);
#646=PLANE('',#759);
#647=PLANE('',#760);
#648=PLANE('',#764);
#649=PLANE('',#768);
#650=PLANE('',#769);
#651=PLANE('',#770);
#652=PLANE('',#771);
#653=PLANE('',#772);
#654=PLANE('',#773);
#655=ADVANCED_FACE('',(#55),#623,.F.);
#656=ADVANCED_FACE('',(#56),#45,.F.);
#657=ADVANCED_FACE('',(#57),#624,.F.);
#658=ADVANCED_FACE('',(#58),#46,.F.);
#659=ADVANCED_FACE('',(#59),#625,.T.);
#660=ADVANCED_FACE('',(#60),#626,.F.);
#661=ADVANCED_FACE('',(#61),#47,.F.);
#662=ADVANCED_FACE('',(#62),#627,.F.);
#663=ADVANCED_FACE('',(#63),#48,.F.);
#664=ADVANCED_FACE('',(#64),#628,.T.);
#665=ADVANCED_FACE('',(#65),#629,.F.);
#666=ADVANCED_FACE('',(#66),#49,.F.);
#667=ADVANCED_FACE('',(#67),#630,.F.);
#668=ADVANCED_FACE('',(#68),#50,.F.);
#669=ADVANCED_FACE('',(#69),#631,.T.);
#670=ADVANCED_FACE('',(#70),#632,.F.);
#671=ADVANCED_FACE('',(#71),#51,.F.);
#672=ADVANCED_FACE('',(#72),#633,.F.);
#673=ADVANCED_FACE('',(#73),#52,.F.);
#674=ADVANCED_FACE('',(#74),#634,.T.);
#675=ADVANCED_FACE('',(#75),#635,.T.);
#676=ADVANCED_FACE('',(#76),#636,.T.);
#677=ADVANCED_FACE('',(#77),#637,.T.);
#678=ADVANCED_FACE('',(#78),#638,.T.);
#679=ADVANCED_FACE('',(#79),#639,.T.);
#680=ADVANCED_FACE('',(#80),#640,.T.);
#681=ADVANCED_FACE('',(#81),#641,.T.);
#682=ADVANCED_FACE('',(#82),#642,.T.);
#683=ADVANCED_FACE('',(#83),#643,.T.);
#684=ADVANCED_FACE('',(#84),#644,.T.);
#685=ADVANCED_FACE('',(#85),#645,.T.);
#686=ADVANCED_FACE('',(#86,#19,#20,#21,#22),#646,.T.);
#687=ADVANCED_FACE('',(#87),#647,.F.);
#688=ADVANCED_FACE('',(#88),#53,.F.);
#689=ADVANCED_FACE('',(#89),#648,.F.);
#690=ADVANCED_FACE('',(#90),#54,.F.);
#691=ADVANCED_FACE('',(#91),#649,.F.);
#692=ADVANCED_FACE('',(#92),#650,.F.);
#693=ADVANCED_FACE('',(#93),#651,.F.);
#694=ADVANCED_FACE('',(#94,#23,#24),#652,.F.);
#695=ADVANCED_FACE('',(#95),#653,.F.);
#696=ADVANCED_FACE('',(#96),#654,.F.);
#697=CLOSED_SHELL('',(#655,#656,#657,#658,#659,#660,#661,#662,#663,#664,
#665,#666,#667,#668,#669,#670,#671,#672,#673,#674,#675,#676,#677,#678,#679,
#680,#681,#682,#683,#684,#685,#686,#687,#688,#689,#690,#691,#692,#693,#694,
#695,#696));
#698=DERIVED_UNIT_ELEMENT(#700,1.);
#699=DERIVED_UNIT_ELEMENT(#1179,-3.);
#700=(
MASS_UNIT()
NAMED_UNIT(*)
SI_UNIT(.KILO.,.GRAM.)
);
#701=DERIVED_UNIT((#698,#699));
#702=MEASURE_REPRESENTATION_ITEM('density measure',
POSITIVE_RATIO_MEASURE(7850.),#701);
#703=PROPERTY_DEFINITION_REPRESENTATION(#708,#705);
#704=PROPERTY_DEFINITION_REPRESENTATION(#709,#706);
#705=REPRESENTATION('material name',(#707),#1176);
#706=REPRESENTATION('density',(#702),#1176);
#707=DESCRIPTIVE_REPRESENTATION_ITEM('Steel','Steel');
#708=PROPERTY_DEFINITION('material property','material name',#1191);
#709=PROPERTY_DEFINITION('material property','density of part',#1191);
#710=AXIS2_PLACEMENT_3D('',#977,#775,#776);
#711=AXIS2_PLACEMENT_3D('',#978,#777,#778);
#712=AXIS2_PLACEMENT_3D('',#979,#779,#780);
#713=AXIS2_PLACEMENT_3D('',#988,#785,#786);
#714=AXIS2_PLACEMENT_3D('',#990,#787,#788);
#715=AXIS2_PLACEMENT_3D('',#993,#790,#791);
#716=AXIS2_PLACEMENT_3D('',#994,#792,#793);
#717=AXIS2_PLACEMENT_3D('',#1000,#797,#798);
#718=AXIS2_PLACEMENT_3D('',#1001,#799,#800);
#719=AXIS2_PLACEMENT_3D('',#1002,#801,#802);
#720=AXIS2_PLACEMENT_3D('',#1003,#803,#804);
#721=AXIS2_PLACEMENT_3D('',#1004,#805,#806);
#722=AXIS2_PLACEMENT_3D('',#1013,#811,#812);
#723=AXIS2_PLACEMENT_3D('',#1015,#813,#814);
#724=AXIS2_PLACEMENT_3D('',#1018,#816,#817);
#725=AXIS2_PLACEMENT_3D('',#1019,#818,#819);
#726=AXIS2_PLACEMENT_3D('',#1025,#823,#824);
#727=AXIS2_PLACEMENT_3D('',#1026,#825,#826);
#728=AXIS2_PLACEMENT_3D('',#1027,#827,#828);
#729=AXIS2_PLACEMENT_3D('',#1028,#829,#830);
#730=AXIS2_PLACEMENT_3D('',#1029,#831,#832);
#731=AXIS2_PLACEMENT_3D('',#1038,#837,#838);
#732=AXIS2_PLACEMENT_3D('',#1040,#839,#840);
#733=AXIS2_PLACEMENT_3D('',#1043,#842,#843);
#734=AXIS2_PLACEMENT_3D('',#1044,#844,#845);
#735=AXIS2_PLACEMENT_3D('',#1050,#849,#850);
#736=AXIS2_PLACEMENT_3D('',#1051,#851,#852);
#737=AXIS2_PLACEMENT_3D('',#1052,#853,#854);
#738=AXIS2_PLACEMENT_3D('',#1053,#855,#856);
#739=AXIS2_PLACEMENT_3D('',#1054,#857,#858);
#740=AXIS2_PLACEMENT_3D('',#1063,#863,#864);
#741=AXIS2_PLACEMENT_3D('',#1065,#865,#866);
#742=AXIS2_PLACEMENT_3D('',#1068,#868,#869);
#743=AXIS2_PLACEMENT_3D('',#1069,#870,#871);
#744=AXIS2_PLACEMENT_3D('',#1075,#875,#876);
#745=AXIS2_PLACEMENT_3D('',#1076,#877,#878);
#746=AXIS2_PLACEMENT_3D('',#1077,#879,#880);
#747=AXIS2_PLACEMENT_3D('',#1078,#881,#882);
#748=AXIS2_PLACEMENT_3D('',#1079,#883,#884);
#749=AXIS2_PLACEMENT_3D('',#1088,#889,#890);
#750=AXIS2_PLACEMENT_3D('',#1095,#894,#895);
#751=AXIS2_PLACEMENT_3D('',#1101,#899,#900);
#752=AXIS2_PLACEMENT_3D('',#1107,#904,#905);
#753=AXIS2_PLACEMENT_3D('',#1113,#909,#910);
#754=AXIS2_PLACEMENT_3D('',#1120,#914,#915);
#755=AXIS2_PLACEMENT_3D('',#1123,#918,#919);
#756=AXIS2_PLACEMENT_3D('',#1126,#922,#923);
#757=AXIS2_PLACEMENT_3D('',#1132,#927,#928);
#758=AXIS2_PLACEMENT_3D('',#1138,#932,#933);
#759=AXIS2_PLACEMENT_3D('',#1144,#937,#938);
#760=AXIS2_PLACEMENT_3D('',#1146,#940,#941);
#761=AXIS2_PLACEMENT_3D('',#1148,#943,#944);
#762=AXIS2_PLACEMENT_3D('',#1150,#945,#946);
#763=AXIS2_PLACEMENT_3D('',#1153,#948,#949);
#764=AXIS2_PLACEMENT_3D('',#1154,#950,#951);
#765=AXIS2_PLACEMENT_3D('',#1155,#952,#953);
#766=AXIS2_PLACEMENT_3D('',#1157,#954,#955);
#767=AXIS2_PLACEMENT_3D('',#1160,#957,#958);
#768=AXIS2_PLACEMENT_3D('',#1161,#959,#960);
#769=AXIS2_PLACEMENT_3D('',#1162,#961,#962);
#770=AXIS2_PLACEMENT_3D('',#1165,#965,#966);
#771=AXIS2_PLACEMENT_3D('',#1167,#968,#969);
#772=AXIS2_PLACEMENT_3D('',#1169,#971,#972);
#773=AXIS2_PLACEMENT_3D('',#1170,#973,#974);
#774=AXIS2_PLACEMENT_3D('',#1171,#975,#976);
#775=DIRECTION('axis',(0.,0.,1.));
#776=DIRECTION('refdir',(1.,0.,0.));
#777=DIRECTION('axis',(0.,0.,1.));
#778=DIRECTION('refdir',(1.,0.,0.));
#779=DIRECTION('center_axis',(0.,0.989887721789101,-0.141853086858142));
#780=DIRECTION('ref_axis',(-1.,0.,0.));
#781=DIRECTION('',(-1.,0.,0.));
#782=DIRECTION('',(0.,0.141853086858142,0.989887721789101));
#783=DIRECTION('',(-1.,0.,0.));
#784=DIRECTION('',(0.,0.141853086858142,0.989887721789101));
#785=DIRECTION('center_axis',(0.,0.141853086858142,0.989887721789101));
#786=DIRECTION('ref_axis',(1.,0.,0.));
#787=DIRECTION('center_axis',(0.,0.141853086858159,0.989887721789099));
#788=DIRECTION('ref_axis',(1.,0.,0.));
#789=DIRECTION('',(0.,0.141853086858142,0.989887721789101));
#790=DIRECTION('center_axis',(0.,0.141853086858159,0.989887721789099));
#791=DIRECTION('ref_axis',(1.,0.,0.));
#792=DIRECTION('center_axis',(0.,-0.989887721789101,0.141853086858142));
#793=DIRECTION('ref_axis',(1.,0.,0.));
#794=DIRECTION('',(1.,0.,0.));
#795=DIRECTION('',(0.,0.141853086858142,0.989887721789101));
#796=DIRECTION('',(1.,0.,0.));
#797=DIRECTION('center_axis',(0.,0.141853086858142,0.989887721789101));
#798=DIRECTION('ref_axis',(-1.,-1.73076654437775E-8,2.48022651000303E-9));
#799=DIRECTION('center_axis',(0.,0.141853086858159,0.989887721789099));
#800=DIRECTION('ref_axis',(1.,0.,0.));
#801=DIRECTION('center_axis',(0.,0.141853086858159,0.989887721789099));
#802=DIRECTION('ref_axis',(1.,0.,0.));
#803=DIRECTION('center_axis',(0.,-0.141853086858159,-0.989887721789099));
#804=DIRECTION('ref_axis',(1.,0.,0.));
#805=DIRECTION('center_axis',(-2.64338815386942E-17,0.989887721789099,-0.141853086858158));
#806=DIRECTION('ref_axis',(-1.,-2.61665747743809E-17,3.74972769390666E-18));
#807=DIRECTION('',(-1.,-2.61665747743809E-17,3.74972769390668E-18));
#808=DIRECTION('',(0.,0.141853086858158,0.989887721789099));
#809=DIRECTION('',(-1.,-2.61665747743809E-17,3.74972769390666E-18));
#810=DIRECTION('',(0.,0.141853086858158,0.989887721789099));
#811=DIRECTION('center_axis',(0.,0.141853086858158,0.989887721789099));
#812=DIRECTION('ref_axis',(1.,0.,0.));
#813=DIRECTION('center_axis',(0.,0.141853086858159,0.989887721789099));
#814=DIRECTION('ref_axis',(1.,0.,0.));
#815=DIRECTION('',(0.,0.141853086858158,0.989887721789099));
#816=DIRECTION('center_axis',(0.,0.141853086858159,0.989887721789099));
#817=DIRECTION('ref_axis',(1.,0.,0.));
#818=DIRECTION('center_axis',(3.96508223080413E-17,-0.989887721789099,0.141853086858158));
#819=DIRECTION('ref_axis',(1.,3.92498621615714E-17,-5.62459154086E-18));
#820=DIRECTION('',(1.,3.92498621615714E-17,-5.62459154086002E-18));
#821=DIRECTION('',(0.,0.141853086858158,0.989887721789099));
#822=DIRECTION('',(1.,3.92498621615714E-17,-5.62459154086E-18));
#823=DIRECTION('center_axis',(0.,0.141853086858158,0.989887721789099));
#824=DIRECTION('ref_axis',(-1.,1.21226283000429E-16,-1.73719928770015E-17));
#825=DIRECTION('center_axis',(0.,0.141853086858159,0.989887721789099));
#826=DIRECTION('ref_axis',(1.,0.,0.));
#827=DIRECTION('center_axis',(0.,0.141853086858159,0.989887721789099));
#828=DIRECTION('ref_axis',(1.,0.,0.));
#829=DIRECTION('center_axis',(0.,-0.141853086858159,-0.989887721789099));
#830=DIRECTION('ref_axis',(1.,0.,0.));
#831=DIRECTION('center_axis',(0.,-0.989887721789101,0.141853086858142));
#832=DIRECTION('ref_axis',(1.,0.,0.));
#833=DIRECTION('',(1.,0.,0.));
#834=DIRECTION('',(0.,0.141853086858142,0.989887721789101));
#835=DIRECTION('',(1.,0.,0.));
#836=DIRECTION('',(0.,0.141853086858142,0.989887721789101));
#837=DIRECTION('center_axis',(0.,0.141853086858142,0.989887721789101));
#838=DIRECTION('ref_axis',(-0.999999999999999,3.51918373714485E-8,-5.04306766663106E-9));
#839=DIRECTION('center_axis',(0.,0.141853086858159,0.989887721789099));
#840=DIRECTION('ref_axis',(1.,0.,0.));
#841=DIRECTION('',(0.,0.141853086858142,0.989887721789101));
#842=DIRECTION('center_axis',(0.,0.141853086858159,0.989887721789099));
#843=DIRECTION('ref_axis',(1.,0.,0.));
#844=DIRECTION('center_axis',(0.,0.989887721789101,-0.141853086858142));
#845=DIRECTION('ref_axis',(-1.,0.,0.));
#846=DIRECTION('',(-1.,0.,0.));
#847=DIRECTION('',(0.,0.141853086858142,0.989887721789101));
#848=DIRECTION('',(-1.,0.,0.));
#849=DIRECTION('center_axis',(0.,0.141853086858142,0.989887721789101));
#850=DIRECTION('ref_axis',(1.,0.,0.));
#851=DIRECTION('center_axis',(0.,0.141853086858159,0.989887721789099));
#852=DIRECTION('ref_axis',(1.,0.,0.));
#853=DIRECTION('center_axis',(0.,0.141853086858159,0.989887721789099));
#854=DIRECTION('ref_axis',(1.,0.,0.));
#855=DIRECTION('center_axis',(0.,-0.141853086858159,-0.989887721789099));
#856=DIRECTION('ref_axis',(1.,0.,0.));
#857=DIRECTION('center_axis',(0.,0.989887721789099,-0.141853086858158));
#858=DIRECTION('ref_axis',(-1.,0.,0.));
#859=DIRECTION('',(-1.,0.,0.));
#860=DIRECTION('',(0.,0.141853086858158,0.989887721789099));
#861=DIRECTION('',(-1.,0.,0.));
#862=DIRECTION('',(0.,0.141853086858158,0.989887721789099));
#863=DIRECTION('center_axis',(0.,0.141853086858158,0.989887721789099));
#864=DIRECTION('ref_axis',(1.,0.,0.));
#865=DIRECTION('center_axis',(0.,0.141853086858159,0.989887721789099));
#866=DIRECTION('ref_axis',(1.,0.,0.));
#867=DIRECTION('',(0.,0.141853086858158,0.989887721789099));
#868=DIRECTION('center_axis',(0.,0.141853086858159,0.989887721789099));
#869=DIRECTION('ref_axis',(1.,0.,0.));
#870=DIRECTION('center_axis',(0.,-0.989887721789099,0.141853086858158));
#871=DIRECTION('ref_axis',(1.,0.,0.));
#872=DIRECTION('',(1.,0.,0.));
#873=DIRECTION('',(0.,0.141853086858158,0.989887721789099));
#874=DIRECTION('',(1.,0.,0.));
#875=DIRECTION('center_axis',(0.,0.141853086858158,0.989887721789099));
#876=DIRECTION('ref_axis',(-1.,-5.59355364772436E-15,8.01568535472213E-16));
#877=DIRECTION('center_axis',(0.,0.141853086858159,0.989887721789099));
#878=DIRECTION('ref_axis',(1.,0.,0.));
#879=DIRECTION('center_axis',(0.,0.141853086858159,0.989887721789099));
#880=DIRECTION('ref_axis',(1.,0.,0.));
#881=DIRECTION('center_axis',(0.,-0.141853086858159,-0.989887721789099));
#882=DIRECTION('ref_axis',(1.,0.,0.));
#883=DIRECTION('center_axis',(-0.707106781186553,0.699956320690368,-0.100305279649655));
#884=DIRECTION('ref_axis',(-0.140447065849749,0.,0.990088188846931));
#885=DIRECTION('',(0.,0.14185308685817,0.989887721789097));
#886=DIRECTION('',(0.703504298261399,0.710691003409876,0.));
#887=DIRECTION('',(0.,-0.14185308685817,-0.989887721789097));
#888=DIRECTION('',(-0.678803171342587,-0.632206761684805,0.373551689937628));
#889=DIRECTION('center_axis',(0.57683145192789,-0.653040697532113,-0.490717152169693));
#890=DIRECTION('ref_axis',(-0.647962984762479,0.,-0.761671825905159));
#891=DIRECTION('',(0.,-0.600733582292625,0.799449287388431));
#892=DIRECTION('',(-0.707105489445858,-0.0984129884886363,-0.700226185237505));
#893=DIRECTION('',(0.70710548944586,0.699957966828717,-0.100302898604872));
#894=DIRECTION('center_axis',(0.707106781186556,-0.100305279649648,-0.699956320690366));
#895=DIRECTION('ref_axis',(-0.703504298261397,0.,-0.710691003409878));
#896=DIRECTION('',(0.,-0.989887721789098,0.141853086858159));
#897=DIRECTION('',(0.,0.989887721789098,-0.141853086858159));
#898=DIRECTION('',(0.678392688180278,-0.182991211474981,0.711545906562925));
#899=DIRECTION('center_axis',(0.707106781186554,-0.700225266599665,0.0984102434476191));
#900=DIRECTION('ref_axis',(0.137844537491623,0.,-0.990453877514607));
#901=DIRECTION('',(-0.70364078753402,-0.710555868400581,0.));
#902=DIRECTION('',(0.,-0.139173100960062,-0.990268068741571));
#903=DIRECTION('',(0.,0.139173100960062,0.990268068741571));
#904=DIRECTION('center_axis',(-0.707106781186549,0.425547483890752,-0.564720584850816));
#905=DIRECTION('ref_axis',(-0.624044710962558,0.,0.781388634880018));
#906=DIRECTION('',(0.,-0.798635510047292,-0.601815023152049));
#907=DIRECTION('',(-0.678392688180282,-0.18299121147499,0.711545906562919));
#908=DIRECTION('',(0.,0.798635510047292,0.601815023152049));
#909=DIRECTION('center_axis',(-0.576831451927882,-0.653040697532118,-0.490717152169696));
#910=DIRECTION('ref_axis',(-0.647962984762486,0.,0.761671825905153));
#911=DIRECTION('',(0.707105489445868,-0.699957966828709,0.100302898604871));
#912=DIRECTION('',(-0.707105489445866,0.0984129884886385,0.700226185237497));
#913=DIRECTION('',(-7.83985884804555E-16,0.600733582292625,-0.799449287388431));
#914=DIRECTION('center_axis',(-0.707106781186548,-0.100305279649649,-0.699956320690374));
#915=DIRECTION('ref_axis',(-0.703504298261404,0.,0.710691003409871));
#916=DIRECTION('',(0.,-0.989887721789098,0.141853086858159));
#917=DIRECTION('',(0.,0.989887721789098,-0.141853086858159));
#918=DIRECTION('center_axis',(0.,-0.799449287388431,-0.600733582292625));
#919=DIRECTION('ref_axis',(-1.,0.,0.));
#920=DIRECTION('',(-1.,0.,0.));
#921=DIRECTION('',(1.,0.,0.));
#922=DIRECTION('center_axis',(-0.707106781186546,-0.700225266599673,0.0984102434476202));
#923=DIRECTION('ref_axis',(0.137844537491626,0.,0.990453877514607));
#924=DIRECTION('',(-0.703640787534028,0.710555868400573,0.));
#925=DIRECTION('',(0.,-0.139173100960062,-0.990268068741571));
#926=DIRECTION('',(0.,0.139173100960062,0.990268068741571));
#927=DIRECTION('center_axis',(0.70710678118654,0.425547483890757,-0.564720584850824));
#928=DIRECTION('ref_axis',(-0.624044710962568,0.,-0.78138863488001));
#929=DIRECTION('',(0.,-0.798635510047292,-0.601815023152049));
#930=DIRECTION('',(0.,0.798635510047292,0.601815023152049));
#931=DIRECTION('',(0.678803171342592,-0.632206761684812,0.373551689937607));
#932=DIRECTION('center_axis',(0.707106781186548,0.699956320690372,-0.100305279649656));
#933=DIRECTION('ref_axis',(-0.140447065849751,0.,-0.990088188846931));
#934=DIRECTION('',(0.,0.14185308685817,0.989887721789097));
#935=DIRECTION('',(0.703504298261404,-0.710691003409872,0.));
#936=DIRECTION('',(0.,-0.14185308685817,-0.989887721789097));
#937=DIRECTION('center_axis',(0.,-0.141853086858159,-0.989887721789099));
#938=DIRECTION('ref_axis',(0.,0.989887721789098,-0.141853086858159));
#939=DIRECTION('',(1.,0.,0.));
#940=DIRECTION('center_axis',(1.,0.,0.));
#941=DIRECTION('ref_axis',(0.,0.,-1.));
#942=DIRECTION('',(0.,-1.,0.));
#943=DIRECTION('center_axis',(0.,0.,-1.));
#944=DIRECTION('ref_axis',(1.,0.,0.));
#945=DIRECTION('center_axis',(0.,0.,-1.));
#946=DIRECTION('ref_axis',(1.,0.,0.));
#947=DIRECTION('',(0.,0.,-1.));
#948=DIRECTION('center_axis',(0.,0.,-1.));
#949=DIRECTION('ref_axis',(1.,0.,0.));
#950=DIRECTION('center_axis',(0.,0.,-1.));
#951=DIRECTION('ref_axis',(1.,0.,0.));
#952=DIRECTION('center_axis',(0.,0.,-1.));
#953=DIRECTION('ref_axis',(1.,0.,0.));
#954=DIRECTION('center_axis',(0.,0.,-1.));
#955=DIRECTION('ref_axis',(1.,0.,0.));
#956=DIRECTION('',(0.,0.,-1.));
#957=DIRECTION('center_axis',(0.,0.,-1.));
#958=DIRECTION('ref_axis',(1.,0.,0.));
#959=DIRECTION('center_axis',(0.,0.,-1.));
#960=DIRECTION('ref_axis',(1.,0.,0.));
#961=DIRECTION('center_axis',(0.,-0.989887721789097,0.14185308685817));
#962=DIRECTION('ref_axis',(0.,-0.14185308685817,-0.989887721789097));
#963=DIRECTION('',(1.,0.,0.));
#964=DIRECTION('',(-1.,0.,0.));
#965=DIRECTION('center_axis',(-1.,0.,0.));
#966=DIRECTION('ref_axis',(0.,0.,1.));
#967=DIRECTION('',(0.,1.,0.));
#968=DIRECTION('center_axis',(0.,0.,-1.));
#969=DIRECTION('ref_axis',(-1.,0.,0.));
#970=DIRECTION('',(1.,0.,0.));
#971=DIRECTION('center_axis',(0.,0.990268068741571,-0.139173100960062));
#972=DIRECTION('ref_axis',(0.,0.139173100960062,0.990268068741571));
#973=DIRECTION('center_axis',(0.,-0.601815023152049,0.798635510047292));
#974=DIRECTION('ref_axis',(0.,-0.798635510047292,-0.601815023152049));
#975=DIRECTION('',(0.,0.,1.));
#976=DIRECTION('',(1.,0.,0.));
#977=CARTESIAN_POINT('',(0.,0.,0.));
#978=CARTESIAN_POINT('',(0.,0.,0.));
#979=CARTESIAN_POINT('Origin',(50.094425,86.7912569595522,-27.8005022415204));
#980=CARTESIAN_POINT('',(50.094425,86.7912569595522,-27.8005022415204));
#981=CARTESIAN_POINT('',(14.0944248950931,86.7912569595522,-27.8005022415204));
#982=CARTESIAN_POINT('',(28.094425,86.7912569595522,-27.8005022415204));
#983=CARTESIAN_POINT('',(50.094425,86.8621835029813,-27.3055583806258));
#984=CARTESIAN_POINT('',(50.094425,86.7912569595522,-27.8005022415204));
#985=CARTESIAN_POINT('',(14.0944248950931,86.8621835029813,-27.3055583806258));
#986=CARTESIAN_POINT('',(53.094425,86.8621835029813,-27.3055583806258));
#987=CARTESIAN_POINT('',(14.0944248950931,86.7912569595522,-27.8005022415204));
#988=CARTESIAN_POINT('Origin',(50.094425,83.8215937941849,-27.3749429809459));
#989=CARTESIAN_POINT('',(50.094425,80.8519306288176,-26.9493837203714));
#990=CARTESIAN_POINT('Origin',(50.094425,83.8215937941851,-27.3749429809444));
#991=CARTESIAN_POINT('',(50.094425,80.9228571722467,-26.4544398594769));
#992=CARTESIAN_POINT('',(50.094425,80.8519306288176,-26.9493837203714));
#993=CARTESIAN_POINT('Origin',(50.094425,83.892520337614,-26.8799991200514));
#994=CARTESIAN_POINT('Origin',(14.094425,80.8519306288176,-26.9493837203714));
#995=CARTESIAN_POINT('',(14.094425,80.8519306288176,-26.9493837203714));
#996=CARTESIAN_POINT('',(10.094425,80.8519306288176,-26.9493837203715));
#997=CARTESIAN_POINT('',(14.094425,80.9228571722467,-26.4544398594769));
#998=CARTESIAN_POINT('',(14.094425,80.8519306288176,-26.9493837203714));
#999=CARTESIAN_POINT('',(11.094425,80.9228571722467,-26.4544398594769));
#1000=CARTESIAN_POINT('Origin',(14.094425,83.8215937941849,-27.3749429809459));
#1001=CARTESIAN_POINT('Origin',(14.094425,83.8215937941851,-27.3749429809444));
#1002=CARTESIAN_POINT('Origin',(14.094425,83.892520337614,-26.8799991200514));
#1003=CARTESIAN_POINT('Origin',(32.094425,83.892520337614,-26.8799991200513));
#1004=CARTESIAN_POINT('Origin',(50.094425,5.66720715980824,-16.1752475492711));
#1005=CARTESIAN_POINT('',(50.094425,5.66720715980824,-16.1752475492711));
#1006=CARTESIAN_POINT('',(14.094425,5.66720715980824,-16.1752475492711));
#1007=CARTESIAN_POINT('',(28.094425,5.66720715980824,-16.1752475492711));
#1008=CARTESIAN_POINT('',(50.094425,5.73813370323732,-15.6803036883765));
#1009=CARTESIAN_POINT('',(50.094425,5.66720715980824,-16.1752475492711));
#1010=CARTESIAN_POINT('',(14.094425,5.73813370323732,-15.6803036883765));
#1011=CARTESIAN_POINT('',(53.094425,5.73813370323732,-15.6803036883765));
#1012=CARTESIAN_POINT('',(14.094425,5.66720715980824,-16.1752475492711));
#1013=CARTESIAN_POINT('Origin',(50.094425,2.69754399444095,-15.7496882886966));
#1014=CARTESIAN_POINT('',(50.094425,-0.272119170926349,-15.3241290281221));
#1015=CARTESIAN_POINT('Origin',(50.094425,2.69754399444095,-15.7496882886966));
#1016=CARTESIAN_POINT('',(50.094425,-0.20119262749727,-14.8291851672276));
#1017=CARTESIAN_POINT('',(50.094425,-0.272119170926349,-15.3241290281221));
#1018=CARTESIAN_POINT('Origin',(50.094425,2.76847053787002,-15.2547444278021));
#1019=CARTESIAN_POINT('Origin',(14.094425,-0.272119170926351,-15.3241290281221));
#1020=CARTESIAN_POINT('',(14.094425,-0.272119170926351,-15.3241290281221));
#1021=CARTESIAN_POINT('',(10.094425,-0.272119170926351,-15.3241290281221));
#1022=CARTESIAN_POINT('',(14.094425,-0.201192627497272,-14.8291851672276));
#1023=CARTESIAN_POINT('',(14.094425,-0.272119170926351,-15.3241290281221));
#1024=CARTESIAN_POINT('',(11.094425,-0.201192627497272,-14.8291851672276));
#1025=CARTESIAN_POINT('Origin',(14.094425,2.69754399444095,-15.7496882886966));
#1026=CARTESIAN_POINT('Origin',(14.094425,2.69754399444095,-15.7496882886966));
#1027=CARTESIAN_POINT('Origin',(14.094425,2.76847053787002,-15.2547444278021));
#1028=CARTESIAN_POINT('Origin',(32.094425,2.76847053787003,-15.2547444278021));
#1029=CARTESIAN_POINT('Origin',(197.7445,80.8519306288176,-26.9493837203714));
#1030=CARTESIAN_POINT('',(197.7445,80.8519306288176,-26.9493837203714));
#1031=CARTESIAN_POINT('',(233.7445,80.8519306288176,-26.9493837203714));
#1032=CARTESIAN_POINT('',(101.9194625,80.8519306288176,-26.9493837203715));
#1033=CARTESIAN_POINT('',(197.7445,80.9228571722467,-26.4544398594769));
#1034=CARTESIAN_POINT('',(197.7445,80.8519306288176,-26.9493837203714));
#1035=CARTESIAN_POINT('',(233.7445,80.9228571722467,-26.4544398594769));
#1036=CARTESIAN_POINT('',(194.7445,80.9228571722467,-26.4544398594769));
#1037=CARTESIAN_POINT('',(233.7445,80.8519306288176,-26.9493837203714));
#1038=CARTESIAN_POINT('Origin',(197.7445,83.8215937941849,-27.3749429809459));
#1039=CARTESIAN_POINT('',(197.744500213308,86.7912569595522,-27.8005022415204));
#1040=CARTESIAN_POINT('Origin',(197.7445,83.8215937941851,-27.3749429809444));
#1041=CARTESIAN_POINT('',(197.744500213308,86.8621835029813,-27.3055583806258));
#1042=CARTESIAN_POINT('',(197.744500213308,86.7912569595522,-27.8005022415204));
#1043=CARTESIAN_POINT('Origin',(197.7445,83.892520337614,-26.8799991200514));
#1044=CARTESIAN_POINT('Origin',(233.744500213308,86.7912569595522,-27.8005022415204));
#1045=CARTESIAN_POINT('',(233.744500213308,86.7912569595522,-27.8005022415204));
#1046=CARTESIAN_POINT('',(119.919462606654,86.7912569595522,-27.8005022415204));
#1047=CARTESIAN_POINT('',(233.744500213308,86.8621835029813,-27.3055583806258));
#1048=CARTESIAN_POINT('',(233.744500213308,86.7912569595522,-27.8005022415204));
#1049=CARTESIAN_POINT('',(236.7445,86.8621835029813,-27.3055583806258));
#1050=CARTESIAN_POINT('Origin',(233.7445,83.8215937941849,-27.3749429809459));
#1051=CARTESIAN_POINT('Origin',(233.7445,83.8215937941851,-27.3749429809444));
#1052=CARTESIAN_POINT('Origin',(233.7445,83.892520337614,-26.8799991200514));
#1053=CARTESIAN_POINT('Origin',(215.7445,83.892520337614,-26.8799991200514));
#1054=CARTESIAN_POINT('Origin',(233.744499885957,5.66720715980823,-16.1752475492711));
#1055=CARTESIAN_POINT('',(233.744499885957,5.66720715980824,-16.1752475492711));
#1056=CARTESIAN_POINT('',(197.744499885957,5.66720715980824,-16.1752475492711));
#1057=CARTESIAN_POINT('',(119.919462442978,5.66720715980823,-16.1752475492711));
#1058=CARTESIAN_POINT('',(233.744499885957,5.73813370323732,-15.6803036883765));
#1059=CARTESIAN_POINT('',(233.744499885957,5.66720715980824,-16.1752475492711));
#1060=CARTESIAN_POINT('',(197.744499885957,5.73813370323732,-15.6803036883765));
#1061=CARTESIAN_POINT('',(236.7445,5.73813370323731,-15.6803036883765));
#1062=CARTESIAN_POINT('',(197.744499885957,5.66720715980824,-16.1752475492711));
#1063=CARTESIAN_POINT('Origin',(233.7445,2.69754399444094,-15.7496882886966));
#1064=CARTESIAN_POINT('',(233.744499885957,-0.272119170926363,-15.3241290281221));
#1065=CARTESIAN_POINT('Origin',(233.7445,2.69754399444094,-15.7496882886966));
#1066=CARTESIAN_POINT('',(233.744499885957,-0.201192627497284,-14.8291851672276));
#1067=CARTESIAN_POINT('',(233.744499885957,-0.272119170926363,-15.3241290281221));
#1068=CARTESIAN_POINT('Origin',(233.7445,2.76847053787002,-15.2547444278021));
#1069=CARTESIAN_POINT('Origin',(197.744499885957,-0.272119170926359,-15.3241290281221));
#1070=CARTESIAN_POINT('',(197.744499885957,-0.272119170926359,-15.3241290281221));
#1071=CARTESIAN_POINT('',(101.919462442979,-0.272119170926359,-15.3241290281221));
#1072=CARTESIAN_POINT('',(197.744499885957,-0.20119262749728,-14.8291851672276));
#1073=CARTESIAN_POINT('',(197.744499885957,-0.272119170926359,-15.3241290281221));
#1074=CARTESIAN_POINT('',(194.7445,-0.20119262749728,-14.8291851672276));
#1075=CARTESIAN_POINT('Origin',(197.7445,2.69754399444094,-15.7496882886966));
#1076=CARTESIAN_POINT('Origin',(197.7445,2.69754399444094,-15.7496882886966));
#1077=CARTESIAN_POINT('Origin',(197.7445,2.76847053787002,-15.2547444278021));
#1078=CARTESIAN_POINT('Origin',(215.7445,2.76847053787002,-15.2547444278021));
#1079=CARTESIAN_POINT('Origin',(6.59442499999999,105.963855906484,-19.1951542909225));
#1080=CARTESIAN_POINT('',(6.09442499999999,105.966820841752,-15.6496907119647));
#1081=CARTESIAN_POINT('',(6.09442499999999,106.604471303681,-11.2));
#1082=CARTESIAN_POINT('',(6.09442499999999,105.468912045589,-19.1242277474934));
#1083=CARTESIAN_POINT('',(7.094425,107.614686884689,-11.2));
#1084=CARTESIAN_POINT('',(22.4759038988545,123.15329652726,-11.2));
#1085=CARTESIAN_POINT('',(7.09442499999999,106.898175891898,-16.2));
#1086=CARTESIAN_POINT('',(7.094425,106.458799767378,-19.2660808343515));
#1087=CARTESIAN_POINT('',(7.09442499999999,106.898175891898,-16.2));
#1088=CARTESIAN_POINT('Origin',(241.7445,-4.09249282079987,-13.7664455037733));
#1089=CARTESIAN_POINT('',(240.7445,-4.23167005808275,-14.7567166806895));
#1090=CARTESIAN_POINT('',(240.7445,-5.08238467891178,-13.6245955250898));
#1091=CARTESIAN_POINT('',(240.7445,-4.23167005808275,-14.7567166806895));
#1092=CARTESIAN_POINT('',(241.7445,-4.09249282079986,-13.7664455037733));
#1093=CARTESIAN_POINT('',(241.7445,-4.09249282079987,-13.7664455037733));
#1094=CARTESIAN_POINT('',(240.7445,-5.08238467891178,-13.6245955250898));
#1095=CARTESIAN_POINT('Origin',(241.2445,20.9389597544641,-17.8586154814183));
#1096=CARTESIAN_POINT('',(241.7445,90.481065535709,-27.3190443417345));
#1097=CARTESIAN_POINT('',(241.7445,21.0098862978932,-17.3636716205238));
#1098=CARTESIAN_POINT('',(240.7445,90.7508078467086,-28.3679145889531));
#1099=CARTESIAN_POINT('',(240.7445,20.868033211035,-18.3535593423129));
#1100=CARTESIAN_POINT('',(240.7445,90.7508078467086,-28.3679145889531));
#1101=CARTESIAN_POINT('Origin',(241.2445,-4.41698312113069,-12.4826656947907));
#1102=CARTESIAN_POINT('',(241.7445,-3.73180242748138,-11.2));
#1103=CARTESIAN_POINT('',(240.7445,-4.74162999999999,-11.2));
#1104=CARTESIAN_POINT('',(227.124949207364,-18.4950279157215,-11.2));
#1105=CARTESIAN_POINT('',(240.7445,-4.91211715550147,-12.4130791443107));
#1106=CARTESIAN_POINT('',(241.7445,-3.9218490867599,-12.5522522452707));
#1107=CARTESIAN_POINT('Origin',(6.59442499999999,90.258000530998,-28.1132037085488));
#1108=CARTESIAN_POINT('',(7.09442499999999,90.7508078467086,-28.3679145889531));
#1109=CARTESIAN_POINT('',(7.09442499999999,90.558908042574,-28.5125214635725));
#1110=CARTESIAN_POINT('',(6.09442499999999,90.481065535709,-27.3190443417345));
#1111=CARTESIAN_POINT('',(7.09442499999999,90.7508078467086,-28.3679145889531));
#1112=CARTESIAN_POINT('',(6.09442499999999,89.957093019422,-27.7138859535252));
#1113=CARTESIAN_POINT('Origin',(7.09442499999999,-4.23167005808276,-14.7567166806895));
#1114=CARTESIAN_POINT('',(6.09442499999999,-4.09249282079987,-13.7664455037733));
#1115=CARTESIAN_POINT('',(7.094425,-5.08238467891178,-13.6245955250898));
#1116=CARTESIAN_POINT('',(6.09442499999999,-4.09249282079986,-13.7664455037733));
#1117=CARTESIAN_POINT('',(7.09442499999999,-4.23167005808275,-14.7567166806895));
#1118=CARTESIAN_POINT('',(7.09442499999999,-4.23167005808276,-14.7567166806895));
#1119=CARTESIAN_POINT('',(7.094425,-5.08238467891178,-13.6245955250898));
#1120=CARTESIAN_POINT('Origin',(6.59442499999999,20.9389597544641,-17.8586154814183));
#1121=CARTESIAN_POINT('',(7.09442499999999,20.868033211035,-18.3535593423129));
#1122=CARTESIAN_POINT('',(6.09442499999999,21.0098862978932,-17.3636716205238));
#1123=CARTESIAN_POINT('Origin',(6.09442499999999,-4.65702736849727,-14.1906561028896));
#1124=CARTESIAN_POINT('',(6.09442499999999,-5.08238467891178,-13.6245955250898));
#1125=CARTESIAN_POINT('',(6.09442499999999,-4.23167005808275,-14.7567166806895));
#1126=CARTESIAN_POINT('Origin',(6.59442499999999,-4.41698312113069,-12.4826656947907));
#1127=CARTESIAN_POINT('',(7.094425,-4.74162999999999,-11.2));
#1128=CARTESIAN_POINT('',(6.09442499999999,-3.73180242748138,-11.2));
#1129=CARTESIAN_POINT('',(20.7139757926362,-18.4950279157218,-11.2));
#1130=CARTESIAN_POINT('',(6.09442499999999,-3.9218490867599,-12.5522522452707));
#1131=CARTESIAN_POINT('',(7.094425,-4.91211715550147,-12.4130791443107));
#1132=CARTESIAN_POINT('Origin',(241.2445,90.258000530998,-28.1132037085488));
#1133=CARTESIAN_POINT('',(241.7445,105.966820841752,-15.6496907119647));
#1134=CARTESIAN_POINT('',(241.7445,89.957093019422,-27.7138859535252));
#1135=CARTESIAN_POINT('',(240.7445,106.898175891898,-16.2));
#1136=CARTESIAN_POINT('',(240.7445,90.558908042574,-28.5125214635724));
#1137=CARTESIAN_POINT('',(240.7445,106.898175891898,-16.2));
#1138=CARTESIAN_POINT('Origin',(241.2445,105.963855906484,-19.1951542909225));
#1139=CARTESIAN_POINT('',(240.7445,107.614686884689,-11.2));
#1140=CARTESIAN_POINT('',(240.7445,106.458799767378,-19.2660808343515));
#1141=CARTESIAN_POINT('',(241.7445,106.604471303681,-11.2));
#1142=CARTESIAN_POINT('',(225.363021101145,123.15329652726,-11.2));
#1143=CARTESIAN_POINT('',(241.7445,105.468912045589,-19.1242277474934));
#1144=CARTESIAN_POINT('Origin',(6.09442499999999,-5.22155777987185,-14.6148635938313));
#1145=CARTESIAN_POINT('',(6.09442499999999,90.7508078467086,-28.3679145889531));
#1146=CARTESIAN_POINT('Origin',(6.09442499999999,47.395885,-19.0339572944765));
#1147=CARTESIAN_POINT('',(6.09442499999999,113.5334,-11.2));
#1148=CARTESIAN_POINT('Origin',(175.7445,64.6334000000001,-14.2));
#1149=CARTESIAN_POINT('',(174.48,64.6334000000001,-11.2));
#1150=CARTESIAN_POINT('Origin',(175.7445,64.6334000000001,-11.2));
#1151=CARTESIAN_POINT('',(174.48,64.6334000000001,-17.2));
#1152=CARTESIAN_POINT('',(174.48,64.6334000000001,-14.2));
#1153=CARTESIAN_POINT('Origin',(175.7445,64.6334000000001,-17.2));
#1154=CARTESIAN_POINT('Origin',(175.7445,64.6334000000001,-17.2));
#1155=CARTESIAN_POINT('Origin',(72.094425,64.6334000000001,-14.2));
#1156=CARTESIAN_POINT('',(70.829925,64.6334000000001,-11.2));
#1157=CARTESIAN_POINT('Origin',(72.094425,64.6334000000001,-11.2));
#1158=CARTESIAN_POINT('',(70.829925,64.6334000000001,-17.2));
#1159=CARTESIAN_POINT('',(70.829925,64.6334000000001,-14.2));
#1160=CARTESIAN_POINT('Origin',(72.094425,64.6334000000001,-17.2));
#1161=CARTESIAN_POINT('Origin',(72.094425,64.6334000000001,-17.2));
#1162=CARTESIAN_POINT('Origin',(6.09442499999999,107.614686884689,-11.2));
#1163=CARTESIAN_POINT('',(-0.405575000000006,106.898175891898,-16.2));
#1164=CARTESIAN_POINT('',(65.00694375,107.614686884689,-11.2));
#1165=CARTESIAN_POINT('Origin',(241.7445,47.395885,-19.0339572944765));
#1166=CARTESIAN_POINT('',(241.7445,113.5334,-11.2));
#1167=CARTESIAN_POINT('Origin',(123.9194625,55.645885,-11.2));
#1168=CARTESIAN_POINT('',(65.00694375,-4.74162999999999,-11.2));
#1169=CARTESIAN_POINT('Origin',(6.09442499999999,-5.01279812843175,-13.129461490719));
#1170=CARTESIAN_POINT('Origin',(-6.90557500000001,113.5334,-11.2));
#1171=CARTESIAN_POINT('',(0.,0.,0.));
#1172=UNCERTAINTY_MEASURE_WITH_UNIT(LENGTH_MEASURE(0.01),#1178,
'DISTANCE_ACCURACY_VALUE',
'Maximum model space distance between geometric entities at asserted c
onnectivities');
#1173=UNCERTAINTY_MEASURE_WITH_UNIT(LENGTH_MEASURE(0.01),#1178,
'DISTANCE_ACCURACY_VALUE',
'Maximum model space distance between geometric entities at asserted c
onnectivities');
#1174=UNCERTAINTY_MEASURE_WITH_UNIT(LENGTH_MEASURE(0.01),#1178,
'DISTANCE_ACCURACY_VALUE',
'Maximum model space distance between geometric entities at asserted c
onnectivities');
#1175=(
GEOMETRIC_REPRESENTATION_CONTEXT(3)
GLOBAL_UNCERTAINTY_ASSIGNED_CONTEXT((#1172))
GLOBAL_UNIT_ASSIGNED_CONTEXT((#1178,#1180,#1181))
REPRESENTATION_CONTEXT('','3D')
);
#1176=(
GEOMETRIC_REPRESENTATION_CONTEXT(3)
GLOBAL_UNCERTAINTY_ASSIGNED_CONTEXT((#1173))
GLOBAL_UNIT_ASSIGNED_CONTEXT((#1178,#1180,#1181))
REPRESENTATION_CONTEXT('','3D')
);
#1177=(
GEOMETRIC_REPRESENTATION_CONTEXT(3)
GLOBAL_UNCERTAINTY_ASSIGNED_CONTEXT((#1174))
GLOBAL_UNIT_ASSIGNED_CONTEXT((#1178,#1180,#1181))
REPRESENTATION_CONTEXT('','3D')
);
#1178=(
LENGTH_UNIT()
NAMED_UNIT(*)
SI_UNIT(.MILLI.,.METRE.)
);
#1179=(
LENGTH_UNIT()
NAMED_UNIT(*)
SI_UNIT($,.METRE.)
);
#1180=(
NAMED_UNIT(*)
PLANE_ANGLE_UNIT()
SI_UNIT($,.RADIAN.)
);
#1181=(
NAMED_UNIT(*)
SI_UNIT($,.STERADIAN.)
SOLID_ANGLE_UNIT()
);
#1182=SHAPE_DEFINITION_REPRESENTATION(#1184,#1187);
#1183=SHAPE_DEFINITION_REPRESENTATION(#1185,#1188);
#1184=PRODUCT_DEFINITION_SHAPE('',$,#1190);
#1185=PRODUCT_DEFINITION_SHAPE('',$,#1191);
#1186=PRODUCT_DEFINITION_SHAPE($,$,#14);
#1187=SHAPE_REPRESENTATION('',(#710,#774),#1175);
#1188=SHAPE_REPRESENTATION('',(#711),#1176);
#1189=PRODUCT_DEFINITION_CONTEXT('part definition',#1197,'design');
#1190=PRODUCT_DEFINITION('shrimple_case_UDB_rev',
'shrimple_case_UDB_rev v21',#1192,#1189);
#1191=PRODUCT_DEFINITION('weight','weight',#1193,#1189);
#1192=PRODUCT_DEFINITION_FORMATION('',$,#1199);
#1193=PRODUCT_DEFINITION_FORMATION('',$,#1200);
#1194=PRODUCT_RELATED_PRODUCT_CATEGORY('shrimple_case_UDB_rev v21',
'shrimple_case_UDB_rev v21',(#1199));
#1195=PRODUCT_RELATED_PRODUCT_CATEGORY('weight','weight',(#1200));
#1196=APPLICATION_PROTOCOL_DEFINITION('international standard',
'ap242_managed_model_based_3d_engineering',2011,#1197);
#1197=APPLICATION_CONTEXT('Managed model based 3d engineering');
#1198=PRODUCT_CONTEXT('part definition',#1197,'mechanical');
#1199=PRODUCT('shrimple_case_UDB_rev','shrimple_case_UDB_rev v21',$,(#1198));
#1200=PRODUCT('weight','weight',$,(#1198));
#1201=PRESENTATION_STYLE_ASSIGNMENT((#1203));
#1202=PRESENTATION_STYLE_ASSIGNMENT((#1204));
#1203=SURFACE_STYLE_USAGE(.BOTH.,#1205);
#1204=SURFACE_STYLE_USAGE(.BOTH.,#1206);
#1205=SURFACE_SIDE_STYLE('',(#1207));
#1206=SURFACE_SIDE_STYLE('',(#1208));
#1207=SURFACE_STYLE_FILL_AREA(#1209);
#1208=SURFACE_STYLE_FILL_AREA(#1210);
#1209=FILL_AREA_STYLE('Steel - Satin',(#1211));
#1210=FILL_AREA_STYLE('Aluminum - Satin',(#1212));
#1211=FILL_AREA_STYLE_COLOUR('Steel - Satin',#1213);
#1212=FILL_AREA_STYLE_COLOUR('Aluminum - Satin',#1214);
#1213=COLOUR_RGB('Steel - Satin',0.627450980392157,0.627450980392157,0.627450980392157);
#1214=COLOUR_RGB('Aluminum - Satin',0.96078431372549,0.96078431372549,0.964705882352941);
ENDSEC;
END-ISO-10303-21;
