M48
; DRILL file {KiCad 8.0.4} date 2025-02-13T21:41:33-0500
; FORMAT={-:-/ absolute / inch / decimal}
; #@! TF.CreationDate,2025-02-13T21:41:33-05:00
; #@! TF.GenerationSoftware,Kicad,Pcbnew,8.0.4
; #@! TF.FileFunction,Plated,1,2,PTH
FMAT,2
INCH
; #@! TA.AperFunction,Plated,PTH,ViaDrill
T1C0.0138
; #@! TA.AperFunction,Plated,PTH,ComponentDrill
T2C0.0300
; #@! TA.AperFunction,Plated,PTH,ComponentDrill
T3C0.0600
; #@! TA.AperFunction,Plated,PTH,ComponentDrill
T4C0.0866
%
G90
G05
T1
X1.2992Y-1.874
X1.4016Y-1.874
X1.9213Y-1.5512
X1.9213Y-1.6614
X1.9213Y-2.4882
X1.9213Y-2.5984
X2.063Y-4.7402
X2.063Y-4.8425
X2.1339Y-3.2362
X2.1339Y-3.3465
X2.2283Y-1.874
X2.2283Y-3.9843
X2.2283Y-4.0945
X2.3465Y-1.874
X2.9843Y-1.874
X3.0945Y-1.874
X3.7323Y-1.874
X3.8425Y-1.874
X4.4803Y-1.874
X4.5906Y-1.874
X5.2283Y-1.874
X5.3465Y-1.874
X5.685Y-1.874
X5.7402Y-1.6772
X5.7953Y-1.874
X5.8056Y-2.5984
X5.9697Y-1.3871
X6.4469Y-1.9094
X6.4469Y-2.0571
X6.4567Y-1.1811
X6.4567Y-1.6063
X7.0655Y-1.4227
X7.126Y-1.7244
X7.2146Y-1.8957
X7.2146Y-2.0669
X7.9823Y-1.1713
X7.9823Y-1.6319
X7.9823Y-1.9055
X7.9823Y-2.0768
X8.7106Y-1.9055
X8.7106Y-2.0866
X9.2244Y-1.9055
X9.2244Y-2.122
X9.4488Y-1.9016
X9.5866Y-1.9016
X9.7205Y-1.9016
X9.8976Y-1.9016
X10.2067Y-2.2835
X10.2067Y-2.3937
X10.3622Y-1.9016
X10.7087Y-1.8858
X10.811Y-1.8858
T2
X9.5606Y-1.1815
X9.5606Y-1.7795
X9.6606Y-1.1815
X9.6606Y-1.7815
X9.7606Y-1.1815
X9.7606Y-1.7815
X9.8606Y-1.1815
X9.8606Y-1.7815
X9.9606Y-1.1815
X9.9606Y-1.7815
X10.0606Y-1.1815
X10.0606Y-1.7815
X10.1606Y-1.1815
X10.1606Y-1.7815
X10.2606Y-1.1815
X10.2606Y-1.7815
X10.3606Y-1.1815
X10.3606Y-1.7815
X10.4606Y-1.1815
X10.4606Y-1.7815
X10.5606Y-1.1815
X10.5606Y-1.7815
X10.6606Y-1.1815
X10.6606Y-1.7815
X10.7606Y-1.1815
X10.7606Y-1.7815
T3
X1.35Y-1.4
X1.35Y-2.3375
X1.4437Y-3.0874
X1.4437Y-4.5875
X1.6Y-1.3
X1.6Y-2.2375
X1.6312Y-3.8375
X1.6937Y-2.9874
X1.6937Y-4.4875
X1.8812Y-3.7375
X2.1Y-2.3375
X2.2875Y-1.4
X2.2875Y-3.0875
X2.2875Y-4.5875
X2.35Y-2.2375
X2.5375Y-1.3
X2.5375Y-2.9875
X2.5375Y-4.4875
X2.6625Y-3.8375
X2.85Y-2.3375
X2.9125Y-3.7375
X3.0375Y-1.4
X3.0375Y-3.0875
X3.1Y-2.2375
X3.1313Y-4.5875
X3.2875Y-1.3
X3.2875Y-2.9875
X3.3813Y-4.4875
X3.4125Y-3.8375
X3.6Y-2.3375
X3.6625Y-3.7375
X3.7875Y-1.4
X3.7875Y-3.0875
X3.85Y-2.2375
X4.0375Y-1.3
X4.0375Y-2.9875
X4.1625Y-3.8375
X4.35Y-2.3375
X4.4125Y-3.7375
X4.5375Y-1.4
X4.5375Y-3.0875
X4.6Y-2.2375
X4.6315Y-4.775
X4.7875Y-1.3
X4.7875Y-2.9875
X4.8815Y-4.675
X4.9125Y-3.8375
X5.1Y-2.3375
X5.1625Y-3.7375
X5.2875Y-1.4
X5.2875Y-3.0875
X5.35Y-2.2375
X5.5375Y-1.3
X5.5375Y-2.9875
X5.6625Y-3.8375
X5.85Y-2.3375
X5.9125Y-3.7375
X6.0375Y-3.0875
X6.1Y-2.2375
X6.2875Y-2.9875
X6.4125Y-3.8375
X6.5063Y-4.7749
X6.6Y-2.3375
X6.6625Y-3.7375
X6.7563Y-4.6749
X6.7875Y-3.0875
X6.85Y-2.2375
X7.0375Y-2.9875
X7.1625Y-3.8375
X7.35Y-2.3375
X7.4125Y-3.7375
X7.5375Y-3.0875
X7.6Y-2.2375
X7.7875Y-2.9875
X7.9125Y-3.8375
X8.1Y-2.3375
X8.1Y-4.5875
X8.1625Y-3.7375
X8.2875Y-3.0875
X8.35Y-2.2375
X8.35Y-4.4875
X8.5375Y-2.9875
X8.6625Y-3.8375
X8.85Y-2.3375
X8.85Y-4.5875
X8.9125Y-3.7375
X9.0375Y-3.0875
X9.1Y-2.2375
X9.1Y-4.4875
X9.2875Y-2.9875
X9.5062Y-3.8375
X9.6Y-2.3375
X9.6Y-4.5875
X9.7562Y-3.7375
X9.85Y-2.2375
X9.85Y-4.4875
X10.0689Y-3.0874
X10.3189Y-2.9874
X10.35Y-2.3375
X10.35Y-3.8375
X10.35Y-4.5875
X10.6Y-2.2375
X10.6Y-3.7375
X10.6Y-4.4875
T4
X1.8189Y-1.9291
X2.3228Y-3.8091
X5.7402Y-4.4783
X6.0866Y-1.6772
X7.6083Y-4.4783
X9.7165Y-3.0039
M30
