G04 #@! TF.GenerationSoftware,KiCad,Pcbnew,8.0.4*
G04 #@! TF.CreationDate,2025-02-13T21:41:29-05:00*
G04 #@! TF.ProjectId,shrimple,73687269-6d70-46c6-952e-6b696361645f,rev?*
G04 #@! TF.SameCoordinates,Original*
G04 #@! TF.FileFunction,Soldermask,Bot*
G04 #@! TF.FilePolarity,Negative*
%FSLAX46Y46*%
G04 Gerber Fmt 4.6, Leading zero omitted, Abs format (unit mm)*
G04 Created by KiCad (PCBNEW 8.0.4) date 2025-02-13 21:41:29*
%MOMM*%
%LPD*%
G01*
G04 APERTURE LIST*
G04 Aperture macros list*
%AMRoundRect*
0 Rectangle with rounded corners*
0 $1 Rounding radius*
0 $2 $3 $4 $5 $6 $7 $8 $9 X,Y pos of 4 corners*
0 Add a 4 corners polygon primitive as box body*
4,1,4,$2,$3,$4,$5,$6,$7,$8,$9,$2,$3,0*
0 Add four circle primitives for the rounded corners*
1,1,$1+$1,$2,$3*
1,1,$1+$1,$4,$5*
1,1,$1+$1,$6,$7*
1,1,$1+$1,$8,$9*
0 Add four rect primitives between the rounded corners*
20,1,$1+$1,$2,$3,$4,$5,0*
20,1,$1+$1,$4,$5,$6,$7,0*
20,1,$1+$1,$6,$7,$8,$9,0*
20,1,$1+$1,$8,$9,$2,$3,0*%
G04 Aperture macros list end*
%ADD10C,0.100000*%
%ADD11C,0.000000*%
%ADD12C,1.701800*%
%ADD13C,3.987800*%
%ADD14C,2.300000*%
%ADD15C,2.600000*%
%ADD16C,3.048000*%
%ADD17C,1.524000*%
%ADD18RoundRect,0.225000X0.375000X-0.225000X0.375000X0.225000X-0.375000X0.225000X-0.375000X-0.225000X0*%
G04 APERTURE END LIST*
D10*
G36*
X215356106Y-41243984D02*
G01*
X215272190Y-41193354D01*
X215178859Y-41125073D01*
X215093565Y-41048583D01*
X215016307Y-40963884D01*
X214947088Y-40870976D01*
X214915491Y-40821444D01*
X214866519Y-40732653D01*
X214825847Y-40641525D01*
X214793475Y-40548059D01*
X214769404Y-40452256D01*
X214753633Y-40354115D01*
X214746162Y-40253637D01*
X214745498Y-40212791D01*
X214779158Y-40120360D01*
X214789462Y-40109232D01*
X214880048Y-40065655D01*
X214891067Y-40065268D01*
X214985125Y-40101375D01*
X214993161Y-40109232D01*
X215035957Y-40198403D01*
X215036636Y-40213279D01*
X215042849Y-40324851D01*
X215061490Y-40431199D01*
X215092557Y-40532324D01*
X215136050Y-40628225D01*
X215191971Y-40718903D01*
X215260318Y-40804357D01*
X215291137Y-40837076D01*
X215373550Y-40911942D01*
X215461115Y-40974119D01*
X215553832Y-41023606D01*
X215651700Y-41060405D01*
X215754721Y-41084515D01*
X215862894Y-41095935D01*
X215907606Y-41096950D01*
X216486461Y-41096950D01*
X216585450Y-41080494D01*
X216670414Y-41031127D01*
X216692114Y-41010976D01*
X216750551Y-40928350D01*
X216776263Y-40832633D01*
X216777599Y-40802882D01*
X216777599Y-39713070D01*
X216782972Y-39713070D01*
X216833286Y-39630516D01*
X216925610Y-39596322D01*
X217018422Y-39630516D01*
X217068736Y-39713070D01*
X217068736Y-42293740D01*
X217063363Y-42293740D01*
X217013049Y-42375806D01*
X216919748Y-42410000D01*
X216827913Y-42375806D01*
X216777599Y-42293740D01*
X216777599Y-41681667D01*
X216761237Y-41582344D01*
X216712149Y-41497233D01*
X216692114Y-41475526D01*
X216611157Y-41416755D01*
X216516175Y-41390896D01*
X216486461Y-41389553D01*
X215907606Y-41389553D01*
X215797372Y-41395814D01*
X215692291Y-41414597D01*
X215592361Y-41445903D01*
X215497583Y-41489731D01*
X215407958Y-41546081D01*
X215323484Y-41614953D01*
X215291137Y-41646008D01*
X215217819Y-41728457D01*
X215156927Y-41816129D01*
X215108463Y-41909025D01*
X215072425Y-42007144D01*
X215048814Y-42110487D01*
X215037630Y-42219053D01*
X215036636Y-42263942D01*
X215003350Y-42356693D01*
X214993161Y-42367501D01*
X214902174Y-42409626D01*
X214891067Y-42410000D01*
X214797494Y-42375096D01*
X214789462Y-42367501D01*
X214746185Y-42278650D01*
X214745498Y-42263454D01*
X214749649Y-42162992D01*
X214762099Y-42064940D01*
X214782850Y-41969296D01*
X214818708Y-41857704D01*
X214857720Y-41767360D01*
X214905033Y-41679426D01*
X214915491Y-41662128D01*
X214980693Y-41565866D01*
X215053931Y-41477847D01*
X215135207Y-41398071D01*
X215224520Y-41326538D01*
X215321870Y-41263249D01*
X215356106Y-41243984D01*
G37*
G36*
X213550754Y-40070122D02*
G01*
X213653367Y-40084685D01*
X213752010Y-40108957D01*
X213846685Y-40142937D01*
X213937390Y-40186626D01*
X214024127Y-40240024D01*
X214106895Y-40303130D01*
X214185694Y-40375945D01*
X214257822Y-40455492D01*
X214320333Y-40539038D01*
X214373227Y-40626584D01*
X214416503Y-40718129D01*
X214450163Y-40813674D01*
X214474206Y-40913218D01*
X214488631Y-41016762D01*
X214493440Y-41124305D01*
X214493440Y-41350963D01*
X214488967Y-41458513D01*
X214475549Y-41562080D01*
X214453186Y-41661662D01*
X214421877Y-41757260D01*
X214381622Y-41848874D01*
X214332423Y-41936504D01*
X214274278Y-42020150D01*
X214207187Y-42099811D01*
X214128129Y-42172511D01*
X214045071Y-42235519D01*
X213958014Y-42288832D01*
X213866957Y-42332452D01*
X213771901Y-42366379D01*
X213672845Y-42390613D01*
X213569790Y-42405153D01*
X213462735Y-42410000D01*
X213237055Y-42410000D01*
X213127993Y-42404590D01*
X213022090Y-42388361D01*
X212919348Y-42361313D01*
X212819766Y-42323446D01*
X212723343Y-42274760D01*
X212691905Y-42256127D01*
X212601934Y-42194474D01*
X212519965Y-42124922D01*
X212446000Y-42047471D01*
X212380037Y-41962119D01*
X212322077Y-41868868D01*
X212304535Y-41836029D01*
X212291232Y-41739003D01*
X212295254Y-41724654D01*
X212357618Y-41645053D01*
X212367550Y-41639658D01*
X212467667Y-41626737D01*
X212478436Y-41629888D01*
X212557553Y-41691449D01*
X212562944Y-41701207D01*
X212618021Y-41792370D01*
X212683112Y-41873398D01*
X212758217Y-41944289D01*
X212843335Y-42005045D01*
X212935720Y-42054199D01*
X213032135Y-42089309D01*
X213132580Y-42110375D01*
X213237055Y-42117397D01*
X213462735Y-42117397D01*
X213573520Y-42110064D01*
X213678363Y-42088065D01*
X213777264Y-42051399D01*
X213870224Y-42000068D01*
X213957241Y-41934071D01*
X213984926Y-41908813D01*
X214058800Y-41827881D01*
X214117390Y-41740423D01*
X214160695Y-41646439D01*
X214188716Y-41545929D01*
X214201453Y-41438894D01*
X214202302Y-41401765D01*
X214099181Y-41431036D01*
X213983991Y-41455346D01*
X213883149Y-41471222D01*
X213774584Y-41483922D01*
X213658293Y-41493448D01*
X213534279Y-41499798D01*
X213436199Y-41502477D01*
X213333775Y-41503370D01*
X213230437Y-41502424D01*
X213131206Y-41499584D01*
X213012941Y-41493373D01*
X212901093Y-41484205D01*
X212795661Y-41472078D01*
X212696644Y-41456994D01*
X212622051Y-41442798D01*
X212516149Y-41417366D01*
X212403628Y-41379995D01*
X212313170Y-41336422D01*
X212233743Y-41275949D01*
X212177262Y-41181427D01*
X212170202Y-41128213D01*
X212172008Y-41087669D01*
X212461339Y-41087669D01*
X212559645Y-41129503D01*
X212664419Y-41157753D01*
X212763196Y-41176025D01*
X212875269Y-41190451D01*
X213000639Y-41201030D01*
X213103391Y-41206439D01*
X213213622Y-41209685D01*
X213331332Y-41210767D01*
X213449217Y-41209685D01*
X213559606Y-41206439D01*
X213662498Y-41201030D01*
X213788028Y-41190451D01*
X213900231Y-41176025D01*
X213999107Y-41157753D01*
X214103962Y-41129503D01*
X214202302Y-41087669D01*
X214194471Y-40976328D01*
X214170978Y-40871651D01*
X214131823Y-40773637D01*
X214077006Y-40682287D01*
X214006526Y-40597599D01*
X213979553Y-40570851D01*
X213892948Y-40498471D01*
X213800195Y-40441066D01*
X213701293Y-40398637D01*
X213596244Y-40371182D01*
X213485047Y-40358703D01*
X213446615Y-40357871D01*
X213216538Y-40357871D01*
X213103292Y-40365359D01*
X212996193Y-40387821D01*
X212895242Y-40425259D01*
X212800440Y-40477672D01*
X212711786Y-40545060D01*
X212683600Y-40570851D01*
X212608066Y-40653317D01*
X212548160Y-40742447D01*
X212503881Y-40838240D01*
X212475231Y-40940696D01*
X212462208Y-41049815D01*
X212461339Y-41087669D01*
X212172008Y-41087669D01*
X212175010Y-41020303D01*
X212189436Y-40916393D01*
X212213479Y-40816483D01*
X212247138Y-40720572D01*
X212290415Y-40628660D01*
X212343309Y-40540748D01*
X212405820Y-40456835D01*
X212477948Y-40376922D01*
X212556747Y-40303878D01*
X212639515Y-40240573D01*
X212726251Y-40187008D01*
X212816957Y-40143182D01*
X212911632Y-40109094D01*
X213010275Y-40084747D01*
X213112888Y-40070138D01*
X213219469Y-40065268D01*
X213444173Y-40065268D01*
X213550754Y-40070122D01*
G37*
G36*
X210944194Y-40070122D02*
G01*
X211046807Y-40084685D01*
X211145450Y-40108957D01*
X211240125Y-40142937D01*
X211330831Y-40186626D01*
X211417568Y-40240024D01*
X211500335Y-40303130D01*
X211579134Y-40375945D01*
X211651262Y-40455492D01*
X211713773Y-40539038D01*
X211766667Y-40626584D01*
X211809944Y-40718129D01*
X211843603Y-40813674D01*
X211867646Y-40913218D01*
X211882072Y-41016762D01*
X211886880Y-41124305D01*
X211886880Y-41350963D01*
X211882407Y-41458513D01*
X211868989Y-41562080D01*
X211846626Y-41661662D01*
X211815317Y-41757260D01*
X211775063Y-41848874D01*
X211725863Y-41936504D01*
X211667718Y-42020150D01*
X211600628Y-42099811D01*
X211521569Y-42172511D01*
X211438511Y-42235519D01*
X211351454Y-42288832D01*
X211260397Y-42332452D01*
X211165341Y-42366379D01*
X211066285Y-42390613D01*
X210963230Y-42405153D01*
X210856175Y-42410000D01*
X210630495Y-42410000D01*
X210521433Y-42404590D01*
X210415531Y-42388361D01*
X210312788Y-42361313D01*
X210213206Y-42323446D01*
X210116784Y-42274760D01*
X210085345Y-42256127D01*
X209995374Y-42194474D01*
X209913406Y-42124922D01*
X209839440Y-42047471D01*
X209773477Y-41962119D01*
X209715517Y-41868868D01*
X209697976Y-41836029D01*
X209684672Y-41739003D01*
X209688695Y-41724654D01*
X209751059Y-41645053D01*
X209760990Y-41639658D01*
X209861108Y-41626737D01*
X209871877Y-41629888D01*
X209950994Y-41691449D01*
X209956385Y-41701207D01*
X210011461Y-41792370D01*
X210076552Y-41873398D01*
X210151657Y-41944289D01*
X210236775Y-42005045D01*
X210329160Y-42054199D01*
X210425575Y-42089309D01*
X210526020Y-42110375D01*
X210630495Y-42117397D01*
X210856175Y-42117397D01*
X210966960Y-42110064D01*
X211071804Y-42088065D01*
X211170705Y-42051399D01*
X211263664Y-42000068D01*
X211350681Y-41934071D01*
X211378367Y-41908813D01*
X211452240Y-41827881D01*
X211510830Y-41740423D01*
X211554136Y-41646439D01*
X211582157Y-41545929D01*
X211594894Y-41438894D01*
X211595743Y-41401765D01*
X211492622Y-41431036D01*
X211377432Y-41455346D01*
X211276590Y-41471222D01*
X211168024Y-41483922D01*
X211051734Y-41493448D01*
X210927719Y-41499798D01*
X210829640Y-41502477D01*
X210727215Y-41503370D01*
X210623878Y-41502424D01*
X210524646Y-41499584D01*
X210406382Y-41493373D01*
X210294533Y-41484205D01*
X210189101Y-41472078D01*
X210090085Y-41456994D01*
X210015491Y-41442798D01*
X209909589Y-41417366D01*
X209797068Y-41379995D01*
X209706610Y-41336422D01*
X209627184Y-41275949D01*
X209570702Y-41181427D01*
X209563642Y-41128213D01*
X209565449Y-41087669D01*
X209854780Y-41087669D01*
X209953086Y-41129503D01*
X210057859Y-41157753D01*
X210156637Y-41176025D01*
X210268710Y-41190451D01*
X210394079Y-41201030D01*
X210496831Y-41206439D01*
X210607062Y-41209685D01*
X210724773Y-41210767D01*
X210842658Y-41209685D01*
X210953046Y-41206439D01*
X211055939Y-41201030D01*
X211181468Y-41190451D01*
X211293671Y-41176025D01*
X211392547Y-41157753D01*
X211497403Y-41129503D01*
X211595743Y-41087669D01*
X211587912Y-40976328D01*
X211564419Y-40871651D01*
X211525263Y-40773637D01*
X211470446Y-40682287D01*
X211399967Y-40597599D01*
X211372993Y-40570851D01*
X211286388Y-40498471D01*
X211193635Y-40441066D01*
X211094734Y-40398637D01*
X210989685Y-40371182D01*
X210878487Y-40358703D01*
X210840055Y-40357871D01*
X210609979Y-40357871D01*
X210496732Y-40365359D01*
X210389633Y-40387821D01*
X210288683Y-40425259D01*
X210193880Y-40477672D01*
X210105226Y-40545060D01*
X210077041Y-40570851D01*
X210001507Y-40653317D01*
X209941600Y-40742447D01*
X209897322Y-40838240D01*
X209868671Y-40940696D01*
X209855648Y-41049815D01*
X209854780Y-41087669D01*
X209565449Y-41087669D01*
X209568451Y-41020303D01*
X209582876Y-40916393D01*
X209606919Y-40816483D01*
X209640579Y-40720572D01*
X209683855Y-40628660D01*
X209736749Y-40540748D01*
X209799260Y-40456835D01*
X209871388Y-40376922D01*
X209950187Y-40303878D01*
X210032955Y-40240573D01*
X210119692Y-40187008D01*
X210210397Y-40143182D01*
X210305072Y-40109094D01*
X210403715Y-40084747D01*
X210506328Y-40070138D01*
X210612909Y-40065268D01*
X210837613Y-40065268D01*
X210944194Y-40070122D01*
G37*
G36*
X209083154Y-39631225D02*
G01*
X209091277Y-39638820D01*
X209133111Y-39727778D01*
X209133775Y-39742868D01*
X209133775Y-42117397D01*
X209226793Y-42149934D01*
X209237822Y-42159895D01*
X209279947Y-42251767D01*
X209280321Y-42262965D01*
X209247783Y-42356571D01*
X209237822Y-42367501D01*
X209149238Y-42409335D01*
X209134263Y-42410000D01*
X209078087Y-42399253D01*
X208985519Y-42363471D01*
X208910048Y-42300090D01*
X208859490Y-42215338D01*
X208842637Y-42117397D01*
X208842637Y-42100788D01*
X208765533Y-42173259D01*
X208684429Y-42236068D01*
X208599326Y-42289214D01*
X208510223Y-42332697D01*
X208417120Y-42366517D01*
X208320019Y-42390674D01*
X208218917Y-42405168D01*
X208113817Y-42410000D01*
X207821214Y-42410000D01*
X207717494Y-42405298D01*
X207617607Y-42391193D01*
X207521551Y-42367684D01*
X207429326Y-42334773D01*
X207340933Y-42292458D01*
X207256372Y-42240739D01*
X207175642Y-42179617D01*
X207098743Y-42109092D01*
X207028905Y-42032263D01*
X206968379Y-41951495D01*
X206917164Y-41866788D01*
X206875261Y-41778143D01*
X206842670Y-41685560D01*
X206819391Y-41589038D01*
X206805423Y-41488578D01*
X206800767Y-41384180D01*
X206800767Y-41127725D01*
X207091905Y-41127725D01*
X207091905Y-41348032D01*
X207099787Y-41464203D01*
X207123435Y-41573849D01*
X207162848Y-41676969D01*
X207218025Y-41773564D01*
X207288969Y-41863632D01*
X207316120Y-41892205D01*
X207403480Y-41968735D01*
X207497401Y-42029431D01*
X207597882Y-42074293D01*
X207704924Y-42103322D01*
X207818525Y-42116517D01*
X207857850Y-42117397D01*
X208076692Y-42117397D01*
X208192331Y-42109480D01*
X208301479Y-42085729D01*
X208404136Y-42046144D01*
X208500300Y-41990726D01*
X208589974Y-41919474D01*
X208618422Y-41892205D01*
X208694620Y-41804312D01*
X208755053Y-41709893D01*
X208799721Y-41608948D01*
X208828624Y-41501477D01*
X208841761Y-41387481D01*
X208842637Y-41348032D01*
X208842637Y-41127725D01*
X208834755Y-41011387D01*
X208811107Y-40901609D01*
X208771694Y-40798392D01*
X208716516Y-40701734D01*
X208645573Y-40611638D01*
X208618422Y-40583063D01*
X208530913Y-40506533D01*
X208436912Y-40445837D01*
X208336419Y-40400974D01*
X208229435Y-40371946D01*
X208115960Y-40358751D01*
X208076692Y-40357871D01*
X207857850Y-40357871D01*
X207742062Y-40365788D01*
X207632834Y-40389539D01*
X207530166Y-40429123D01*
X207434058Y-40484542D01*
X207344511Y-40555794D01*
X207316120Y-40583063D01*
X207239921Y-40670973D01*
X207179489Y-40765444D01*
X207134821Y-40866474D01*
X207105918Y-40974065D01*
X207092780Y-41088216D01*
X207091905Y-41127725D01*
X206800767Y-41127725D01*
X206800767Y-41091577D01*
X206805423Y-40987384D01*
X206819391Y-40887054D01*
X206842670Y-40790585D01*
X206875261Y-40697979D01*
X206917164Y-40609235D01*
X206968379Y-40524353D01*
X207028905Y-40443333D01*
X207098743Y-40366175D01*
X207175642Y-40295650D01*
X207256372Y-40234528D01*
X207340933Y-40182810D01*
X207429326Y-40140495D01*
X207521551Y-40107583D01*
X207617607Y-40084075D01*
X207717494Y-40069970D01*
X207821214Y-40065268D01*
X208113817Y-40065268D01*
X208218917Y-40070077D01*
X208320019Y-40084502D01*
X208417120Y-40108545D01*
X208510223Y-40142205D01*
X208599326Y-40185481D01*
X208684429Y-40238375D01*
X208765533Y-40300886D01*
X208842637Y-40373014D01*
X208842637Y-39742868D01*
X208875175Y-39649742D01*
X208885136Y-39638820D01*
X208973719Y-39596986D01*
X208988695Y-39596322D01*
X209083154Y-39631225D01*
G37*
G36*
X204482414Y-39888925D02*
G01*
X204388757Y-39854021D01*
X204380809Y-39846427D01*
X204337532Y-39757843D01*
X204336845Y-39742868D01*
X204370505Y-39649742D01*
X204380809Y-39638820D01*
X204471311Y-39596695D01*
X204482414Y-39596322D01*
X204576472Y-39631225D01*
X204584508Y-39638820D01*
X204627303Y-39727778D01*
X204627983Y-39742868D01*
X204594697Y-39835512D01*
X204584508Y-39846427D01*
X204493521Y-39888551D01*
X204482414Y-39888925D01*
G37*
G36*
X204305582Y-40359337D02*
G01*
X204322191Y-40261029D01*
X204372016Y-40175177D01*
X204451734Y-40109546D01*
X204538101Y-40077969D01*
X204593300Y-40065268D01*
X204687358Y-40101375D01*
X204695394Y-40109232D01*
X204737034Y-40200703D01*
X204737404Y-40211814D01*
X204703704Y-40305872D01*
X204696371Y-40313907D01*
X204607556Y-40357485D01*
X204596720Y-40357871D01*
X204596720Y-42117397D01*
X204579867Y-42215338D01*
X204529309Y-42300090D01*
X204454937Y-42363471D01*
X204362735Y-42399253D01*
X204305094Y-42410000D01*
X204210635Y-42375096D01*
X204202512Y-42367501D01*
X204159716Y-42278169D01*
X204159036Y-42262965D01*
X204192322Y-42170802D01*
X204202512Y-42159895D01*
X204290828Y-42118061D01*
X204305582Y-42117397D01*
X204305582Y-40359337D01*
G37*
G36*
X201655059Y-41653335D02*
G01*
X201752672Y-41639551D01*
X201766922Y-41643565D01*
X201846523Y-41705210D01*
X201851919Y-41714884D01*
X201904736Y-41803422D01*
X201967445Y-41881946D01*
X202040047Y-41950457D01*
X202122540Y-42008953D01*
X202211871Y-42056397D01*
X202304989Y-42090286D01*
X202401892Y-42110619D01*
X202502581Y-42117397D01*
X202722889Y-42117397D01*
X202834069Y-42109754D01*
X202938998Y-42086828D01*
X203037676Y-42048617D01*
X203130102Y-41995122D01*
X203216278Y-41926343D01*
X203243614Y-41900020D01*
X203316990Y-41815344D01*
X203375185Y-41724349D01*
X203418198Y-41627033D01*
X203446031Y-41523398D01*
X203458682Y-41413443D01*
X203459525Y-41375387D01*
X203459525Y-40795554D01*
X202353593Y-40795554D01*
X202259536Y-40759447D01*
X202251500Y-40751591D01*
X202209375Y-40660604D01*
X202209002Y-40649497D01*
X202243905Y-40554955D01*
X202251500Y-40546915D01*
X202342487Y-40503338D01*
X202353593Y-40502951D01*
X203459525Y-40502951D01*
X203459525Y-39887948D01*
X203476378Y-39790739D01*
X203526936Y-39706231D01*
X203602407Y-39642850D01*
X203694975Y-39607069D01*
X203751151Y-39596322D01*
X203843795Y-39628860D01*
X203854710Y-39638820D01*
X203896544Y-39727778D01*
X203897208Y-39742868D01*
X203864670Y-39835512D01*
X203854710Y-39846427D01*
X203765645Y-39888261D01*
X203750662Y-39888925D01*
X203750662Y-40502951D01*
X203843681Y-40536611D01*
X203854710Y-40546915D01*
X203896835Y-40638303D01*
X203897208Y-40649497D01*
X203862305Y-40743555D01*
X203854710Y-40751591D01*
X203765645Y-40794867D01*
X203750662Y-40795554D01*
X203750662Y-41375387D01*
X203745968Y-41480304D01*
X203731886Y-41581345D01*
X203708416Y-41678507D01*
X203675558Y-41771793D01*
X203633311Y-41861201D01*
X203581677Y-41946732D01*
X203520654Y-42028385D01*
X203450244Y-42106161D01*
X203372735Y-42177373D01*
X203291394Y-42239091D01*
X203206222Y-42291313D01*
X203117219Y-42334040D01*
X203024383Y-42367272D01*
X202927717Y-42391010D01*
X202827218Y-42405252D01*
X202722889Y-42410000D01*
X202502581Y-42410000D01*
X202396364Y-42404693D01*
X202293136Y-42388773D01*
X202192895Y-42362240D01*
X202095642Y-42325095D01*
X202001378Y-42277336D01*
X201970621Y-42259057D01*
X201883243Y-42198974D01*
X201803558Y-42131196D01*
X201731568Y-42055725D01*
X201667271Y-41972561D01*
X201610668Y-41881702D01*
X201593510Y-41849706D01*
X201579725Y-41752681D01*
X201583740Y-41738332D01*
X201645385Y-41658730D01*
X201655059Y-41653335D01*
G37*
G36*
X199721632Y-41753963D02*
G01*
X199714883Y-41852716D01*
X199689949Y-41961024D01*
X199646642Y-42061900D01*
X199584963Y-42155342D01*
X199529658Y-42217536D01*
X199455102Y-42282944D01*
X199361176Y-42342149D01*
X199259769Y-42382934D01*
X199150883Y-42405301D01*
X199068527Y-42410000D01*
X198051988Y-42410000D01*
X197953602Y-42403233D01*
X197845721Y-42378236D01*
X197745273Y-42334818D01*
X197652258Y-42272982D01*
X197590369Y-42217536D01*
X197525128Y-42142283D01*
X197466073Y-42047628D01*
X197425391Y-41945587D01*
X197403081Y-41836160D01*
X197398394Y-41753475D01*
X197405144Y-41654259D01*
X197430078Y-41545626D01*
X197473385Y-41444660D01*
X197535064Y-41351361D01*
X197590369Y-41289413D01*
X197665073Y-41224006D01*
X197759087Y-41164801D01*
X197860487Y-41124015D01*
X197969273Y-41101649D01*
X198051500Y-41096950D01*
X199067550Y-41096950D01*
X199164958Y-41084136D01*
X199259766Y-41040928D01*
X199323028Y-40988506D01*
X199384213Y-40908478D01*
X199421994Y-40809457D01*
X199430495Y-40727166D01*
X199417796Y-40627917D01*
X199374977Y-40531494D01*
X199323028Y-40467292D01*
X199245015Y-40404995D01*
X199148192Y-40366526D01*
X199067550Y-40357871D01*
X198052477Y-40357871D01*
X197954628Y-40370801D01*
X197859866Y-40414398D01*
X197796999Y-40467292D01*
X197735814Y-40546764D01*
X197698033Y-40645442D01*
X197689532Y-40727655D01*
X197656994Y-40820299D01*
X197647034Y-40831214D01*
X197559198Y-40874971D01*
X197544452Y-40875666D01*
X197452128Y-40842006D01*
X197440893Y-40831702D01*
X197399059Y-40743012D01*
X197398394Y-40728143D01*
X197405144Y-40628343D01*
X197430078Y-40518943D01*
X197473385Y-40417115D01*
X197535064Y-40322861D01*
X197590369Y-40260174D01*
X197665090Y-40193936D01*
X197759167Y-40133980D01*
X197860677Y-40092677D01*
X197969621Y-40070027D01*
X198051988Y-40065268D01*
X199068527Y-40065268D01*
X199166896Y-40072120D01*
X199274714Y-40097435D01*
X199375052Y-40141403D01*
X199467910Y-40204024D01*
X199529658Y-40260174D01*
X199594899Y-40335679D01*
X199653954Y-40430801D01*
X199694636Y-40533497D01*
X199716946Y-40643766D01*
X199721632Y-40727166D01*
X199714883Y-40827396D01*
X199689949Y-40936993D01*
X199646642Y-41038690D01*
X199584963Y-41132487D01*
X199529658Y-41194647D01*
X199455120Y-41260885D01*
X199361256Y-41320841D01*
X199259960Y-41362144D01*
X199151230Y-41384794D01*
X199069016Y-41389553D01*
X198052477Y-41389553D01*
X197954849Y-41402078D01*
X197860064Y-41444313D01*
X197796999Y-41495554D01*
X197735814Y-41574738D01*
X197698033Y-41672442D01*
X197689532Y-41753475D01*
X197702231Y-41851439D01*
X197745049Y-41946590D01*
X197796999Y-42009930D01*
X197874792Y-42071114D01*
X197971638Y-42108896D01*
X198052477Y-42117397D01*
X199067550Y-42117397D01*
X199165178Y-42104698D01*
X199259963Y-42061879D01*
X199323028Y-42009930D01*
X199384213Y-41931581D01*
X199421994Y-41834391D01*
X199430495Y-41753475D01*
X199463033Y-41661151D01*
X199472993Y-41649916D01*
X199564381Y-41608275D01*
X199575575Y-41607906D01*
X199668006Y-41640444D01*
X199679134Y-41650404D01*
X199720968Y-41739202D01*
X199721632Y-41753963D01*
G37*
G36*
X195942219Y-40065268D02*
G01*
X196046839Y-40070077D01*
X196147474Y-40084502D01*
X196244126Y-40108545D01*
X196336793Y-40142205D01*
X196425476Y-40185481D01*
X196510175Y-40238375D01*
X196590889Y-40300886D01*
X196667620Y-40373014D01*
X196667620Y-39888925D01*
X196377948Y-39888925D01*
X196285571Y-39856387D01*
X196274877Y-39846427D01*
X196233043Y-39757843D01*
X196232379Y-39742868D01*
X196264917Y-39649742D01*
X196274877Y-39638820D01*
X196366583Y-39596695D01*
X196377948Y-39596322D01*
X196814166Y-39596322D01*
X196908223Y-39631225D01*
X196916259Y-39638820D01*
X196958093Y-39727778D01*
X196958757Y-39742868D01*
X196958757Y-42117397D01*
X197050560Y-42152300D01*
X197058408Y-42159895D01*
X197099081Y-42251767D01*
X197099441Y-42262965D01*
X197067278Y-42356571D01*
X197057431Y-42367501D01*
X196966445Y-42409626D01*
X196955338Y-42410000D01*
X196900139Y-42399253D01*
X196808548Y-42363471D01*
X196734054Y-42300090D01*
X196684228Y-42215338D01*
X196667620Y-42117397D01*
X196667620Y-41383203D01*
X196667620Y-41365129D01*
X196667620Y-41347543D01*
X196667620Y-41127725D01*
X196659772Y-41011387D01*
X196636227Y-40901609D01*
X196596986Y-40798392D01*
X196542049Y-40701734D01*
X196471415Y-40611638D01*
X196444382Y-40583063D01*
X196357588Y-40506533D01*
X196264268Y-40445837D01*
X196164422Y-40400974D01*
X196058051Y-40371946D01*
X195945153Y-40358751D01*
X195906071Y-40357871D01*
X195688206Y-40357871D01*
X195573133Y-40365788D01*
X195464586Y-40389539D01*
X195362565Y-40429123D01*
X195267070Y-40484542D01*
X195178101Y-40555794D01*
X195149895Y-40583063D01*
X195074029Y-40670824D01*
X195013859Y-40765215D01*
X194969386Y-40866234D01*
X194940609Y-40973882D01*
X194927529Y-41088159D01*
X194926657Y-41127725D01*
X194926657Y-41347543D01*
X194926657Y-41365129D01*
X194926657Y-41383203D01*
X194926657Y-42293251D01*
X194921284Y-42293251D01*
X194870969Y-42375806D01*
X194777180Y-42410000D01*
X194685833Y-42375806D01*
X194635519Y-42293251D01*
X194635519Y-41091577D01*
X194640152Y-40987384D01*
X194654051Y-40887054D01*
X194677216Y-40790585D01*
X194709647Y-40697979D01*
X194751344Y-40609235D01*
X194802307Y-40524353D01*
X194862535Y-40443333D01*
X194932030Y-40366175D01*
X195008555Y-40295650D01*
X195088895Y-40234528D01*
X195173052Y-40182810D01*
X195283615Y-40131385D01*
X195400141Y-40094654D01*
X195497655Y-40075847D01*
X195598985Y-40066444D01*
X195651081Y-40065268D01*
X195942219Y-40065268D01*
G37*
G36*
X191995743Y-40639727D02*
G01*
X192051069Y-40543677D01*
X192114468Y-40455561D01*
X192185937Y-40375378D01*
X192265478Y-40303130D01*
X192353091Y-40238816D01*
X192384089Y-40219141D01*
X192479424Y-40166848D01*
X192577850Y-40125375D01*
X192679367Y-40094720D01*
X192783975Y-40074885D01*
X192891675Y-40065869D01*
X192928262Y-40065268D01*
X193154919Y-40065268D01*
X193264912Y-40070443D01*
X193370677Y-40085968D01*
X193472214Y-40111842D01*
X193569521Y-40148066D01*
X193662601Y-40194641D01*
X193751452Y-40251564D01*
X193836074Y-40318838D01*
X193916468Y-40396461D01*
X193916468Y-40357871D01*
X193933077Y-40260174D01*
X193982903Y-40175177D01*
X194062620Y-40109133D01*
X194148988Y-40076503D01*
X194204187Y-40065268D01*
X194298244Y-40100573D01*
X194306280Y-40108255D01*
X194347633Y-40197213D01*
X194348290Y-40212302D01*
X194314590Y-40307246D01*
X194307257Y-40315373D01*
X194218442Y-40357498D01*
X194207606Y-40357871D01*
X194207606Y-42262965D01*
X194175068Y-42356571D01*
X194165108Y-42367501D01*
X194073637Y-42409626D01*
X194062526Y-42410000D01*
X193969881Y-42377462D01*
X193958967Y-42367501D01*
X193917132Y-42278169D01*
X193916468Y-42262965D01*
X193916468Y-41124305D01*
X193908637Y-41008683D01*
X193885144Y-40899586D01*
X193845989Y-40797016D01*
X193791172Y-40700971D01*
X193720693Y-40611452D01*
X193693719Y-40583063D01*
X193606461Y-40506533D01*
X193512850Y-40445837D01*
X193412884Y-40400974D01*
X193306564Y-40371946D01*
X193193889Y-40358751D01*
X193154919Y-40357871D01*
X192928262Y-40357871D01*
X192824245Y-40364924D01*
X192724197Y-40386081D01*
X192628118Y-40421344D01*
X192536008Y-40470711D01*
X192450157Y-40531436D01*
X192374808Y-40602236D01*
X192309961Y-40683111D01*
X192255617Y-40774061D01*
X192183115Y-40840419D01*
X192169155Y-40845380D01*
X192068775Y-40841077D01*
X192058757Y-40836099D01*
X191991384Y-40764665D01*
X191985973Y-40750614D01*
X191991009Y-40649749D01*
X191995743Y-40639727D01*
G37*
G36*
X191433984Y-39888925D02*
G01*
X191340328Y-39854021D01*
X191332379Y-39846427D01*
X191289102Y-39757843D01*
X191288415Y-39742868D01*
X191322075Y-39649742D01*
X191332379Y-39638820D01*
X191422882Y-39596695D01*
X191433984Y-39596322D01*
X191528042Y-39631225D01*
X191536078Y-39638820D01*
X191578874Y-39727778D01*
X191579553Y-39742868D01*
X191546267Y-39835512D01*
X191536078Y-39846427D01*
X191445091Y-39888551D01*
X191433984Y-39888925D01*
G37*
G36*
X191257152Y-40359337D02*
G01*
X191273761Y-40261029D01*
X191323586Y-40175177D01*
X191403304Y-40109546D01*
X191489672Y-40077969D01*
X191544870Y-40065268D01*
X191638928Y-40101375D01*
X191646964Y-40109232D01*
X191688604Y-40200703D01*
X191688974Y-40211814D01*
X191655274Y-40305872D01*
X191647941Y-40313907D01*
X191559126Y-40357485D01*
X191548290Y-40357871D01*
X191548290Y-42117397D01*
X191531437Y-42215338D01*
X191480879Y-42300090D01*
X191406507Y-42363471D01*
X191314305Y-42399253D01*
X191256664Y-42410000D01*
X191162205Y-42375096D01*
X191154082Y-42367501D01*
X191111286Y-42278169D01*
X191110607Y-42262965D01*
X191143892Y-42170802D01*
X191154082Y-42159895D01*
X191242399Y-42118061D01*
X191257152Y-42117397D01*
X191257152Y-40359337D01*
G37*
G36*
X188493300Y-40065268D02*
G01*
X188596737Y-40071466D01*
X188696999Y-40090059D01*
X188794085Y-40121047D01*
X188887997Y-40164431D01*
X188972780Y-40217431D01*
X189049808Y-40279225D01*
X189119081Y-40349811D01*
X189180600Y-40429190D01*
X189241691Y-40349811D01*
X189310659Y-40279225D01*
X189387504Y-40217431D01*
X189472226Y-40164431D01*
X189565191Y-40121047D01*
X189661392Y-40090059D01*
X189760829Y-40071466D01*
X189863503Y-40065268D01*
X189978793Y-40072893D01*
X190088725Y-40095768D01*
X190193299Y-40133893D01*
X190292515Y-40187267D01*
X190386373Y-40255892D01*
X190416468Y-40282156D01*
X190457427Y-40189029D01*
X190530801Y-40116893D01*
X190623251Y-40078863D01*
X190633845Y-40076503D01*
X190689043Y-40065268D01*
X190783101Y-40100573D01*
X190791137Y-40108255D01*
X190832490Y-40197213D01*
X190833147Y-40212302D01*
X190799447Y-40307246D01*
X190792114Y-40315373D01*
X190703299Y-40357498D01*
X190692463Y-40357871D01*
X190692463Y-42117397D01*
X190784266Y-42152300D01*
X190792114Y-42159895D01*
X190832786Y-42251767D01*
X190833147Y-42262965D01*
X190800983Y-42356571D01*
X190791137Y-42367501D01*
X190700150Y-42409626D01*
X190689043Y-42410000D01*
X190633845Y-42399253D01*
X190542254Y-42363471D01*
X190467759Y-42300090D01*
X190417934Y-42215338D01*
X190401325Y-42117397D01*
X190401325Y-40900579D01*
X190391464Y-40792715D01*
X190361880Y-40692850D01*
X190312574Y-40600984D01*
X190243545Y-40517117D01*
X190160990Y-40447447D01*
X190070132Y-40397683D01*
X189970969Y-40367824D01*
X189863503Y-40357871D01*
X189756585Y-40367824D01*
X189657606Y-40397683D01*
X189566564Y-40447447D01*
X189483461Y-40517117D01*
X189414859Y-40600984D01*
X189365858Y-40692850D01*
X189336457Y-40792715D01*
X189326657Y-40900579D01*
X189326657Y-42262965D01*
X189294119Y-42356571D01*
X189284159Y-42367501D01*
X189195361Y-42409335D01*
X189180600Y-42410000D01*
X189086058Y-42375096D01*
X189078018Y-42367501D01*
X189036183Y-42278169D01*
X189035519Y-42262965D01*
X189035519Y-40900579D01*
X189025566Y-40792715D01*
X188995708Y-40692850D01*
X188945943Y-40600984D01*
X188876273Y-40517117D01*
X188792589Y-40447447D01*
X188700785Y-40397683D01*
X188600859Y-40367824D01*
X188492812Y-40357871D01*
X188384643Y-40367824D01*
X188284839Y-40397683D01*
X188193401Y-40447447D01*
X188110327Y-40517117D01*
X188040657Y-40600984D01*
X187990893Y-40692850D01*
X187961034Y-40792715D01*
X187951081Y-40900579D01*
X187951081Y-42262965D01*
X187918543Y-42356571D01*
X187908583Y-42367501D01*
X187817112Y-42409626D01*
X187806001Y-42410000D01*
X187712876Y-42377462D01*
X187701953Y-42367501D01*
X187660600Y-42278169D01*
X187659944Y-42262965D01*
X187659944Y-40900579D01*
X187665895Y-40794841D01*
X187683748Y-40694089D01*
X187713503Y-40598321D01*
X187755160Y-40507539D01*
X187808720Y-40421741D01*
X187874181Y-40340929D01*
X187903698Y-40310000D01*
X187982493Y-40239496D01*
X188066224Y-40180942D01*
X188154894Y-40134338D01*
X188248500Y-40099684D01*
X188347044Y-40076979D01*
X188450525Y-40066224D01*
X188493300Y-40065268D01*
G37*
G36*
X186329881Y-40070100D02*
G01*
X186430517Y-40084594D01*
X186527168Y-40108751D01*
X186619836Y-40142571D01*
X186708519Y-40186054D01*
X186793217Y-40239200D01*
X186873932Y-40302008D01*
X186950662Y-40374480D01*
X186950662Y-40358360D01*
X186967271Y-40260296D01*
X187017096Y-40175177D01*
X187091591Y-40111796D01*
X187183182Y-40076015D01*
X187238381Y-40065268D01*
X187332438Y-40100172D01*
X187340474Y-40107766D01*
X187381827Y-40197098D01*
X187382484Y-40212302D01*
X187348784Y-40306761D01*
X187341451Y-40314884D01*
X187252636Y-40357493D01*
X187241800Y-40357871D01*
X187241800Y-42731912D01*
X187209262Y-42825518D01*
X187199302Y-42836448D01*
X187107831Y-42878572D01*
X187096720Y-42878946D01*
X187004075Y-42846408D01*
X186993161Y-42836448D01*
X186951326Y-42747116D01*
X186950662Y-42731912D01*
X186950662Y-42102254D01*
X186873932Y-42174381D01*
X186793217Y-42236892D01*
X186708519Y-42289786D01*
X186619836Y-42333063D01*
X186527168Y-42366723D01*
X186430517Y-42390765D01*
X186329881Y-42405191D01*
X186225261Y-42410000D01*
X185934124Y-42410000D01*
X185830885Y-42405305D01*
X185731463Y-42391223D01*
X185635857Y-42367753D01*
X185521717Y-42325213D01*
X185434698Y-42280620D01*
X185351495Y-42226638D01*
X185272108Y-42163269D01*
X185215073Y-42109581D01*
X185145578Y-42032423D01*
X185085349Y-41951403D01*
X185034386Y-41866521D01*
X184992690Y-41777777D01*
X184960259Y-41685171D01*
X184937094Y-41588702D01*
X184923195Y-41488372D01*
X184918562Y-41384180D01*
X184918562Y-41127236D01*
X185209699Y-41127236D01*
X185209699Y-41347543D01*
X185217548Y-41463715D01*
X185241092Y-41573361D01*
X185280333Y-41676481D01*
X185335271Y-41773075D01*
X185405905Y-41863144D01*
X185432937Y-41891716D01*
X185519731Y-41968412D01*
X185613051Y-42029240D01*
X185712897Y-42074200D01*
X185819269Y-42103292D01*
X185932166Y-42116515D01*
X185971249Y-42117397D01*
X186189113Y-42117397D01*
X186304186Y-42109462D01*
X186412733Y-42085660D01*
X186514754Y-42045990D01*
X186610249Y-41990451D01*
X186699218Y-41919045D01*
X186727424Y-41891716D01*
X186803291Y-41803823D01*
X186863460Y-41709404D01*
X186907933Y-41608459D01*
X186936710Y-41500989D01*
X186949790Y-41386992D01*
X186950662Y-41347543D01*
X186950662Y-41127236D01*
X186942814Y-41011064D01*
X186919270Y-40901418D01*
X186880029Y-40798298D01*
X186825091Y-40701704D01*
X186754457Y-40611636D01*
X186727424Y-40583063D01*
X186640630Y-40506533D01*
X186547311Y-40445837D01*
X186447465Y-40400974D01*
X186341093Y-40371946D01*
X186228196Y-40358751D01*
X186189113Y-40357871D01*
X185971249Y-40357871D01*
X185856176Y-40365788D01*
X185747629Y-40389539D01*
X185645608Y-40429123D01*
X185550113Y-40484542D01*
X185461144Y-40555794D01*
X185432937Y-40583063D01*
X185357071Y-40670956D01*
X185296902Y-40765375D01*
X185252429Y-40866320D01*
X185223652Y-40973790D01*
X185210571Y-41087787D01*
X185209699Y-41127236D01*
X184918562Y-41127236D01*
X184918562Y-41091088D01*
X184923195Y-40986575D01*
X184937094Y-40886016D01*
X184960259Y-40789410D01*
X184992690Y-40696758D01*
X185034386Y-40608060D01*
X185085349Y-40523315D01*
X185145578Y-40442524D01*
X185215073Y-40365687D01*
X185291597Y-40295276D01*
X185371938Y-40234254D01*
X185456095Y-40182619D01*
X185566657Y-40131278D01*
X185683183Y-40094606D01*
X185780697Y-40075830D01*
X185882027Y-40066442D01*
X185934124Y-40065268D01*
X186225261Y-40065268D01*
X186329881Y-40070100D01*
G37*
G36*
X183948429Y-42117397D02*
G01*
X184049151Y-42105614D01*
X184148594Y-42065434D01*
X184228679Y-42004164D01*
X184236147Y-41996741D01*
X184299259Y-41916980D01*
X184338997Y-41827297D01*
X184355359Y-41727692D01*
X184355826Y-41706580D01*
X184355826Y-39742868D01*
X184388364Y-39649742D01*
X184398325Y-39638820D01*
X184489713Y-39596695D01*
X184500907Y-39596322D01*
X184593551Y-39628860D01*
X184604466Y-39638820D01*
X184646300Y-39727778D01*
X184646964Y-39742868D01*
X184646964Y-41706092D01*
X184639768Y-41812446D01*
X184618181Y-41912790D01*
X184582203Y-42007123D01*
X184531834Y-42095445D01*
X184467073Y-42177757D01*
X184442288Y-42203859D01*
X184362564Y-42273914D01*
X184276898Y-42329476D01*
X184185290Y-42370543D01*
X184087739Y-42397116D01*
X183984247Y-42409194D01*
X183948429Y-42410000D01*
X183854455Y-42375096D01*
X183846336Y-42367501D01*
X183803540Y-42278169D01*
X183802861Y-42262965D01*
X183836146Y-42170802D01*
X183846336Y-42159895D01*
X183937323Y-42117770D01*
X183948429Y-42117397D01*
G37*
G36*
X182584669Y-40070122D02*
G01*
X182687281Y-40084685D01*
X182785925Y-40108957D01*
X182880600Y-40142937D01*
X182971305Y-40186626D01*
X183058042Y-40240024D01*
X183140810Y-40303130D01*
X183219609Y-40375945D01*
X183291737Y-40455492D01*
X183354248Y-40539038D01*
X183407141Y-40626584D01*
X183450418Y-40718129D01*
X183484078Y-40813674D01*
X183508121Y-40913218D01*
X183522546Y-41016762D01*
X183527355Y-41124305D01*
X183527355Y-41350963D01*
X183522882Y-41458513D01*
X183509464Y-41562080D01*
X183487100Y-41661662D01*
X183455792Y-41757260D01*
X183415537Y-41848874D01*
X183366338Y-41936504D01*
X183308193Y-42020150D01*
X183241102Y-42099811D01*
X183162044Y-42172511D01*
X183078986Y-42235519D01*
X182991929Y-42288832D01*
X182900872Y-42332452D01*
X182805816Y-42366379D01*
X182706760Y-42390613D01*
X182603705Y-42405153D01*
X182496650Y-42410000D01*
X182270969Y-42410000D01*
X182161907Y-42404590D01*
X182056005Y-42388361D01*
X181953263Y-42361313D01*
X181853681Y-42323446D01*
X181757258Y-42274760D01*
X181725819Y-42256127D01*
X181635848Y-42194474D01*
X181553880Y-42124922D01*
X181479915Y-42047471D01*
X181413952Y-41962119D01*
X181355992Y-41868868D01*
X181338450Y-41836029D01*
X181325147Y-41739003D01*
X181329169Y-41724654D01*
X181391533Y-41645053D01*
X181401465Y-41639658D01*
X181501582Y-41626737D01*
X181512351Y-41629888D01*
X181591468Y-41691449D01*
X181596859Y-41701207D01*
X181651936Y-41792370D01*
X181717027Y-41873398D01*
X181792131Y-41944289D01*
X181877250Y-42005045D01*
X181969635Y-42054199D01*
X182066050Y-42089309D01*
X182166495Y-42110375D01*
X182270969Y-42117397D01*
X182496650Y-42117397D01*
X182607435Y-42110064D01*
X182712278Y-42088065D01*
X182811179Y-42051399D01*
X182904139Y-42000068D01*
X182991156Y-41934071D01*
X183018841Y-41908813D01*
X183092715Y-41827881D01*
X183151305Y-41740423D01*
X183194610Y-41646439D01*
X183222631Y-41545929D01*
X183235368Y-41438894D01*
X183236217Y-41401765D01*
X183133096Y-41431036D01*
X183017906Y-41455346D01*
X182917064Y-41471222D01*
X182808498Y-41483922D01*
X182692208Y-41493448D01*
X182568194Y-41499798D01*
X182470114Y-41502477D01*
X182367690Y-41503370D01*
X182264352Y-41502424D01*
X182165121Y-41499584D01*
X182046856Y-41493373D01*
X181935008Y-41484205D01*
X181829575Y-41472078D01*
X181730559Y-41456994D01*
X181655966Y-41442798D01*
X181550064Y-41417366D01*
X181437543Y-41379995D01*
X181347085Y-41336422D01*
X181267658Y-41275949D01*
X181211177Y-41181427D01*
X181204117Y-41128213D01*
X181205923Y-41087669D01*
X181495254Y-41087669D01*
X181593560Y-41129503D01*
X181698334Y-41157753D01*
X181797111Y-41176025D01*
X181909184Y-41190451D01*
X182034553Y-41201030D01*
X182137306Y-41206439D01*
X182247537Y-41209685D01*
X182365247Y-41210767D01*
X182483132Y-41209685D01*
X182593521Y-41206439D01*
X182696413Y-41201030D01*
X182821943Y-41190451D01*
X182934146Y-41176025D01*
X183033022Y-41157753D01*
X183137877Y-41129503D01*
X183236217Y-41087669D01*
X183228386Y-40976328D01*
X183204893Y-40871651D01*
X183165738Y-40773637D01*
X183110921Y-40682287D01*
X183040441Y-40597599D01*
X183013468Y-40570851D01*
X182926863Y-40498471D01*
X182834110Y-40441066D01*
X182735208Y-40398637D01*
X182630159Y-40371182D01*
X182518962Y-40358703D01*
X182480530Y-40357871D01*
X182250453Y-40357871D01*
X182137206Y-40365359D01*
X182030108Y-40387821D01*
X181929157Y-40425259D01*
X181834355Y-40477672D01*
X181745700Y-40545060D01*
X181717515Y-40570851D01*
X181641981Y-40653317D01*
X181582075Y-40742447D01*
X181537796Y-40838240D01*
X181509146Y-40940696D01*
X181496122Y-41049815D01*
X181495254Y-41087669D01*
X181205923Y-41087669D01*
X181208925Y-41020303D01*
X181223351Y-40916393D01*
X181247394Y-40816483D01*
X181281053Y-40720572D01*
X181324330Y-40628660D01*
X181377224Y-40540748D01*
X181439735Y-40456835D01*
X181511863Y-40376922D01*
X181590662Y-40303878D01*
X181673429Y-40240573D01*
X181760166Y-40187008D01*
X181850872Y-40143182D01*
X181945546Y-40109094D01*
X182044190Y-40084747D01*
X182146803Y-40070138D01*
X182253384Y-40065268D01*
X182478087Y-40065268D01*
X182584669Y-40070122D01*
G37*
G36*
X180561270Y-41941053D02*
G01*
X180661665Y-41962846D01*
X180727355Y-42009930D01*
X180782653Y-42095831D01*
X180795743Y-42175038D01*
X180774104Y-42275674D01*
X180727355Y-42341123D01*
X180640904Y-42396816D01*
X180561270Y-42410000D01*
X180460874Y-42388207D01*
X180395184Y-42341123D01*
X180339886Y-42254913D01*
X180326796Y-42175038D01*
X180348435Y-42075192D01*
X180395184Y-42009930D01*
X180481635Y-41954237D01*
X180561270Y-41941053D01*
G37*
G36*
X180233007Y-39986133D02*
G01*
X180233007Y-39945101D01*
X180247158Y-39842633D01*
X180289610Y-39752118D01*
X180333635Y-39698415D01*
X180415243Y-39636202D01*
X180508391Y-39602703D01*
X180576901Y-39596322D01*
X180677743Y-39610679D01*
X180767044Y-39653750D01*
X180820167Y-39698415D01*
X180881487Y-39781260D01*
X180914506Y-39875919D01*
X180920795Y-39945589D01*
X180920795Y-39986622D01*
X180920795Y-39989064D01*
X180920795Y-39991995D01*
X180920795Y-40031563D01*
X180920795Y-40034005D01*
X180920795Y-40036936D01*
X180920795Y-40077480D01*
X180920795Y-40080411D01*
X180920795Y-40082854D01*
X180920795Y-40122909D01*
X180920795Y-40125840D01*
X180920795Y-40128283D01*
X180920795Y-40170293D01*
X180920795Y-40171758D01*
X180920795Y-40174689D01*
X180889532Y-40214256D01*
X180889532Y-40221095D01*
X180889532Y-40261639D01*
X180889532Y-40264082D01*
X180889532Y-40265547D01*
X180889532Y-40307069D01*
X180889532Y-40311953D01*
X180889532Y-40352986D01*
X180889532Y-40355917D01*
X180889532Y-40357383D01*
X180889532Y-40399392D01*
X180889532Y-40403300D01*
X180889532Y-40410139D01*
X180889532Y-40415512D01*
X180889532Y-40428213D01*
X180889532Y-40432121D01*
X180889532Y-40436517D01*
X180889532Y-40443356D01*
X180889532Y-40450195D01*
X180884647Y-40464849D01*
X180872435Y-40480969D01*
X180875366Y-40487808D01*
X180880251Y-40495136D01*
X180872435Y-40511256D01*
X180858269Y-40527864D01*
X180858269Y-40534703D01*
X180858269Y-40541542D01*
X180858269Y-40557662D01*
X180858269Y-40572805D01*
X180858269Y-40579644D01*
X180858269Y-40587948D01*
X180858269Y-40604068D01*
X180858269Y-40618722D01*
X180858269Y-40625561D01*
X180858269Y-40632889D01*
X180858269Y-40649009D01*
X180858269Y-40664152D01*
X180858269Y-40670502D01*
X180858269Y-40678806D01*
X180858269Y-40695415D01*
X180858269Y-40710558D01*
X180858269Y-40717397D01*
X180858269Y-40725701D01*
X180858269Y-40740355D01*
X180858269Y-40755498D01*
X180858269Y-40763314D01*
X180858269Y-40770153D01*
X180858269Y-40786762D01*
X180858269Y-40803370D01*
X180858269Y-40810209D01*
X180858269Y-40817048D01*
X180858269Y-40831702D01*
X180858269Y-40848311D01*
X180858269Y-40855150D01*
X180858269Y-40861988D01*
X180849965Y-40878597D01*
X180840195Y-40894717D01*
X180840195Y-40901556D01*
X180840195Y-40908394D01*
X180840195Y-40925003D01*
X180840195Y-40939658D01*
X180840195Y-40946496D01*
X180840195Y-40953335D01*
X180834333Y-40969944D01*
X180827006Y-40986552D01*
X180827006Y-40992903D01*
X180827006Y-40999741D01*
X180827006Y-41016350D01*
X180827006Y-41031493D01*
X180827006Y-41038332D01*
X180827006Y-41046147D01*
X180827006Y-41062267D01*
X180827006Y-41077411D01*
X180827006Y-41084249D01*
X180827006Y-41091088D01*
X180827006Y-41107697D01*
X180827006Y-41122351D01*
X180827006Y-41130655D01*
X180827006Y-41137494D01*
X180827006Y-41154103D01*
X180827006Y-41170223D01*
X180827006Y-41177062D01*
X180827006Y-41183412D01*
X180827006Y-41198555D01*
X180827006Y-41215163D01*
X180827006Y-41222002D01*
X180827006Y-41228841D01*
X180827006Y-41244961D01*
X180827006Y-41261570D01*
X180827006Y-41268408D01*
X180827006Y-41275247D01*
X180827006Y-41290390D01*
X180827006Y-41306022D01*
X180827006Y-41313349D01*
X180827006Y-41320188D01*
X180819678Y-41336308D01*
X180806978Y-41352916D01*
X180811374Y-41359755D01*
X180815771Y-41366594D01*
X180795743Y-41397857D01*
X180795743Y-41404696D01*
X180795743Y-41413000D01*
X180795743Y-41429609D01*
X180795743Y-41443775D01*
X180795743Y-41451102D01*
X180795743Y-41457941D01*
X180774104Y-41557787D01*
X180727355Y-41623049D01*
X180640904Y-41677952D01*
X180561270Y-41690949D01*
X180460874Y-41669465D01*
X180395184Y-41623049D01*
X180339886Y-41537148D01*
X180326796Y-41457941D01*
X180326796Y-41451102D01*
X180326796Y-41444263D01*
X180326796Y-41429609D01*
X180326796Y-41413000D01*
X180326796Y-41404696D01*
X180326796Y-41397857D01*
X180326796Y-41366594D01*
X180326796Y-41359755D01*
X180326796Y-41352916D01*
X180326796Y-41336308D01*
X180326796Y-41320188D01*
X180326796Y-41313349D01*
X180326796Y-41306510D01*
X180326796Y-41290390D01*
X180326796Y-41275247D01*
X180326796Y-41268408D01*
X180326796Y-41261570D01*
X180326796Y-41244961D01*
X180326796Y-41228841D01*
X180326796Y-41222002D01*
X180326796Y-41215163D01*
X180326796Y-41198555D01*
X180326796Y-41183412D01*
X180326796Y-41176573D01*
X180326796Y-41170223D01*
X180326796Y-41154103D01*
X180326796Y-41137494D01*
X180326796Y-41130655D01*
X180326796Y-41122351D01*
X180312630Y-41107208D01*
X180295533Y-41091088D01*
X180295533Y-41084249D01*
X180295533Y-41077411D01*
X180295533Y-41062267D01*
X180295533Y-41045659D01*
X180295533Y-41037843D01*
X180295533Y-41031493D01*
X180295533Y-41016350D01*
X180295533Y-40999741D01*
X180295533Y-40992903D01*
X180295533Y-40986064D01*
X180295533Y-40969455D01*
X180295533Y-40953335D01*
X180295533Y-40946496D01*
X180295533Y-40939658D01*
X180295533Y-40924515D01*
X180295533Y-40907906D01*
X180295533Y-40901067D01*
X180295533Y-40894717D01*
X180295533Y-40878597D01*
X180295533Y-40861988D01*
X180295533Y-40855150D01*
X180295533Y-40848311D01*
X180295533Y-40831702D01*
X180295533Y-40816559D01*
X180295533Y-40809720D01*
X180295533Y-40802882D01*
X180281367Y-40786762D01*
X180273551Y-40770153D01*
X180278436Y-40763314D01*
X180286252Y-40755498D01*
X180273551Y-40740355D01*
X180264270Y-40725212D01*
X180264270Y-40716908D01*
X180264270Y-40710069D01*
X180264270Y-40695415D01*
X180264270Y-40678806D01*
X180264270Y-40670502D01*
X180265736Y-40663663D01*
X180264270Y-40648520D01*
X180264270Y-40632889D01*
X180264270Y-40625561D01*
X180264270Y-40618722D01*
X180264270Y-40603579D01*
X180264270Y-40587459D01*
X180264270Y-40579155D01*
X180264270Y-40572805D01*
X180264270Y-40557662D01*
X180264270Y-40541053D01*
X180264270Y-40534214D01*
X180264270Y-40527376D01*
X180264270Y-40511256D01*
X180264270Y-40495136D01*
X180264270Y-40487808D01*
X180264270Y-40480969D01*
X180264270Y-40464849D01*
X180264270Y-40450195D01*
X180264270Y-40443356D01*
X180264270Y-40436517D01*
X180264270Y-40432121D01*
X180264270Y-40428213D01*
X180264270Y-40415512D01*
X180264270Y-40410139D01*
X180264270Y-40403300D01*
X180264270Y-40399392D01*
X180264270Y-40357383D01*
X180264270Y-40355917D01*
X180264270Y-40352986D01*
X180264270Y-40312442D01*
X180264270Y-40307069D01*
X180233007Y-40265547D01*
X180233007Y-40264082D01*
X180233007Y-40261639D01*
X180233007Y-40220607D01*
X180233007Y-40213768D01*
X180233007Y-40174689D01*
X180233007Y-40171758D01*
X180233007Y-40170293D01*
X180233007Y-40127794D01*
X180233007Y-40122421D01*
X180233007Y-40082854D01*
X180233007Y-40080411D01*
X180233007Y-40077480D01*
X180233007Y-40036936D01*
X180233007Y-40034005D01*
X180233007Y-40031563D01*
X180233007Y-39991507D01*
X180233007Y-39988576D01*
X180233007Y-39986133D01*
G37*
D11*
G04 #@! TO.C,G\u002A\u002A\u002A*
G36*
X226769469Y-42027684D02*
G01*
X226769469Y-42758797D01*
X226038357Y-42758797D01*
X225307244Y-42758797D01*
X225307244Y-42027684D01*
X225307244Y-41296572D01*
X226038357Y-41296572D01*
X226769469Y-41296572D01*
X226769469Y-42027684D01*
G37*
G36*
X229316041Y-42027684D02*
G01*
X229316041Y-42758797D01*
X228584929Y-42758797D01*
X227853816Y-42758797D01*
X227853816Y-42027684D01*
X227853816Y-41296572D01*
X228584929Y-41296572D01*
X229316041Y-41296572D01*
X229316041Y-42027684D01*
G37*
G36*
X231846184Y-42027684D02*
G01*
X231846184Y-42758797D01*
X231115071Y-42758797D01*
X230383958Y-42758797D01*
X230383958Y-42027684D01*
X230383958Y-41296572D01*
X231115071Y-41296572D01*
X231846184Y-41296572D01*
X231846184Y-42027684D01*
G37*
G36*
X235822121Y-37484929D02*
G01*
X235822121Y-40212225D01*
X233103040Y-40212225D01*
X230383958Y-40212225D01*
X230383958Y-37484929D01*
X230383958Y-37304204D01*
X231451537Y-37304204D01*
X232191203Y-37304204D01*
X232930869Y-37304204D01*
X232926592Y-36568984D01*
X232922316Y-35833764D01*
X232191203Y-35833764D01*
X231460090Y-35833764D01*
X231455814Y-36568984D01*
X231451537Y-37304204D01*
X230383958Y-37304204D01*
X230383958Y-34757633D01*
X233103040Y-34757633D01*
X235822121Y-34757633D01*
X235822121Y-37304204D01*
X235822121Y-37484929D01*
G37*
G36*
X221429883Y-36277361D02*
G01*
X221429883Y-37797089D01*
X221684541Y-37797089D01*
X221939198Y-37797089D01*
X221939198Y-36277361D01*
X221939198Y-34757633D01*
X222473156Y-34757633D01*
X223007115Y-34757633D01*
X223007115Y-36277361D01*
X223007115Y-37797089D01*
X223261772Y-37797089D01*
X223516429Y-37797089D01*
X223516429Y-36277361D01*
X223516429Y-34757633D01*
X224050388Y-34757633D01*
X224584347Y-34757633D01*
X224584347Y-36277361D01*
X224584347Y-37797089D01*
X224839004Y-37797089D01*
X225093661Y-37797089D01*
X225093661Y-36277361D01*
X225093661Y-34757633D01*
X225627620Y-34757633D01*
X226161578Y-34757633D01*
X226161578Y-36277361D01*
X226161578Y-37797089D01*
X226416235Y-37797089D01*
X226670893Y-37797089D01*
X226670893Y-36277361D01*
X226670893Y-34757633D01*
X227204851Y-34757633D01*
X227738810Y-34757633D01*
X227738810Y-36277361D01*
X227738810Y-37797089D01*
X227985252Y-37797089D01*
X228231695Y-37797089D01*
X228231695Y-36277361D01*
X228231695Y-34757633D01*
X228773868Y-34757633D01*
X229316041Y-34757633D01*
X229316041Y-37473976D01*
X229315984Y-37750700D01*
X229315802Y-38038712D01*
X229315500Y-38316224D01*
X229315086Y-38581515D01*
X229314566Y-38832865D01*
X229313948Y-39068555D01*
X229313238Y-39286865D01*
X229312443Y-39486074D01*
X229311571Y-39664464D01*
X229310627Y-39820314D01*
X229309620Y-39951905D01*
X229308555Y-40057515D01*
X229307441Y-40135427D01*
X229306283Y-40183919D01*
X229305088Y-40201272D01*
X229300290Y-40201861D01*
X229266908Y-40202995D01*
X229203164Y-40204093D01*
X229110714Y-40205148D01*
X228991212Y-40206154D01*
X228846314Y-40207105D01*
X228677677Y-40207994D01*
X228486954Y-40208816D01*
X228275803Y-40209565D01*
X228045877Y-40210234D01*
X227798834Y-40210816D01*
X227536328Y-40211307D01*
X227260014Y-40211699D01*
X226971550Y-40211987D01*
X226672589Y-40212165D01*
X226364787Y-40212225D01*
X223435439Y-40212225D01*
X217343625Y-37499818D01*
X217173609Y-37424116D01*
X216750327Y-37235633D01*
X216335003Y-37050677D01*
X215928637Y-36869695D01*
X215532233Y-36693133D01*
X215146795Y-36521439D01*
X214773324Y-36355060D01*
X214412824Y-36194442D01*
X214066297Y-36040034D01*
X213734747Y-35892282D01*
X213419176Y-35751634D01*
X213120587Y-35618535D01*
X212839983Y-35493434D01*
X212578367Y-35376778D01*
X212336742Y-35269013D01*
X212116110Y-35170587D01*
X211917475Y-35081947D01*
X211741839Y-35003539D01*
X211590205Y-34935812D01*
X211463576Y-34879211D01*
X211362955Y-34834185D01*
X211289344Y-34801180D01*
X211243747Y-34780643D01*
X211227167Y-34773021D01*
X211228453Y-34772538D01*
X211253919Y-34771219D01*
X211310668Y-34769940D01*
X211397541Y-34768705D01*
X211513380Y-34767517D01*
X211657026Y-34766380D01*
X211827319Y-34765300D01*
X212023102Y-34764279D01*
X212243215Y-34763321D01*
X212486500Y-34762432D01*
X212751798Y-34761614D01*
X213037950Y-34760872D01*
X213343797Y-34760209D01*
X213668181Y-34759630D01*
X214009942Y-34759139D01*
X214367922Y-34758740D01*
X214740962Y-34758436D01*
X215127903Y-34758232D01*
X215527587Y-34758132D01*
X219852652Y-34757633D01*
X219852652Y-35907697D01*
X219852652Y-37057762D01*
X220107309Y-37057762D01*
X220361966Y-37057762D01*
X220361966Y-35907697D01*
X220361966Y-34757633D01*
X220895925Y-34757633D01*
X221429883Y-34757633D01*
X221429883Y-36277361D01*
G37*
G04 #@! TD*
D12*
G04 #@! TO.C,MX50*
X223520000Y-119062500D03*
D13*
X228600000Y-119062500D03*
D12*
X233680000Y-119062500D03*
D14*
X224790000Y-116522500D03*
X231140000Y-113982500D03*
G04 #@! TD*
D15*
G04 #@! TO.C,H3*
X145800000Y-113750000D03*
G04 #@! TD*
D12*
G04 #@! TO.C,MX27*
X171132500Y-80962500D03*
D13*
X176212500Y-80962500D03*
D12*
X181292500Y-80962500D03*
D14*
X172402500Y-78422500D03*
X178752500Y-75882500D03*
G04 #@! TD*
D12*
G04 #@! TO.C,MX45*
X56832500Y-119062500D03*
D13*
X61912500Y-119062500D03*
D12*
X66992500Y-119062500D03*
D14*
X58102500Y-116522500D03*
X64452500Y-113982500D03*
G04 #@! TD*
D12*
G04 #@! TO.C,MX39*
X180657500Y-100012500D03*
D13*
X185737500Y-100012500D03*
D12*
X190817500Y-100012500D03*
D14*
X181927500Y-97472500D03*
X188277500Y-94932500D03*
G04 #@! TD*
D12*
G04 #@! TO.C,MX9*
X71120000Y-61912500D03*
D13*
X76200000Y-61912500D03*
D12*
X81280000Y-61912500D03*
D14*
X72390000Y-59372500D03*
X78740000Y-56832500D03*
G04 #@! TD*
D12*
G04 #@! TO.C,MX34*
X85407500Y-100012500D03*
D13*
X90487500Y-100012500D03*
D12*
X95567500Y-100012500D03*
D14*
X86677500Y-97472500D03*
X93027500Y-94932500D03*
G04 #@! TD*
D12*
G04 #@! TO.C,MX35*
X104457500Y-100012500D03*
D13*
X109537500Y-100012500D03*
D12*
X114617500Y-100012500D03*
D14*
X105727500Y-97472500D03*
X112077500Y-94932500D03*
G04 #@! TD*
D12*
G04 #@! TO.C,MX20*
X35400000Y-80960000D03*
D13*
X40480000Y-80960000D03*
D12*
X45560000Y-80960000D03*
D14*
X36670000Y-78420000D03*
X43020000Y-75880000D03*
G04 #@! TD*
D12*
G04 #@! TO.C,MX28*
X190182500Y-80962500D03*
D13*
X195262500Y-80962500D03*
D12*
X200342500Y-80962500D03*
D14*
X191452500Y-78422500D03*
X197802500Y-75882500D03*
G04 #@! TD*
D12*
G04 #@! TO.C,MX30*
X228282500Y-80962500D03*
D13*
X233362500Y-80962500D03*
D12*
X238442500Y-80962500D03*
D14*
X229552500Y-78422500D03*
X235902500Y-75882500D03*
G04 #@! TD*
D12*
G04 #@! TO.C,MX33*
X66357500Y-100012500D03*
D13*
X71437500Y-100012500D03*
D12*
X76517500Y-100012500D03*
D14*
X67627500Y-97472500D03*
X73977500Y-94932500D03*
G04 #@! TD*
D12*
G04 #@! TO.C,MX6*
X133032500Y-38100000D03*
D13*
X138112500Y-38100000D03*
D12*
X143192500Y-38100000D03*
D14*
X134302500Y-35560000D03*
X140652500Y-33020000D03*
G04 #@! TD*
D12*
G04 #@! TO.C,MX14*
X166370000Y-61912500D03*
D13*
X171450000Y-61912500D03*
D12*
X176530000Y-61912500D03*
D14*
X167640000Y-59372500D03*
X173990000Y-56832500D03*
G04 #@! TD*
D12*
G04 #@! TO.C,MX3*
X75882500Y-38100000D03*
D13*
X80962500Y-38100000D03*
D12*
X86042500Y-38100000D03*
D14*
X77152500Y-35560000D03*
X83502500Y-33020000D03*
G04 #@! TD*
D12*
G04 #@! TO.C,MX22*
X75882500Y-80962500D03*
D13*
X80962500Y-80962500D03*
D12*
X86042500Y-80962500D03*
D14*
X77152500Y-78422500D03*
X83502500Y-75882500D03*
G04 #@! TD*
D12*
G04 #@! TO.C,MX40*
X199707500Y-100012500D03*
D13*
X204787500Y-100012500D03*
D12*
X209867500Y-100012500D03*
D14*
X200977500Y-97472500D03*
X207327500Y-94932500D03*
G04 #@! TD*
D12*
G04 #@! TO.C,MX41*
X218757500Y-100012500D03*
D13*
X223837500Y-100012500D03*
D12*
X228917500Y-100012500D03*
D14*
X220027500Y-97472500D03*
X226377500Y-94932500D03*
G04 #@! TD*
D12*
G04 #@! TO.C,MX26*
X152082500Y-80962500D03*
D13*
X157162500Y-80962500D03*
D12*
X162242500Y-80962500D03*
D14*
X153352500Y-78422500D03*
X159702500Y-75882500D03*
G04 #@! TD*
D12*
G04 #@! TO.C,MX8*
X52070000Y-61912500D03*
D13*
X57150000Y-61912500D03*
D12*
X62230000Y-61912500D03*
D14*
X53340000Y-59372500D03*
X59690000Y-56832500D03*
G04 #@! TD*
D13*
G04 #@! TO.C,MX48*
X157132000Y-115567500D03*
D16*
X157132000Y-130807500D03*
D12*
X163990000Y-123822500D03*
D13*
X169070000Y-123822500D03*
D12*
X174150000Y-123822500D03*
D13*
X181008000Y-115567500D03*
D16*
X181008000Y-130807500D03*
D14*
X165260000Y-121282500D03*
X171610000Y-118742500D03*
G04 #@! TD*
D12*
G04 #@! TO.C,MX4*
X94932500Y-38100000D03*
D13*
X100012500Y-38100000D03*
D12*
X105092500Y-38100000D03*
D14*
X96202500Y-35560000D03*
X102552500Y-33020000D03*
G04 #@! TD*
D15*
G04 #@! TO.C,H5*
X246800000Y-76300000D03*
G04 #@! TD*
G04 #@! TO.C,H4*
X193250000Y-113750000D03*
G04 #@! TD*
D12*
G04 #@! TO.C,MX38*
X161607500Y-100012500D03*
D13*
X166687500Y-100012500D03*
D12*
X171767500Y-100012500D03*
D14*
X162877500Y-97472500D03*
X169227500Y-94932500D03*
G04 #@! TD*
D12*
G04 #@! TO.C,MX23*
X94932500Y-80962500D03*
D13*
X100012500Y-80962500D03*
D12*
X105092500Y-80962500D03*
D14*
X96202500Y-78422500D03*
X102552500Y-75882500D03*
G04 #@! TD*
D12*
G04 #@! TO.C,MX52*
X261620000Y-119062500D03*
D13*
X266700000Y-119062500D03*
D12*
X271780000Y-119062500D03*
D14*
X262890000Y-116522500D03*
X269240000Y-113982500D03*
G04 #@! TD*
D12*
G04 #@! TO.C,MX17*
X223520000Y-61912500D03*
D13*
X228600000Y-61912500D03*
D12*
X233680000Y-61912500D03*
D14*
X224790000Y-59372500D03*
X231140000Y-56832500D03*
G04 #@! TD*
D12*
G04 #@! TO.C,MX24*
X113982500Y-80962500D03*
D13*
X119062500Y-80962500D03*
D12*
X124142500Y-80962500D03*
D14*
X115252500Y-78422500D03*
X121602500Y-75882500D03*
G04 #@! TD*
D12*
G04 #@! TO.C,MX10*
X90170000Y-61912500D03*
D13*
X95250000Y-61912500D03*
D12*
X100330000Y-61912500D03*
D14*
X91440000Y-59372500D03*
X97790000Y-56832500D03*
G04 #@! TD*
D15*
G04 #@! TO.C,H1*
X46200000Y-49000000D03*
G04 #@! TD*
D12*
G04 #@! TO.C,MX19*
X261620000Y-61912500D03*
D13*
X266700000Y-61912500D03*
D12*
X271780000Y-61912500D03*
D14*
X262890000Y-59372500D03*
X269240000Y-56832500D03*
G04 #@! TD*
D12*
G04 #@! TO.C,MX7*
X33020000Y-61912500D03*
D13*
X38100000Y-61912500D03*
D12*
X43180000Y-61912500D03*
D14*
X34290000Y-59372500D03*
X40640000Y-56832500D03*
G04 #@! TD*
D12*
G04 #@! TO.C,MX16*
X204470000Y-61912500D03*
D13*
X209550000Y-61912500D03*
D12*
X214630000Y-61912500D03*
D14*
X205740000Y-59372500D03*
X212090000Y-56832500D03*
G04 #@! TD*
D12*
G04 #@! TO.C,MX29*
X209232500Y-80962500D03*
D13*
X214312500Y-80962500D03*
D12*
X219392500Y-80962500D03*
D14*
X210502500Y-78422500D03*
X216852500Y-75882500D03*
G04 #@! TD*
D12*
G04 #@! TO.C,MX46*
X78263750Y-119062500D03*
D13*
X83343750Y-119062500D03*
D12*
X88423750Y-119062500D03*
D14*
X79533750Y-116522500D03*
X85883750Y-113982500D03*
G04 #@! TD*
D12*
G04 #@! TO.C,MX11*
X109220000Y-61912500D03*
D13*
X114300000Y-61912500D03*
D12*
X119380000Y-61912500D03*
D14*
X110490000Y-59372500D03*
X116840000Y-56832500D03*
G04 #@! TD*
D12*
G04 #@! TO.C,MX31*
X254480000Y-80960000D03*
D13*
X259560000Y-80960000D03*
D12*
X264640000Y-80960000D03*
D14*
X255750000Y-78420000D03*
X262100000Y-75880000D03*
G04 #@! TD*
D12*
G04 #@! TO.C,MX42*
X240188750Y-100012500D03*
D13*
X245268750Y-100012500D03*
D12*
X250348750Y-100012500D03*
D14*
X241458750Y-97472500D03*
X247808750Y-94932500D03*
G04 #@! TD*
D12*
G04 #@! TO.C,MX37*
X142557500Y-100012500D03*
D13*
X147637500Y-100012500D03*
D12*
X152717500Y-100012500D03*
D14*
X143827500Y-97472500D03*
X150177500Y-94932500D03*
G04 #@! TD*
D12*
G04 #@! TO.C,MX25*
X133032500Y-80962500D03*
D13*
X138112500Y-80962500D03*
D12*
X143192500Y-80962500D03*
D14*
X134302500Y-78422500D03*
X140652500Y-75882500D03*
G04 #@! TD*
D12*
G04 #@! TO.C,MX36*
X123507500Y-100012500D03*
D13*
X128587500Y-100012500D03*
D12*
X133667500Y-100012500D03*
D14*
X124777500Y-97472500D03*
X131127500Y-94932500D03*
G04 #@! TD*
D12*
G04 #@! TO.C,MX18*
X242570000Y-61912500D03*
D13*
X247650000Y-61912500D03*
D12*
X252730000Y-61912500D03*
D14*
X243840000Y-59372500D03*
X250190000Y-56832500D03*
G04 #@! TD*
D12*
G04 #@! TO.C,MX43*
X261620000Y-100012500D03*
D13*
X266700000Y-100012500D03*
D12*
X271780000Y-100012500D03*
D14*
X262890000Y-97472500D03*
X269240000Y-94932500D03*
G04 #@! TD*
D12*
G04 #@! TO.C,MX1*
X33020000Y-38100000D03*
D13*
X38100000Y-38100000D03*
D12*
X43180000Y-38100000D03*
D14*
X34290000Y-35560000D03*
X40640000Y-33020000D03*
G04 #@! TD*
D17*
G04 #@! TO.C,U3*
X245380000Y-45250000D03*
X247920000Y-45250000D03*
X255540000Y-45250000D03*
X258080000Y-45250000D03*
X253000000Y-30010000D03*
X260620000Y-45250000D03*
X263160000Y-45250000D03*
X245380000Y-30010000D03*
X265700000Y-45250000D03*
X268240000Y-45250000D03*
X270780000Y-45250000D03*
X273320000Y-45250000D03*
X242840000Y-45200000D03*
X242840000Y-30010000D03*
X268240000Y-30010000D03*
X273320000Y-30010000D03*
X265700000Y-30010000D03*
X270780000Y-30010000D03*
X263160000Y-30010000D03*
X260620000Y-30010000D03*
X258080000Y-30010000D03*
X255540000Y-30010000D03*
X250460000Y-45250000D03*
X253000000Y-45250000D03*
X247920000Y-30010000D03*
X250460000Y-30010000D03*
G04 #@! TD*
D12*
G04 #@! TO.C,MX12*
X128270000Y-61912500D03*
D13*
X133350000Y-61912500D03*
D12*
X138430000Y-61912500D03*
D14*
X129540000Y-59372500D03*
X135890000Y-56832500D03*
G04 #@! TD*
D12*
G04 #@! TO.C,MX15*
X185420000Y-61912500D03*
D13*
X190500000Y-61912500D03*
D12*
X195580000Y-61912500D03*
D14*
X186690000Y-59372500D03*
X193040000Y-56832500D03*
G04 #@! TD*
D15*
G04 #@! TO.C,H6*
X154600000Y-42600000D03*
G04 #@! TD*
D12*
G04 #@! TO.C,MX49*
X204470000Y-119062500D03*
D13*
X209550000Y-119062500D03*
D12*
X214630000Y-119062500D03*
D14*
X205740000Y-116522500D03*
X212090000Y-113982500D03*
G04 #@! TD*
D13*
G04 #@! TO.C,MX47*
X109512000Y-115570000D03*
D16*
X109512000Y-130810000D03*
D12*
X116370000Y-123825000D03*
D13*
X121450000Y-123825000D03*
D12*
X126530000Y-123825000D03*
D13*
X133388000Y-115570000D03*
D16*
X133388000Y-130810000D03*
D14*
X117640000Y-121285000D03*
X123990000Y-118745000D03*
G04 #@! TD*
D12*
G04 #@! TO.C,MX5*
X113982500Y-38100000D03*
D13*
X119062500Y-38100000D03*
D12*
X124142500Y-38100000D03*
D14*
X115252500Y-35560000D03*
X121602500Y-33020000D03*
G04 #@! TD*
D12*
G04 #@! TO.C,MX13*
X147320000Y-61912500D03*
D13*
X152400000Y-61912500D03*
D12*
X157480000Y-61912500D03*
D14*
X148590000Y-59372500D03*
X154940000Y-56832500D03*
G04 #@! TD*
D12*
G04 #@! TO.C,MX2*
X56832500Y-38100000D03*
D13*
X61912500Y-38100000D03*
D12*
X66992500Y-38100000D03*
D14*
X58102500Y-35560000D03*
X64452500Y-33020000D03*
G04 #@! TD*
D12*
G04 #@! TO.C,MX21*
X56832500Y-80962500D03*
D13*
X61912500Y-80962500D03*
D12*
X66992500Y-80962500D03*
D14*
X58102500Y-78422500D03*
X64452500Y-75882500D03*
G04 #@! TD*
D12*
G04 #@! TO.C,MX51*
X242570000Y-119062500D03*
D13*
X247650000Y-119062500D03*
D12*
X252730000Y-119062500D03*
D14*
X243840000Y-116522500D03*
X250190000Y-113982500D03*
G04 #@! TD*
D12*
G04 #@! TO.C,MX32*
X40163750Y-100012500D03*
D13*
X45243750Y-100012500D03*
D12*
X50323750Y-100012500D03*
D14*
X41433750Y-97472500D03*
X47783750Y-94932500D03*
G04 #@! TD*
D12*
G04 #@! TO.C,MX44*
X35401250Y-119062500D03*
D13*
X40481250Y-119062500D03*
D12*
X45561250Y-119062500D03*
D14*
X36671250Y-116522500D03*
X43021250Y-113982500D03*
G04 #@! TD*
D15*
G04 #@! TO.C,H2*
X59000000Y-96750000D03*
G04 #@! TD*
D18*
G04 #@! TO.C,D46*
X91343750Y-121712500D03*
X91343750Y-118412500D03*
G04 #@! TD*
G04 #@! TO.C,D40*
X212787500Y-102662500D03*
X212787500Y-99362500D03*
G04 #@! TD*
G04 #@! TO.C,D1*
X46100000Y-40750000D03*
X46100000Y-37450000D03*
G04 #@! TD*
G04 #@! TO.C,D36*
X136587500Y-102662500D03*
X136587500Y-99362500D03*
G04 #@! TD*
G04 #@! TO.C,D49*
X217550000Y-121712500D03*
X217550000Y-118412500D03*
G04 #@! TD*
G04 #@! TO.C,D13*
X160400000Y-64562500D03*
X160400000Y-61262500D03*
G04 #@! TD*
G04 #@! TO.C,D20*
X48480000Y-83610000D03*
X48480000Y-80310000D03*
G04 #@! TD*
G04 #@! TO.C,D10*
X103250000Y-64562500D03*
X103250000Y-61262500D03*
G04 #@! TD*
G04 #@! TO.C,D16*
X217550000Y-64562500D03*
X217550000Y-61262500D03*
G04 #@! TD*
G04 #@! TO.C,D35*
X117537500Y-102662500D03*
X117537500Y-99362500D03*
G04 #@! TD*
G04 #@! TO.C,D9*
X84200000Y-64562500D03*
X84200000Y-61262500D03*
G04 #@! TD*
G04 #@! TO.C,D17*
X236600000Y-64562500D03*
X236600000Y-61262500D03*
G04 #@! TD*
G04 #@! TO.C,D5*
X127062500Y-40750000D03*
X127062500Y-37450000D03*
G04 #@! TD*
G04 #@! TO.C,D15*
X198500000Y-64562500D03*
X198500000Y-61262500D03*
G04 #@! TD*
G04 #@! TO.C,D18*
X255650000Y-64562500D03*
X255650000Y-61262500D03*
G04 #@! TD*
G04 #@! TO.C,D8*
X65150000Y-64562500D03*
X65150000Y-61262500D03*
G04 #@! TD*
G04 #@! TO.C,D3*
X88962500Y-40750000D03*
X88962500Y-37450000D03*
G04 #@! TD*
G04 #@! TO.C,D39*
X193737500Y-102662500D03*
X193737500Y-99362500D03*
G04 #@! TD*
G04 #@! TO.C,D34*
X98487500Y-102662500D03*
X98487500Y-99362500D03*
G04 #@! TD*
G04 #@! TO.C,D41*
X231837500Y-102662500D03*
X231837500Y-99362500D03*
G04 #@! TD*
G04 #@! TO.C,D42*
X253268750Y-102662500D03*
X253268750Y-99362500D03*
G04 #@! TD*
G04 #@! TO.C,D51*
X255650000Y-121712500D03*
X255650000Y-118412500D03*
G04 #@! TD*
G04 #@! TO.C,D50*
X236600000Y-121712500D03*
X236600000Y-118412500D03*
G04 #@! TD*
G04 #@! TO.C,D38*
X174687500Y-102662500D03*
X174687500Y-99362500D03*
G04 #@! TD*
G04 #@! TO.C,D7*
X46100000Y-64562500D03*
X46100000Y-61262500D03*
G04 #@! TD*
G04 #@! TO.C,D21*
X69912500Y-83612500D03*
X69912500Y-80312500D03*
G04 #@! TD*
G04 #@! TO.C,D29*
X222312500Y-83612500D03*
X222312500Y-80312500D03*
G04 #@! TD*
G04 #@! TO.C,D31*
X267710000Y-83597500D03*
X267710000Y-80297500D03*
G04 #@! TD*
G04 #@! TO.C,D37*
X155637500Y-102662500D03*
X155637500Y-99362500D03*
G04 #@! TD*
G04 #@! TO.C,D22*
X88962500Y-83612500D03*
X88962500Y-80312500D03*
G04 #@! TD*
G04 #@! TO.C,D32*
X53243750Y-102662500D03*
X53243750Y-99362500D03*
G04 #@! TD*
G04 #@! TO.C,D23*
X108012500Y-83612500D03*
X108012500Y-80312500D03*
G04 #@! TD*
G04 #@! TO.C,D52*
X274700000Y-121712500D03*
X274700000Y-118412500D03*
G04 #@! TD*
G04 #@! TO.C,D33*
X79437500Y-102662500D03*
X79437500Y-99362500D03*
G04 #@! TD*
G04 #@! TO.C,D2*
X69912500Y-40750000D03*
X69912500Y-37450000D03*
G04 #@! TD*
G04 #@! TO.C,D48*
X177250000Y-126650000D03*
X177250000Y-123350000D03*
G04 #@! TD*
G04 #@! TO.C,D14*
X179450000Y-64562500D03*
X179450000Y-61262500D03*
G04 #@! TD*
G04 #@! TO.C,D44*
X48481250Y-121712500D03*
X48481250Y-118412500D03*
G04 #@! TD*
G04 #@! TO.C,D25*
X146112500Y-83612500D03*
X146112500Y-80312500D03*
G04 #@! TD*
G04 #@! TO.C,D30*
X241362500Y-83612500D03*
X241362500Y-80312500D03*
G04 #@! TD*
G04 #@! TO.C,D26*
X165162500Y-83612500D03*
X165162500Y-80312500D03*
G04 #@! TD*
G04 #@! TO.C,D43*
X274700000Y-102662500D03*
X274700000Y-99362500D03*
G04 #@! TD*
G04 #@! TO.C,D45*
X69912500Y-121712500D03*
X69912500Y-118412500D03*
G04 #@! TD*
G04 #@! TO.C,D47*
X129500000Y-126650000D03*
X129500000Y-123350000D03*
G04 #@! TD*
G04 #@! TO.C,D27*
X184212500Y-83612500D03*
X184212500Y-80312500D03*
G04 #@! TD*
G04 #@! TO.C,D4*
X108012500Y-40750000D03*
X108012500Y-37450000D03*
G04 #@! TD*
G04 #@! TO.C,D24*
X127062500Y-83612500D03*
X127062500Y-80312500D03*
G04 #@! TD*
G04 #@! TO.C,D28*
X203262500Y-83612500D03*
X203262500Y-80312500D03*
G04 #@! TD*
G04 #@! TO.C,D12*
X141350000Y-64562500D03*
X141350000Y-61262500D03*
G04 #@! TD*
G04 #@! TO.C,D11*
X122300000Y-64562500D03*
X122300000Y-61262500D03*
G04 #@! TD*
G04 #@! TO.C,D6*
X146112500Y-40750000D03*
X146112500Y-37450000D03*
G04 #@! TD*
G04 #@! TO.C,D19*
X274700000Y-64562500D03*
X274700000Y-61262500D03*
G04 #@! TD*
M02*
