M48
; DRILL file {KiCad 8.0.4} date 2025-01-19T23:06:20-0500
; FORMAT={-:-/ absolute / inch / decimal}
; #@! TF.CreationDate,2025-01-19T23:06:20-05:00
; #@! TF.GenerationSoftware,Kicad,Pcbnew,8.0.4
; #@! TF.FileFunction,NonPlated,1,2,NPTH
FMAT,2
INCH
; #@! TA.AperFunction,NonPlated,NPTH,ComponentDrill
T1C0.0689
; #@! TA.AperFunction,NonPlated,NPTH,ComponentDrill
T2C0.1200
; #@! TA.AperFunction,NonPlated,NPTH,ComponentDrill
T3C0.1570
%
G90
G05
T1
X1.3Y-1.5
X1.3Y-2.4375
X1.3938Y-4.6875
X1.4875Y-3.1875
X1.5813Y-3.9375
X1.7Y-1.5
X1.7Y-2.4375
X1.7937Y-4.6875
X1.8875Y-3.1875
X1.9812Y-3.9375
X2.05Y-2.4375
X2.2375Y-1.5
X2.2375Y-4.6875
X2.425Y-3.1875
X2.45Y-2.4375
X2.6125Y-3.9375
X2.6375Y-1.5
X2.6375Y-4.6875
X2.8Y-2.4375
X2.825Y-3.1875
X2.9875Y-1.5
X3.0125Y-3.9375
X3.0812Y-4.6875
X3.175Y-3.1875
X3.2Y-2.4375
X3.3625Y-3.9375
X3.3875Y-1.5
X3.4812Y-4.6875
X3.55Y-2.4375
X3.575Y-3.1875
X3.7375Y-1.5
X3.7625Y-3.9375
X3.925Y-3.1875
X3.95Y-2.4375
X4.1125Y-3.9375
X4.1375Y-1.5
X4.3Y-2.4375
X4.325Y-3.1875
X4.4875Y-1.5
X4.4875Y-4.7875
X4.5125Y-3.9375
X4.675Y-3.1875
X4.7Y-2.4375
X4.8625Y-3.9375
X4.8875Y-1.5
X4.8875Y-4.7875
X5.05Y-2.4375
X5.075Y-3.1875
X5.2375Y-1.5
X5.2625Y-3.9375
X5.425Y-3.1875
X5.45Y-2.4375
X5.6125Y-3.9375
X5.6375Y-1.5
X5.8Y-2.4375
X5.825Y-3.1875
X6.0125Y-3.9375
X6.175Y-3.1875
X6.2Y-2.4375
X6.3625Y-3.9375
X6.55Y-2.4375
X6.55Y-4.7875
X6.575Y-3.1875
X6.7625Y-3.9375
X6.925Y-3.1875
X6.95Y-2.4375
X6.95Y-4.7875
X7.1125Y-3.9375
X7.3Y-2.4375
X7.325Y-3.1875
X7.5125Y-3.9375
X7.675Y-3.1875
X7.7Y-2.4375
X7.8625Y-3.9375
X8.05Y-2.4375
X8.05Y-4.6875
X8.075Y-3.1875
X8.2625Y-3.9375
X8.425Y-3.1875
X8.45Y-2.4375
X8.45Y-4.6875
X8.6125Y-3.9375
X8.8Y-2.4375
X8.8Y-4.6875
X8.825Y-3.1875
X9.0125Y-3.9375
X9.175Y-3.1875
X9.2Y-2.4375
X9.2Y-4.6875
X9.4562Y-3.9375
X9.55Y-2.4375
X9.55Y-4.6875
X9.575Y-3.1875
X9.8562Y-3.9375
X9.95Y-2.4375
X9.95Y-4.6875
X10.1125Y-3.1875
X10.3Y-2.4375
X10.3Y-3.9375
X10.3Y-4.6875
X10.5125Y-3.1875
X10.7Y-2.4375
X10.7Y-3.9375
X10.7Y-4.6875
T2
X4.2175Y-5.0625
X5.1575Y-5.0625
X6.28Y-5.0625
X7.22Y-5.0625
T3
X1.5Y-1.5
X1.5Y-2.4375
X1.5938Y-4.6875
X1.6875Y-3.1875
X1.7812Y-3.9375
X2.25Y-2.4375
X2.4375Y-1.5
X2.4375Y-4.6875
X2.625Y-3.1875
X2.8125Y-3.9375
X3.0Y-2.4375
X3.1875Y-1.5
X3.2812Y-4.6875
X3.375Y-3.1875
X3.5625Y-3.9375
X3.75Y-2.4375
X3.9375Y-1.5
X4.125Y-3.1875
X4.2175Y-4.4625
X4.3125Y-3.9375
X4.5Y-2.4375
X4.6875Y-1.5
X4.6875Y-4.7875
X4.875Y-3.1875
X5.0625Y-3.9375
X5.1575Y-4.4625
X5.25Y-2.4375
X5.4375Y-1.5
X5.625Y-3.1875
X5.8125Y-3.9375
X6.0Y-2.4375
X6.28Y-4.4625
X6.375Y-3.1875
X6.5625Y-3.9375
X6.75Y-2.4375
X6.75Y-4.7875
X7.125Y-3.1875
X7.22Y-4.4625
X7.3125Y-3.9375
X7.5Y-2.4375
X7.875Y-3.1875
X8.0625Y-3.9375
X8.25Y-2.4375
X8.25Y-4.6875
X8.625Y-3.1875
X8.8125Y-3.9375
X9.0Y-2.4375
X9.0Y-4.6875
X9.375Y-3.1875
X9.6562Y-3.9375
X9.75Y-2.4375
X9.75Y-4.6875
X10.3125Y-3.1875
X10.5Y-2.4375
X10.5Y-3.9375
X10.5Y-4.6875
M30
