M48
; DRILL file {KiCad 8.0.4} date 2025-01-19T23:06:20-0500
; FORMAT={-:-/ absolute / inch / decimal}
; #@! TF.CreationDate,2025-01-19T23:06:20-05:00
; #@! TF.GenerationSoftware,Kicad,Pcbnew,8.0.4
; #@! TF.FileFunction,Plated,1,2,PTH
FMAT,2
INCH
; #@! TA.AperFunction,Plated,PTH,ViaDrill
T1C0.0138
; #@! TA.AperFunction,Plated,PTH,ComponentDrill
T2C0.0315
; #@! TA.AperFunction,Plated,PTH,ComponentDrill
T3C0.0579
; #@! TA.AperFunction,Plated,PTH,ComponentDrill
T4C0.0866
%
G90
G05
T1
X1.2992Y-1.874
X1.4016Y-1.874
X1.9213Y-1.5512
X1.9213Y-1.6614
X1.9213Y-2.4882
X1.9213Y-2.5984
X2.063Y-4.7402
X2.063Y-4.8425
X2.1339Y-3.2362
X2.1339Y-3.3465
X2.2283Y-1.874
X2.2283Y-3.9843
X2.2283Y-4.0945
X2.3465Y-1.874
X2.9843Y-1.874
X3.0945Y-1.874
X3.7323Y-1.874
X3.8425Y-1.874
X4.4803Y-1.874
X4.5906Y-1.874
X5.2283Y-1.874
X5.3465Y-1.874
X5.685Y-1.874
X5.7402Y-1.6772
X5.7717Y-2.5645
X5.7953Y-1.874
X5.9697Y-1.3871
X6.063Y-2.0472
X6.1417Y-2.1181
X6.4567Y-1.6063
X6.5433Y-1.4173
X6.811Y-2.0472
X6.8898Y-2.1181
X7.063Y-1.6693
X7.1417Y-1.5984
X7.5669Y-2.0472
X7.6378Y-2.1181
X8.315Y-2.0472
X8.3858Y-2.1181
X9.063Y-2.0472
X9.1339Y-2.1181
X9.3701Y-1.2126
X9.3701Y-1.4094
X9.3701Y-1.7795
X9.3701Y-2.0
X10.2283Y-2.2835
X10.2283Y-2.3937
T2
X9.689Y-1.3882
X9.689Y-1.9882
X9.789Y-1.3882
X9.789Y-1.9882
X9.889Y-1.3882
X9.889Y-1.9882
X9.989Y-1.3882
X9.989Y-1.9882
X10.089Y-1.3882
X10.089Y-1.9882
X10.189Y-1.3882
X10.189Y-1.9882
X10.289Y-1.3882
X10.289Y-1.9882
X10.389Y-1.3882
X10.389Y-1.9882
X10.489Y-1.3882
X10.489Y-1.9882
X10.589Y-1.3882
X10.589Y-1.9882
X10.689Y-1.3882
X10.689Y-1.9882
X10.789Y-1.3882
X10.789Y-1.9882
T3
X1.35Y-1.4
X1.35Y-2.3375
X1.4016Y-1.3425
X1.4016Y-2.28
X1.4437Y-4.5875
X1.4953Y-4.53
X1.5375Y-3.0875
X1.5891Y-3.03
X1.5984Y-1.3228
X1.5984Y-2.2603
X1.6Y-1.3
X1.6Y-2.2375
X1.6312Y-3.8375
X1.6828Y-3.78
X1.6922Y-4.5103
X1.6937Y-4.4875
X1.7859Y-3.0103
X1.7875Y-2.9875
X1.8797Y-3.7603
X1.8812Y-3.7375
X2.1Y-2.3375
X2.1516Y-2.28
X2.2875Y-1.4
X2.2875Y-4.5875
X2.3391Y-1.3425
X2.3391Y-4.53
X2.3484Y-2.2603
X2.35Y-2.2375
X2.475Y-3.0875
X2.5266Y-3.03
X2.5359Y-1.3228
X2.5359Y-4.5103
X2.5375Y-1.3
X2.5375Y-4.4875
X2.6625Y-3.8375
X2.7141Y-3.78
X2.7234Y-3.0103
X2.725Y-2.9875
X2.85Y-2.3375
X2.9016Y-2.28
X2.9109Y-3.7603
X2.9125Y-3.7375
X3.0375Y-1.4
X3.0891Y-1.3425
X3.0984Y-2.2603
X3.1Y-2.2375
X3.1313Y-4.5875
X3.1828Y-4.53
X3.225Y-3.0875
X3.2766Y-3.03
X3.2859Y-1.3228
X3.2875Y-1.3
X3.3797Y-4.5103
X3.3813Y-4.4875
X3.4125Y-3.8375
X3.4641Y-3.78
X3.4734Y-3.0103
X3.475Y-2.9875
X3.6Y-2.3375
X3.6516Y-2.28
X3.6609Y-3.7603
X3.6625Y-3.7375
X3.7875Y-1.4
X3.8391Y-1.3425
X3.8484Y-2.2603
X3.85Y-2.2375
X3.975Y-3.0875
X4.0266Y-3.03
X4.0359Y-1.3228
X4.0375Y-1.3
X4.1625Y-3.8375
X4.2141Y-3.78
X4.2234Y-3.0103
X4.225Y-2.9875
X4.35Y-2.3375
X4.4016Y-2.28
X4.4109Y-3.7603
X4.4125Y-3.7375
X4.5375Y-1.4
X4.5375Y-4.6875
X4.5891Y-1.3425
X4.5891Y-4.63
X4.5984Y-2.2603
X4.6Y-2.2375
X4.725Y-3.0875
X4.7766Y-3.03
X4.7859Y-1.3228
X4.7859Y-4.6103
X4.7875Y-1.3
X4.7875Y-4.5875
X4.9125Y-3.8375
X4.9641Y-3.78
X4.9734Y-3.0103
X4.975Y-2.9875
X5.1Y-2.3375
X5.1516Y-2.28
X5.1609Y-3.7603
X5.1625Y-3.7375
X5.2875Y-1.4
X5.3391Y-1.3425
X5.3484Y-2.2603
X5.35Y-2.2375
X5.475Y-3.0875
X5.5266Y-3.03
X5.5359Y-1.3228
X5.5375Y-1.3
X5.6625Y-3.8375
X5.7141Y-3.78
X5.7234Y-3.0103
X5.725Y-2.9875
X5.85Y-2.3375
X5.9016Y-2.28
X5.9109Y-3.7603
X5.9125Y-3.7375
X6.0984Y-2.2603
X6.1Y-2.2375
X6.225Y-3.0875
X6.2766Y-3.03
X6.4125Y-3.8375
X6.4641Y-3.78
X6.4734Y-3.0103
X6.475Y-2.9875
X6.6Y-2.3375
X6.6Y-4.6875
X6.6516Y-2.28
X6.6516Y-4.63
X6.6609Y-3.7603
X6.6625Y-3.7375
X6.8484Y-2.2603
X6.8484Y-4.6103
X6.85Y-2.2375
X6.85Y-4.5875
X6.975Y-3.0875
X7.0266Y-3.03
X7.1625Y-3.8375
X7.2141Y-3.78
X7.2234Y-3.0103
X7.225Y-2.9875
X7.35Y-2.3375
X7.4016Y-2.28
X7.4109Y-3.7603
X7.4125Y-3.7375
X7.5984Y-2.2603
X7.6Y-2.2375
X7.725Y-3.0875
X7.7766Y-3.03
X7.9125Y-3.8375
X7.9641Y-3.78
X7.9734Y-3.0103
X7.975Y-2.9875
X8.1Y-2.3375
X8.1Y-4.5875
X8.1516Y-2.28
X8.1516Y-4.53
X8.1609Y-3.7603
X8.1625Y-3.7375
X8.3484Y-2.2603
X8.3484Y-4.5103
X8.35Y-2.2375
X8.35Y-4.4875
X8.475Y-3.0875
X8.5266Y-3.03
X8.6625Y-3.8375
X8.7141Y-3.78
X8.7234Y-3.0103
X8.725Y-2.9875
X8.85Y-2.3375
X8.85Y-4.5875
X8.9016Y-2.28
X8.9016Y-4.53
X8.9109Y-3.7603
X8.9125Y-3.7375
X9.0984Y-2.2603
X9.0984Y-4.5103
X9.1Y-2.2375
X9.1Y-4.4875
X9.225Y-3.0875
X9.2766Y-3.03
X9.4734Y-3.0103
X9.475Y-2.9875
X9.5062Y-3.8375
X9.5578Y-3.78
X9.6Y-2.3375
X9.6Y-4.5875
X9.6516Y-2.28
X9.6516Y-4.53
X9.7547Y-3.7603
X9.7562Y-3.7375
X9.8484Y-2.2603
X9.8484Y-4.5103
X9.85Y-2.2375
X9.85Y-4.4875
X10.1625Y-3.0875
X10.2141Y-3.03
X10.35Y-2.3375
X10.35Y-3.8375
X10.35Y-4.5875
X10.4016Y-2.28
X10.4016Y-3.78
X10.4016Y-4.53
X10.4109Y-3.0103
X10.4125Y-2.9875
X10.5984Y-2.2603
X10.5984Y-3.7603
X10.5984Y-4.5103
X10.6Y-2.2375
X10.6Y-3.7375
X10.6Y-4.4875
T4
X1.8189Y-1.9291
X2.0315Y-4.3386
X5.7402Y-4.4173
X6.0866Y-1.6772
X9.3937Y-2.1969
X10.0709Y-4.3071
M30
