G04 #@! TF.GenerationSoftware,KiCad,Pcbnew,8.0.4*
G04 #@! TF.CreationDate,2025-02-13T21:41:29-05:00*
G04 #@! TF.ProjectId,shrimple,73687269-6d70-46c6-952e-6b696361645f,rev?*
G04 #@! TF.SameCoordinates,Original*
G04 #@! TF.FileFunction,Soldermask,Top*
G04 #@! TF.FilePolarity,Negative*
%FSLAX46Y46*%
G04 Gerber Fmt 4.6, Leading zero omitted, Abs format (unit mm)*
G04 Created by KiCad (PCBNEW 8.0.4) date 2025-02-13 21:41:29*
%MOMM*%
%LPD*%
G01*
G04 APERTURE LIST*
G04 Aperture macros list*
%AMRoundRect*
0 Rectangle with rounded corners*
0 $1 Rounding radius*
0 $2 $3 $4 $5 $6 $7 $8 $9 X,Y pos of 4 corners*
0 Add a 4 corners polygon primitive as box body*
4,1,4,$2,$3,$4,$5,$6,$7,$8,$9,$2,$3,0*
0 Add four circle primitives for the rounded corners*
1,1,$1+$1,$2,$3*
1,1,$1+$1,$4,$5*
1,1,$1+$1,$6,$7*
1,1,$1+$1,$8,$9*
0 Add four rect primitives between the rounded corners*
20,1,$1+$1,$2,$3,$4,$5,0*
20,1,$1+$1,$4,$5,$6,$7,0*
20,1,$1+$1,$6,$7,$8,$9,0*
20,1,$1+$1,$8,$9,$2,$3,0*%
G04 Aperture macros list end*
%ADD10RoundRect,0.237500X-0.237500X0.300000X-0.237500X-0.300000X0.237500X-0.300000X0.237500X0.300000X0*%
%ADD11C,1.701800*%
%ADD12C,3.987800*%
%ADD13C,2.600000*%
%ADD14C,4.400000*%
%ADD15C,3.048000*%
%ADD16RoundRect,0.250000X-0.450000X0.350000X-0.450000X-0.350000X0.450000X-0.350000X0.450000X0.350000X0*%
%ADD17RoundRect,0.100000X0.100000X-0.225000X0.100000X0.225000X-0.100000X0.225000X-0.100000X-0.225000X0*%
%ADD18R,1.400000X1.800000*%
%ADD19C,1.524000*%
G04 APERTURE END LIST*
D10*
G04 #@! TO.C,C2*
X177860000Y-36135000D03*
X177860000Y-37860000D03*
G04 #@! TD*
D11*
G04 #@! TO.C,MX50*
X223520000Y-119062500D03*
D12*
X228600000Y-119062500D03*
D11*
X233680000Y-119062500D03*
G04 #@! TD*
D13*
G04 #@! TO.C,H3*
X145800000Y-113750000D03*
D14*
X145800000Y-113750000D03*
G04 #@! TD*
D11*
G04 #@! TO.C,MX27*
X171132500Y-80962500D03*
D12*
X176212500Y-80962500D03*
D11*
X181292500Y-80962500D03*
G04 #@! TD*
G04 #@! TO.C,MX45*
X56832500Y-119062500D03*
D12*
X61912500Y-119062500D03*
D11*
X66992500Y-119062500D03*
G04 #@! TD*
G04 #@! TO.C,MX39*
X180657500Y-100012500D03*
D12*
X185737500Y-100012500D03*
D11*
X190817500Y-100012500D03*
G04 #@! TD*
G04 #@! TO.C,MX9*
X71120000Y-61912500D03*
D12*
X76200000Y-61912500D03*
D11*
X81280000Y-61912500D03*
G04 #@! TD*
G04 #@! TO.C,MX34*
X85407500Y-100012500D03*
D12*
X90487500Y-100012500D03*
D11*
X95567500Y-100012500D03*
G04 #@! TD*
G04 #@! TO.C,MX35*
X104457500Y-100012500D03*
D12*
X109537500Y-100012500D03*
D11*
X114617500Y-100012500D03*
G04 #@! TD*
G04 #@! TO.C,MX20*
X35400000Y-80960000D03*
D12*
X40480000Y-80960000D03*
D11*
X45560000Y-80960000D03*
G04 #@! TD*
G04 #@! TO.C,MX28*
X190182500Y-80962500D03*
D12*
X195262500Y-80962500D03*
D11*
X200342500Y-80962500D03*
G04 #@! TD*
G04 #@! TO.C,MX30*
X228282500Y-80962500D03*
D12*
X233362500Y-80962500D03*
D11*
X238442500Y-80962500D03*
G04 #@! TD*
G04 #@! TO.C,MX33*
X66357500Y-100012500D03*
D12*
X71437500Y-100012500D03*
D11*
X76517500Y-100012500D03*
G04 #@! TD*
G04 #@! TO.C,MX6*
X133032500Y-38100000D03*
D12*
X138112500Y-38100000D03*
D11*
X143192500Y-38100000D03*
G04 #@! TD*
G04 #@! TO.C,MX14*
X166370000Y-61912500D03*
D12*
X171450000Y-61912500D03*
D11*
X176530000Y-61912500D03*
G04 #@! TD*
G04 #@! TO.C,MX3*
X75882500Y-38100000D03*
D12*
X80962500Y-38100000D03*
D11*
X86042500Y-38100000D03*
G04 #@! TD*
G04 #@! TO.C,MX22*
X75882500Y-80962500D03*
D12*
X80962500Y-80962500D03*
D11*
X86042500Y-80962500D03*
G04 #@! TD*
G04 #@! TO.C,MX40*
X199707500Y-100012500D03*
D12*
X204787500Y-100012500D03*
D11*
X209867500Y-100012500D03*
G04 #@! TD*
G04 #@! TO.C,MX41*
X218757500Y-100012500D03*
D12*
X223837500Y-100012500D03*
D11*
X228917500Y-100012500D03*
G04 #@! TD*
G04 #@! TO.C,MX26*
X152082500Y-80962500D03*
D12*
X157162500Y-80962500D03*
D11*
X162242500Y-80962500D03*
G04 #@! TD*
G04 #@! TO.C,MX8*
X52070000Y-61912500D03*
D12*
X57150000Y-61912500D03*
D11*
X62230000Y-61912500D03*
G04 #@! TD*
D12*
G04 #@! TO.C,MX48*
X157132000Y-115567500D03*
D15*
X157132000Y-130807500D03*
D11*
X163990000Y-123822500D03*
D12*
X169070000Y-123822500D03*
D11*
X174150000Y-123822500D03*
D12*
X181008000Y-115567500D03*
D15*
X181008000Y-130807500D03*
G04 #@! TD*
D11*
G04 #@! TO.C,MX4*
X94932500Y-38100000D03*
D12*
X100012500Y-38100000D03*
D11*
X105092500Y-38100000D03*
G04 #@! TD*
D13*
G04 #@! TO.C,H5*
X246800000Y-76300000D03*
D14*
X246800000Y-76300000D03*
G04 #@! TD*
D10*
G04 #@! TO.C,C1*
X175000000Y-36137500D03*
X175000000Y-37862500D03*
G04 #@! TD*
D13*
G04 #@! TO.C,H4*
X193250000Y-113750000D03*
D14*
X193250000Y-113750000D03*
G04 #@! TD*
D11*
G04 #@! TO.C,MX38*
X161607500Y-100012500D03*
D12*
X166687500Y-100012500D03*
D11*
X171767500Y-100012500D03*
G04 #@! TD*
G04 #@! TO.C,MX23*
X94932500Y-80962500D03*
D12*
X100012500Y-80962500D03*
D11*
X105092500Y-80962500D03*
G04 #@! TD*
G04 #@! TO.C,MX52*
X261620000Y-119062500D03*
D12*
X266700000Y-119062500D03*
D11*
X271780000Y-119062500D03*
G04 #@! TD*
G04 #@! TO.C,MX17*
X223520000Y-61912500D03*
D12*
X228600000Y-61912500D03*
D11*
X233680000Y-61912500D03*
G04 #@! TD*
G04 #@! TO.C,MX24*
X113982500Y-80962500D03*
D12*
X119062500Y-80962500D03*
D11*
X124142500Y-80962500D03*
G04 #@! TD*
G04 #@! TO.C,MX10*
X90170000Y-61912500D03*
D12*
X95250000Y-61912500D03*
D11*
X100330000Y-61912500D03*
G04 #@! TD*
D13*
G04 #@! TO.C,H1*
X46200000Y-49000000D03*
D14*
X46200000Y-49000000D03*
G04 #@! TD*
D16*
G04 #@! TO.C,R1*
X164000000Y-36100000D03*
X164000000Y-38100000D03*
G04 #@! TD*
D11*
G04 #@! TO.C,MX19*
X261620000Y-61912500D03*
D12*
X266700000Y-61912500D03*
D11*
X271780000Y-61912500D03*
G04 #@! TD*
G04 #@! TO.C,MX7*
X33020000Y-61912500D03*
D12*
X38100000Y-61912500D03*
D11*
X43180000Y-61912500D03*
G04 #@! TD*
D17*
G04 #@! TO.C,U2*
X178831802Y-42250000D03*
X179481802Y-42250000D03*
X180131802Y-42250000D03*
X180131802Y-40350000D03*
X178831802Y-40350000D03*
G04 #@! TD*
D18*
G04 #@! TO.C,LED1*
X171650000Y-36100000D03*
X168350000Y-36100000D03*
X168350000Y-40900000D03*
X171650000Y-40900000D03*
G04 #@! TD*
D11*
G04 #@! TO.C,MX16*
X204470000Y-61912500D03*
D12*
X209550000Y-61912500D03*
D11*
X214630000Y-61912500D03*
G04 #@! TD*
G04 #@! TO.C,MX29*
X209232500Y-80962500D03*
D12*
X214312500Y-80962500D03*
D11*
X219392500Y-80962500D03*
G04 #@! TD*
G04 #@! TO.C,MX46*
X78263750Y-119062500D03*
D12*
X83343750Y-119062500D03*
D11*
X88423750Y-119062500D03*
G04 #@! TD*
G04 #@! TO.C,MX11*
X109220000Y-61912500D03*
D12*
X114300000Y-61912500D03*
D11*
X119380000Y-61912500D03*
G04 #@! TD*
G04 #@! TO.C,MX31*
X254480000Y-80960000D03*
D12*
X259560000Y-80960000D03*
D11*
X264640000Y-80960000D03*
G04 #@! TD*
G04 #@! TO.C,MX42*
X240188750Y-100012500D03*
D12*
X245268750Y-100012500D03*
D11*
X250348750Y-100012500D03*
G04 #@! TD*
G04 #@! TO.C,MX37*
X142557500Y-100012500D03*
D12*
X147637500Y-100012500D03*
D11*
X152717500Y-100012500D03*
G04 #@! TD*
G04 #@! TO.C,MX25*
X133032500Y-80962500D03*
D12*
X138112500Y-80962500D03*
D11*
X143192500Y-80962500D03*
G04 #@! TD*
G04 #@! TO.C,MX36*
X123507500Y-100012500D03*
D12*
X128587500Y-100012500D03*
D11*
X133667500Y-100012500D03*
G04 #@! TD*
G04 #@! TO.C,MX18*
X242570000Y-61912500D03*
D12*
X247650000Y-61912500D03*
D11*
X252730000Y-61912500D03*
G04 #@! TD*
G04 #@! TO.C,MX43*
X261620000Y-100012500D03*
D12*
X266700000Y-100012500D03*
D11*
X271780000Y-100012500D03*
G04 #@! TD*
G04 #@! TO.C,MX1*
X33020000Y-38100000D03*
D12*
X38100000Y-38100000D03*
D11*
X43180000Y-38100000D03*
G04 #@! TD*
D19*
G04 #@! TO.C,U3*
X245380000Y-45250000D03*
X247920000Y-45250000D03*
X255540000Y-45250000D03*
X258080000Y-45250000D03*
X253000000Y-30010000D03*
X260620000Y-45250000D03*
X263160000Y-45250000D03*
X245380000Y-30010000D03*
X265700000Y-45250000D03*
X268240000Y-45250000D03*
X270780000Y-45250000D03*
X273320000Y-45250000D03*
X242840000Y-45200000D03*
X242840000Y-30010000D03*
X268240000Y-30010000D03*
X273320000Y-30010000D03*
X265700000Y-30010000D03*
X270780000Y-30010000D03*
X263160000Y-30010000D03*
X260620000Y-30010000D03*
X258080000Y-30010000D03*
X255540000Y-30010000D03*
X250460000Y-45250000D03*
X253000000Y-45250000D03*
X247920000Y-30010000D03*
X250460000Y-30010000D03*
G04 #@! TD*
D11*
G04 #@! TO.C,MX12*
X128270000Y-61912500D03*
D12*
X133350000Y-61912500D03*
D11*
X138430000Y-61912500D03*
G04 #@! TD*
G04 #@! TO.C,MX15*
X185420000Y-61912500D03*
D12*
X190500000Y-61912500D03*
D11*
X195580000Y-61912500D03*
G04 #@! TD*
D13*
G04 #@! TO.C,H6*
X154600000Y-42600000D03*
D14*
X154600000Y-42600000D03*
G04 #@! TD*
D11*
G04 #@! TO.C,MX49*
X204470000Y-119062500D03*
D12*
X209550000Y-119062500D03*
D11*
X214630000Y-119062500D03*
G04 #@! TD*
D12*
G04 #@! TO.C,MX47*
X109512000Y-115570000D03*
D15*
X109512000Y-130810000D03*
D11*
X116370000Y-123825000D03*
D12*
X121450000Y-123825000D03*
D11*
X126530000Y-123825000D03*
D12*
X133388000Y-115570000D03*
D15*
X133388000Y-130810000D03*
G04 #@! TD*
D11*
G04 #@! TO.C,MX5*
X113982500Y-38100000D03*
D12*
X119062500Y-38100000D03*
D11*
X124142500Y-38100000D03*
G04 #@! TD*
G04 #@! TO.C,MX13*
X147320000Y-61912500D03*
D12*
X152400000Y-61912500D03*
D11*
X157480000Y-61912500D03*
G04 #@! TD*
G04 #@! TO.C,MX2*
X56832500Y-38100000D03*
D12*
X61912500Y-38100000D03*
D11*
X66992500Y-38100000D03*
G04 #@! TD*
G04 #@! TO.C,MX21*
X56832500Y-80962500D03*
D12*
X61912500Y-80962500D03*
D11*
X66992500Y-80962500D03*
G04 #@! TD*
G04 #@! TO.C,MX51*
X242570000Y-119062500D03*
D12*
X247650000Y-119062500D03*
D11*
X252730000Y-119062500D03*
G04 #@! TD*
G04 #@! TO.C,MX32*
X40163750Y-100012500D03*
D12*
X45243750Y-100012500D03*
D11*
X50323750Y-100012500D03*
G04 #@! TD*
G04 #@! TO.C,MX44*
X35401250Y-119062500D03*
D12*
X40481250Y-119062500D03*
D11*
X45561250Y-119062500D03*
G04 #@! TD*
D13*
G04 #@! TO.C,H2*
X59000000Y-96750000D03*
D14*
X59000000Y-96750000D03*
G04 #@! TD*
M02*
