G04 #@! TF.GenerationSoftware,KiCad,Pcbnew,8.0.4*
G04 #@! TF.CreationDate,2025-02-13T21:41:29-05:00*
G04 #@! TF.ProjectId,shrimple,73687269-6d70-46c6-952e-6b696361645f,rev?*
G04 #@! TF.SameCoordinates,Original*
G04 #@! TF.FileFunction,Legend,Top*
G04 #@! TF.FilePolarity,Positive*
%FSLAX46Y46*%
G04 Gerber Fmt 4.6, Leading zero omitted, Abs format (unit mm)*
G04 Created by KiCad (PCBNEW 8.0.4) date 2025-02-13 21:41:29*
%MOMM*%
%LPD*%
G01*
G04 APERTURE LIST*
G04 Aperture macros list*
%AMRoundRect*
0 Rectangle with rounded corners*
0 $1 Rounding radius*
0 $2 $3 $4 $5 $6 $7 $8 $9 X,Y pos of 4 corners*
0 Add a 4 corners polygon primitive as box body*
4,1,4,$2,$3,$4,$5,$6,$7,$8,$9,$2,$3,0*
0 Add four circle primitives for the rounded corners*
1,1,$1+$1,$2,$3*
1,1,$1+$1,$4,$5*
1,1,$1+$1,$6,$7*
1,1,$1+$1,$8,$9*
0 Add four rect primitives between the rounded corners*
20,1,$1+$1,$2,$3,$4,$5,0*
20,1,$1+$1,$4,$5,$6,$7,0*
20,1,$1+$1,$6,$7,$8,$9,0*
20,1,$1+$1,$8,$9,$2,$3,0*%
G04 Aperture macros list end*
%ADD10C,0.150000*%
%ADD11C,0.100000*%
%ADD12C,0.120000*%
%ADD13C,0.200000*%
%ADD14RoundRect,0.237500X-0.237500X0.300000X-0.237500X-0.300000X0.237500X-0.300000X0.237500X0.300000X0*%
%ADD15C,1.701800*%
%ADD16C,3.987800*%
%ADD17C,2.600000*%
%ADD18C,4.400000*%
%ADD19C,3.048000*%
%ADD20RoundRect,0.250000X-0.450000X0.350000X-0.450000X-0.350000X0.450000X-0.350000X0.450000X0.350000X0*%
%ADD21RoundRect,0.100000X0.100000X-0.225000X0.100000X0.225000X-0.100000X0.225000X-0.100000X-0.225000X0*%
%ADD22R,1.400000X1.800000*%
%ADD23C,1.524000*%
G04 APERTURE END LIST*
D10*
X179659580Y-37966666D02*
X179707200Y-38014285D01*
X179707200Y-38014285D02*
X179754819Y-38157142D01*
X179754819Y-38157142D02*
X179754819Y-38252380D01*
X179754819Y-38252380D02*
X179707200Y-38395237D01*
X179707200Y-38395237D02*
X179611961Y-38490475D01*
X179611961Y-38490475D02*
X179516723Y-38538094D01*
X179516723Y-38538094D02*
X179326247Y-38585713D01*
X179326247Y-38585713D02*
X179183390Y-38585713D01*
X179183390Y-38585713D02*
X178992914Y-38538094D01*
X178992914Y-38538094D02*
X178897676Y-38490475D01*
X178897676Y-38490475D02*
X178802438Y-38395237D01*
X178802438Y-38395237D02*
X178754819Y-38252380D01*
X178754819Y-38252380D02*
X178754819Y-38157142D01*
X178754819Y-38157142D02*
X178802438Y-38014285D01*
X178802438Y-38014285D02*
X178850057Y-37966666D01*
X178850057Y-37585713D02*
X178802438Y-37538094D01*
X178802438Y-37538094D02*
X178754819Y-37442856D01*
X178754819Y-37442856D02*
X178754819Y-37204761D01*
X178754819Y-37204761D02*
X178802438Y-37109523D01*
X178802438Y-37109523D02*
X178850057Y-37061904D01*
X178850057Y-37061904D02*
X178945295Y-37014285D01*
X178945295Y-37014285D02*
X179040533Y-37014285D01*
X179040533Y-37014285D02*
X179183390Y-37061904D01*
X179183390Y-37061904D02*
X179754819Y-37633332D01*
X179754819Y-37633332D02*
X179754819Y-37014285D01*
X176789580Y-37966666D02*
X176837200Y-38014285D01*
X176837200Y-38014285D02*
X176884819Y-38157142D01*
X176884819Y-38157142D02*
X176884819Y-38252380D01*
X176884819Y-38252380D02*
X176837200Y-38395237D01*
X176837200Y-38395237D02*
X176741961Y-38490475D01*
X176741961Y-38490475D02*
X176646723Y-38538094D01*
X176646723Y-38538094D02*
X176456247Y-38585713D01*
X176456247Y-38585713D02*
X176313390Y-38585713D01*
X176313390Y-38585713D02*
X176122914Y-38538094D01*
X176122914Y-38538094D02*
X176027676Y-38490475D01*
X176027676Y-38490475D02*
X175932438Y-38395237D01*
X175932438Y-38395237D02*
X175884819Y-38252380D01*
X175884819Y-38252380D02*
X175884819Y-38157142D01*
X175884819Y-38157142D02*
X175932438Y-38014285D01*
X175932438Y-38014285D02*
X175980057Y-37966666D01*
X176884819Y-37014285D02*
X176884819Y-37585713D01*
X176884819Y-37299999D02*
X175884819Y-37299999D01*
X175884819Y-37299999D02*
X176027676Y-37395237D01*
X176027676Y-37395237D02*
X176122914Y-37490475D01*
X176122914Y-37490475D02*
X176170533Y-37585713D01*
X166104819Y-37266666D02*
X165628628Y-37599999D01*
X166104819Y-37838094D02*
X165104819Y-37838094D01*
X165104819Y-37838094D02*
X165104819Y-37457142D01*
X165104819Y-37457142D02*
X165152438Y-37361904D01*
X165152438Y-37361904D02*
X165200057Y-37314285D01*
X165200057Y-37314285D02*
X165295295Y-37266666D01*
X165295295Y-37266666D02*
X165438152Y-37266666D01*
X165438152Y-37266666D02*
X165533390Y-37314285D01*
X165533390Y-37314285D02*
X165581009Y-37361904D01*
X165581009Y-37361904D02*
X165628628Y-37457142D01*
X165628628Y-37457142D02*
X165628628Y-37838094D01*
X166104819Y-36314285D02*
X166104819Y-36885713D01*
X166104819Y-36599999D02*
X165104819Y-36599999D01*
X165104819Y-36599999D02*
X165247676Y-36695237D01*
X165247676Y-36695237D02*
X165342914Y-36790475D01*
X165342914Y-36790475D02*
X165390533Y-36885713D01*
X176686621Y-42061904D02*
X177496144Y-42061904D01*
X177496144Y-42061904D02*
X177591382Y-42014285D01*
X177591382Y-42014285D02*
X177639002Y-41966666D01*
X177639002Y-41966666D02*
X177686621Y-41871428D01*
X177686621Y-41871428D02*
X177686621Y-41680952D01*
X177686621Y-41680952D02*
X177639002Y-41585714D01*
X177639002Y-41585714D02*
X177591382Y-41538095D01*
X177591382Y-41538095D02*
X177496144Y-41490476D01*
X177496144Y-41490476D02*
X176686621Y-41490476D01*
X176781859Y-41061904D02*
X176734240Y-41014285D01*
X176734240Y-41014285D02*
X176686621Y-40919047D01*
X176686621Y-40919047D02*
X176686621Y-40680952D01*
X176686621Y-40680952D02*
X176734240Y-40585714D01*
X176734240Y-40585714D02*
X176781859Y-40538095D01*
X176781859Y-40538095D02*
X176877097Y-40490476D01*
X176877097Y-40490476D02*
X176972335Y-40490476D01*
X176972335Y-40490476D02*
X177115192Y-40538095D01*
X177115192Y-40538095D02*
X177686621Y-41109523D01*
X177686621Y-41109523D02*
X177686621Y-40490476D01*
X168880952Y-34382819D02*
X168404762Y-34382819D01*
X168404762Y-34382819D02*
X168404762Y-33382819D01*
X169214286Y-33859009D02*
X169547619Y-33859009D01*
X169690476Y-34382819D02*
X169214286Y-34382819D01*
X169214286Y-34382819D02*
X169214286Y-33382819D01*
X169214286Y-33382819D02*
X169690476Y-33382819D01*
X170119048Y-34382819D02*
X170119048Y-33382819D01*
X170119048Y-33382819D02*
X170357143Y-33382819D01*
X170357143Y-33382819D02*
X170500000Y-33430438D01*
X170500000Y-33430438D02*
X170595238Y-33525676D01*
X170595238Y-33525676D02*
X170642857Y-33620914D01*
X170642857Y-33620914D02*
X170690476Y-33811390D01*
X170690476Y-33811390D02*
X170690476Y-33954247D01*
X170690476Y-33954247D02*
X170642857Y-34144723D01*
X170642857Y-34144723D02*
X170595238Y-34239961D01*
X170595238Y-34239961D02*
X170500000Y-34335200D01*
X170500000Y-34335200D02*
X170357143Y-34382819D01*
X170357143Y-34382819D02*
X170119048Y-34382819D01*
X171642857Y-34382819D02*
X171071429Y-34382819D01*
X171357143Y-34382819D02*
X171357143Y-33382819D01*
X171357143Y-33382819D02*
X171261905Y-33525676D01*
X171261905Y-33525676D02*
X171166667Y-33620914D01*
X171166667Y-33620914D02*
X171071429Y-33668533D01*
D11*
X267577419Y-38371904D02*
X268386942Y-38371904D01*
X268386942Y-38371904D02*
X268482180Y-38324285D01*
X268482180Y-38324285D02*
X268529800Y-38276666D01*
X268529800Y-38276666D02*
X268577419Y-38181428D01*
X268577419Y-38181428D02*
X268577419Y-37990952D01*
X268577419Y-37990952D02*
X268529800Y-37895714D01*
X268529800Y-37895714D02*
X268482180Y-37848095D01*
X268482180Y-37848095D02*
X268386942Y-37800476D01*
X268386942Y-37800476D02*
X267577419Y-37800476D01*
X267577419Y-37419523D02*
X267577419Y-36800476D01*
X267577419Y-36800476D02*
X267958371Y-37133809D01*
X267958371Y-37133809D02*
X267958371Y-36990952D01*
X267958371Y-36990952D02*
X268005990Y-36895714D01*
X268005990Y-36895714D02*
X268053609Y-36848095D01*
X268053609Y-36848095D02*
X268148847Y-36800476D01*
X268148847Y-36800476D02*
X268386942Y-36800476D01*
X268386942Y-36800476D02*
X268482180Y-36848095D01*
X268482180Y-36848095D02*
X268529800Y-36895714D01*
X268529800Y-36895714D02*
X268577419Y-36990952D01*
X268577419Y-36990952D02*
X268577419Y-37276666D01*
X268577419Y-37276666D02*
X268529800Y-37371904D01*
X268529800Y-37371904D02*
X268482180Y-37419523D01*
D12*
G04 #@! TO.C,C2*
X177350000Y-36851233D02*
X177350000Y-37143767D01*
X178370000Y-36851233D02*
X178370000Y-37143767D01*
G04 #@! TO.C,C1*
X174490000Y-36853733D02*
X174490000Y-37146267D01*
X175510000Y-36853733D02*
X175510000Y-37146267D01*
G04 #@! TO.C,R1*
X163265000Y-36872936D02*
X163265000Y-37327064D01*
X164735000Y-36872936D02*
X164735000Y-37327064D01*
G04 #@! TO.C,U2*
X178321802Y-42010000D02*
X178321802Y-40600000D01*
X180641802Y-42000000D02*
X180641802Y-40600000D01*
X178371802Y-42380000D02*
X178041802Y-42620000D01*
X178041802Y-42140000D01*
X178371802Y-42380000D01*
G36*
X178371802Y-42380000D02*
G01*
X178041802Y-42620000D01*
X178041802Y-42140000D01*
X178371802Y-42380000D01*
G37*
D13*
G04 #@! TO.C,LED1*
X167500000Y-37500000D02*
X167500000Y-39500000D01*
X169000000Y-37500000D02*
X171000000Y-37500000D01*
X169000000Y-39000000D02*
X169000000Y-37500000D01*
X169500000Y-36000000D02*
X170500000Y-36000000D01*
X169500000Y-39500000D02*
X169000000Y-39000000D01*
X169500000Y-41000000D02*
X170500000Y-41000000D01*
X171000000Y-37500000D02*
X171000000Y-39500000D01*
X171000000Y-39500000D02*
X169500000Y-39500000D01*
X172500000Y-37500000D02*
X172500000Y-39500000D01*
D11*
G04 #@! TO.C,U3*
X241580000Y-28720000D02*
X241580000Y-31720000D01*
X241580000Y-28720000D02*
X244580000Y-28720000D01*
X241580000Y-43500000D02*
X241580000Y-46500000D01*
X241580000Y-46500000D02*
X241580000Y-43500000D01*
X241580000Y-46500000D02*
X244580000Y-46500000D01*
X271580000Y-46500000D02*
X274580000Y-46500000D01*
X274580000Y-28720000D02*
X271580000Y-28720000D01*
X274580000Y-28720000D02*
X274580000Y-31720000D01*
X274580000Y-46500000D02*
X271580000Y-46500000D01*
X274580000Y-46500000D02*
X274580000Y-43500000D01*
X247330000Y-42110000D02*
X240930000Y-42110000D01*
X240930000Y-33110000D01*
X247330000Y-33110000D01*
X247330000Y-42110000D01*
G04 #@! TD*
%LPC*%
D14*
G04 #@! TO.C,C2*
X177860000Y-36135000D03*
X177860000Y-37860000D03*
G04 #@! TD*
D15*
G04 #@! TO.C,MX50*
X223520000Y-119062500D03*
D16*
X228600000Y-119062500D03*
D15*
X233680000Y-119062500D03*
G04 #@! TD*
D17*
G04 #@! TO.C,H3*
X145800000Y-113750000D03*
D18*
X145800000Y-113750000D03*
G04 #@! TD*
D15*
G04 #@! TO.C,MX27*
X171132500Y-80962500D03*
D16*
X176212500Y-80962500D03*
D15*
X181292500Y-80962500D03*
G04 #@! TD*
G04 #@! TO.C,MX45*
X56832500Y-119062500D03*
D16*
X61912500Y-119062500D03*
D15*
X66992500Y-119062500D03*
G04 #@! TD*
G04 #@! TO.C,MX39*
X180657500Y-100012500D03*
D16*
X185737500Y-100012500D03*
D15*
X190817500Y-100012500D03*
G04 #@! TD*
G04 #@! TO.C,MX9*
X71120000Y-61912500D03*
D16*
X76200000Y-61912500D03*
D15*
X81280000Y-61912500D03*
G04 #@! TD*
G04 #@! TO.C,MX34*
X85407500Y-100012500D03*
D16*
X90487500Y-100012500D03*
D15*
X95567500Y-100012500D03*
G04 #@! TD*
G04 #@! TO.C,MX35*
X104457500Y-100012500D03*
D16*
X109537500Y-100012500D03*
D15*
X114617500Y-100012500D03*
G04 #@! TD*
G04 #@! TO.C,MX20*
X35400000Y-80960000D03*
D16*
X40480000Y-80960000D03*
D15*
X45560000Y-80960000D03*
G04 #@! TD*
G04 #@! TO.C,MX28*
X190182500Y-80962500D03*
D16*
X195262500Y-80962500D03*
D15*
X200342500Y-80962500D03*
G04 #@! TD*
G04 #@! TO.C,MX30*
X228282500Y-80962500D03*
D16*
X233362500Y-80962500D03*
D15*
X238442500Y-80962500D03*
G04 #@! TD*
G04 #@! TO.C,MX33*
X66357500Y-100012500D03*
D16*
X71437500Y-100012500D03*
D15*
X76517500Y-100012500D03*
G04 #@! TD*
G04 #@! TO.C,MX6*
X133032500Y-38100000D03*
D16*
X138112500Y-38100000D03*
D15*
X143192500Y-38100000D03*
G04 #@! TD*
G04 #@! TO.C,MX14*
X166370000Y-61912500D03*
D16*
X171450000Y-61912500D03*
D15*
X176530000Y-61912500D03*
G04 #@! TD*
G04 #@! TO.C,MX3*
X75882500Y-38100000D03*
D16*
X80962500Y-38100000D03*
D15*
X86042500Y-38100000D03*
G04 #@! TD*
G04 #@! TO.C,MX22*
X75882500Y-80962500D03*
D16*
X80962500Y-80962500D03*
D15*
X86042500Y-80962500D03*
G04 #@! TD*
G04 #@! TO.C,MX40*
X199707500Y-100012500D03*
D16*
X204787500Y-100012500D03*
D15*
X209867500Y-100012500D03*
G04 #@! TD*
G04 #@! TO.C,MX41*
X218757500Y-100012500D03*
D16*
X223837500Y-100012500D03*
D15*
X228917500Y-100012500D03*
G04 #@! TD*
G04 #@! TO.C,MX26*
X152082500Y-80962500D03*
D16*
X157162500Y-80962500D03*
D15*
X162242500Y-80962500D03*
G04 #@! TD*
G04 #@! TO.C,MX8*
X52070000Y-61912500D03*
D16*
X57150000Y-61912500D03*
D15*
X62230000Y-61912500D03*
G04 #@! TD*
D16*
G04 #@! TO.C,MX48*
X157132000Y-115567500D03*
D19*
X157132000Y-130807500D03*
D15*
X163990000Y-123822500D03*
D16*
X169070000Y-123822500D03*
D15*
X174150000Y-123822500D03*
D16*
X181008000Y-115567500D03*
D19*
X181008000Y-130807500D03*
G04 #@! TD*
D15*
G04 #@! TO.C,MX4*
X94932500Y-38100000D03*
D16*
X100012500Y-38100000D03*
D15*
X105092500Y-38100000D03*
G04 #@! TD*
D17*
G04 #@! TO.C,H5*
X246800000Y-76300000D03*
D18*
X246800000Y-76300000D03*
G04 #@! TD*
D14*
G04 #@! TO.C,C1*
X175000000Y-36137500D03*
X175000000Y-37862500D03*
G04 #@! TD*
D17*
G04 #@! TO.C,H4*
X193250000Y-113750000D03*
D18*
X193250000Y-113750000D03*
G04 #@! TD*
D15*
G04 #@! TO.C,MX38*
X161607500Y-100012500D03*
D16*
X166687500Y-100012500D03*
D15*
X171767500Y-100012500D03*
G04 #@! TD*
G04 #@! TO.C,MX23*
X94932500Y-80962500D03*
D16*
X100012500Y-80962500D03*
D15*
X105092500Y-80962500D03*
G04 #@! TD*
G04 #@! TO.C,MX52*
X261620000Y-119062500D03*
D16*
X266700000Y-119062500D03*
D15*
X271780000Y-119062500D03*
G04 #@! TD*
G04 #@! TO.C,MX17*
X223520000Y-61912500D03*
D16*
X228600000Y-61912500D03*
D15*
X233680000Y-61912500D03*
G04 #@! TD*
G04 #@! TO.C,MX24*
X113982500Y-80962500D03*
D16*
X119062500Y-80962500D03*
D15*
X124142500Y-80962500D03*
G04 #@! TD*
G04 #@! TO.C,MX10*
X90170000Y-61912500D03*
D16*
X95250000Y-61912500D03*
D15*
X100330000Y-61912500D03*
G04 #@! TD*
D17*
G04 #@! TO.C,H1*
X46200000Y-49000000D03*
D18*
X46200000Y-49000000D03*
G04 #@! TD*
D20*
G04 #@! TO.C,R1*
X164000000Y-36100000D03*
X164000000Y-38100000D03*
G04 #@! TD*
D15*
G04 #@! TO.C,MX19*
X261620000Y-61912500D03*
D16*
X266700000Y-61912500D03*
D15*
X271780000Y-61912500D03*
G04 #@! TD*
G04 #@! TO.C,MX7*
X33020000Y-61912500D03*
D16*
X38100000Y-61912500D03*
D15*
X43180000Y-61912500D03*
G04 #@! TD*
D21*
G04 #@! TO.C,U2*
X178831802Y-42250000D03*
X179481802Y-42250000D03*
X180131802Y-42250000D03*
X180131802Y-40350000D03*
X178831802Y-40350000D03*
G04 #@! TD*
D22*
G04 #@! TO.C,LED1*
X171650000Y-36100000D03*
X168350000Y-36100000D03*
X168350000Y-40900000D03*
X171650000Y-40900000D03*
G04 #@! TD*
D15*
G04 #@! TO.C,MX16*
X204470000Y-61912500D03*
D16*
X209550000Y-61912500D03*
D15*
X214630000Y-61912500D03*
G04 #@! TD*
G04 #@! TO.C,MX29*
X209232500Y-80962500D03*
D16*
X214312500Y-80962500D03*
D15*
X219392500Y-80962500D03*
G04 #@! TD*
G04 #@! TO.C,MX46*
X78263750Y-119062500D03*
D16*
X83343750Y-119062500D03*
D15*
X88423750Y-119062500D03*
G04 #@! TD*
G04 #@! TO.C,MX11*
X109220000Y-61912500D03*
D16*
X114300000Y-61912500D03*
D15*
X119380000Y-61912500D03*
G04 #@! TD*
G04 #@! TO.C,MX31*
X254480000Y-80960000D03*
D16*
X259560000Y-80960000D03*
D15*
X264640000Y-80960000D03*
G04 #@! TD*
G04 #@! TO.C,MX42*
X240188750Y-100012500D03*
D16*
X245268750Y-100012500D03*
D15*
X250348750Y-100012500D03*
G04 #@! TD*
G04 #@! TO.C,MX37*
X142557500Y-100012500D03*
D16*
X147637500Y-100012500D03*
D15*
X152717500Y-100012500D03*
G04 #@! TD*
G04 #@! TO.C,MX25*
X133032500Y-80962500D03*
D16*
X138112500Y-80962500D03*
D15*
X143192500Y-80962500D03*
G04 #@! TD*
G04 #@! TO.C,MX36*
X123507500Y-100012500D03*
D16*
X128587500Y-100012500D03*
D15*
X133667500Y-100012500D03*
G04 #@! TD*
G04 #@! TO.C,MX18*
X242570000Y-61912500D03*
D16*
X247650000Y-61912500D03*
D15*
X252730000Y-61912500D03*
G04 #@! TD*
G04 #@! TO.C,MX43*
X261620000Y-100012500D03*
D16*
X266700000Y-100012500D03*
D15*
X271780000Y-100012500D03*
G04 #@! TD*
G04 #@! TO.C,MX1*
X33020000Y-38100000D03*
D16*
X38100000Y-38100000D03*
D15*
X43180000Y-38100000D03*
G04 #@! TD*
D23*
G04 #@! TO.C,U3*
X245380000Y-45250000D03*
X247920000Y-45250000D03*
X255540000Y-45250000D03*
X258080000Y-45250000D03*
X253000000Y-30010000D03*
X260620000Y-45250000D03*
X263160000Y-45250000D03*
X245380000Y-30010000D03*
X265700000Y-45250000D03*
X268240000Y-45250000D03*
X270780000Y-45250000D03*
X273320000Y-45250000D03*
X242840000Y-45200000D03*
X242840000Y-30010000D03*
X268240000Y-30010000D03*
X273320000Y-30010000D03*
X265700000Y-30010000D03*
X270780000Y-30010000D03*
X263160000Y-30010000D03*
X260620000Y-30010000D03*
X258080000Y-30010000D03*
X255540000Y-30010000D03*
X250460000Y-45250000D03*
X253000000Y-45250000D03*
X247920000Y-30010000D03*
X250460000Y-30010000D03*
G04 #@! TD*
D15*
G04 #@! TO.C,MX12*
X128270000Y-61912500D03*
D16*
X133350000Y-61912500D03*
D15*
X138430000Y-61912500D03*
G04 #@! TD*
G04 #@! TO.C,MX15*
X185420000Y-61912500D03*
D16*
X190500000Y-61912500D03*
D15*
X195580000Y-61912500D03*
G04 #@! TD*
D17*
G04 #@! TO.C,H6*
X154600000Y-42600000D03*
D18*
X154600000Y-42600000D03*
G04 #@! TD*
D15*
G04 #@! TO.C,MX49*
X204470000Y-119062500D03*
D16*
X209550000Y-119062500D03*
D15*
X214630000Y-119062500D03*
G04 #@! TD*
D16*
G04 #@! TO.C,MX47*
X109512000Y-115570000D03*
D19*
X109512000Y-130810000D03*
D15*
X116370000Y-123825000D03*
D16*
X121450000Y-123825000D03*
D15*
X126530000Y-123825000D03*
D16*
X133388000Y-115570000D03*
D19*
X133388000Y-130810000D03*
G04 #@! TD*
D15*
G04 #@! TO.C,MX5*
X113982500Y-38100000D03*
D16*
X119062500Y-38100000D03*
D15*
X124142500Y-38100000D03*
G04 #@! TD*
G04 #@! TO.C,MX13*
X147320000Y-61912500D03*
D16*
X152400000Y-61912500D03*
D15*
X157480000Y-61912500D03*
G04 #@! TD*
G04 #@! TO.C,MX2*
X56832500Y-38100000D03*
D16*
X61912500Y-38100000D03*
D15*
X66992500Y-38100000D03*
G04 #@! TD*
G04 #@! TO.C,MX21*
X56832500Y-80962500D03*
D16*
X61912500Y-80962500D03*
D15*
X66992500Y-80962500D03*
G04 #@! TD*
G04 #@! TO.C,MX51*
X242570000Y-119062500D03*
D16*
X247650000Y-119062500D03*
D15*
X252730000Y-119062500D03*
G04 #@! TD*
G04 #@! TO.C,MX32*
X40163750Y-100012500D03*
D16*
X45243750Y-100012500D03*
D15*
X50323750Y-100012500D03*
G04 #@! TD*
G04 #@! TO.C,MX44*
X35401250Y-119062500D03*
D16*
X40481250Y-119062500D03*
D15*
X45561250Y-119062500D03*
G04 #@! TD*
D17*
G04 #@! TO.C,H2*
X59000000Y-96750000D03*
D18*
X59000000Y-96750000D03*
G04 #@! TD*
%LPD*%
M02*
