0
SECTION
2
HEADER
9
$INSUNITS
70
4
0
ENDSEC
0
SECTION
2
TABLES
0
TABLE
2
LTYPE
0
LTYPE
72
65
70
64
2
CONTINUOUS
3
______
73
0
40
0
0
ENDTAB
0
TABLE
2
LAYER
0
ENDTAB
0
ENDSEC
0
SECTION
2
ENTITIES
0
LINE
8
0
10
2.525
20
-2.525
11
16.525
21
-2.525
0
LINE
8
0
10
2.525
20
-16.525
11
16.525
21
-16.525
0
LINE
8
0
10
2.525
20
-2.525
11
2.525
21
-16.525
0
LINE
8
0
10
16.525
20
-2.525
11
16.525
21
-16.525
0
LINE
8
0
10
26.3375
20
-2.525
11
40.3375
21
-2.525
0
LINE
8
0
10
26.3375
20
-16.525
11
40.3375
21
-16.525
0
LINE
8
0
10
26.3375
20
-2.525
11
26.3375
21
-16.525
0
LINE
8
0
10
40.3375
20
-2.525
11
40.3375
21
-16.525
0
LINE
8
0
10
45.3875
20
-2.525
11
59.3875
21
-2.525
0
LINE
8
0
10
45.3875
20
-16.525
11
59.3875
21
-16.525
0
LINE
8
0
10
45.3875
20
-2.525
11
45.3875
21
-16.525
0
LINE
8
0
10
59.3875
20
-2.525
11
59.3875
21
-16.525
0
LINE
8
0
10
64.4375
20
-2.525
11
78.4375
21
-2.525
0
LINE
8
0
10
64.4375
20
-16.525
11
78.4375
21
-16.525
0
LINE
8
0
10
64.4375
20
-2.525
11
64.4375
21
-16.525
0
LINE
8
0
10
78.4375
20
-2.525
11
78.4375
21
-16.525
0
LINE
8
0
10
83.4875
20
-2.525
11
97.4875
21
-2.525
0
LINE
8
0
10
83.4875
20
-16.525
11
97.4875
21
-16.525
0
LINE
8
0
10
83.4875
20
-2.525
11
83.4875
21
-16.525
0
LINE
8
0
10
97.4875
20
-2.525
11
97.4875
21
-16.525
0
LINE
8
0
10
102.5375
20
-2.525
11
116.5375
21
-2.525
0
LINE
8
0
10
102.5375
20
-16.525
11
116.5375
21
-16.525
0
LINE
8
0
10
102.5375
20
-2.525
11
102.5375
21
-16.525
0
LINE
8
0
10
116.5375
20
-2.525
11
116.5375
21
-16.525
0
LINE
8
0
10
2.525
20
-26.3375
11
16.525
21
-26.3375
0
LINE
8
0
10
2.525
20
-40.3375
11
16.525
21
-40.3375
0
LINE
8
0
10
2.525
20
-26.3375
11
2.525
21
-40.3375
0
LINE
8
0
10
16.525
20
-26.3375
11
16.525
21
-40.3375
0
LINE
8
0
10
21.575
20
-26.3375
11
35.575
21
-26.3375
0
LINE
8
0
10
21.575
20
-40.3375
11
35.575
21
-40.3375
0
LINE
8
0
10
21.575
20
-26.3375
11
21.575
21
-40.3375
0
LINE
8
0
10
35.575
20
-26.3375
11
35.575
21
-40.3375
0
LINE
8
0
10
40.625
20
-26.3375
11
54.625
21
-26.3375
0
LINE
8
0
10
40.625
20
-40.3375
11
54.625
21
-40.3375
0
LINE
8
0
10
40.625
20
-26.3375
11
40.625
21
-40.3375
0
LINE
8
0
10
54.625
20
-26.3375
11
54.625
21
-40.3375
0
LINE
8
0
10
59.675
20
-26.3375
11
73.675
21
-26.3375
0
LINE
8
0
10
59.675
20
-40.3375
11
73.675
21
-40.3375
0
LINE
8
0
10
59.675
20
-26.3375
11
59.675
21
-40.3375
0
LINE
8
0
10
73.675
20
-26.3375
11
73.675
21
-40.3375
0
LINE
8
0
10
78.725
20
-26.3375
11
92.725
21
-26.3375
0
LINE
8
0
10
78.725
20
-40.3375
11
92.725
21
-40.3375
0
LINE
8
0
10
78.725
20
-26.3375
11
78.725
21
-40.3375
0
LINE
8
0
10
92.725
20
-26.3375
11
92.725
21
-40.3375
0
LINE
8
0
10
97.775
20
-26.3375
11
111.775
21
-26.3375
0
LINE
8
0
10
97.775
20
-40.3375
11
111.775
21
-40.3375
0
LINE
8
0
10
97.775
20
-26.3375
11
97.775
21
-40.3375
0
LINE
8
0
10
111.775
20
-26.3375
11
111.775
21
-40.3375
0
LINE
8
0
10
116.825
20
-26.3375
11
130.825
21
-26.3375
0
LINE
8
0
10
116.825
20
-40.3375
11
130.825
21
-40.3375
0
LINE
8
0
10
116.825
20
-26.3375
11
116.825
21
-40.3375
0
LINE
8
0
10
130.825
20
-26.3375
11
130.825
21
-40.3375
0
LINE
8
0
10
135.875
20
-26.3375
11
149.875
21
-26.3375
0
LINE
8
0
10
135.875
20
-40.3375
11
149.875
21
-40.3375
0
LINE
8
0
10
135.875
20
-26.3375
11
135.875
21
-40.3375
0
LINE
8
0
10
149.875
20
-26.3375
11
149.875
21
-40.3375
0
LINE
8
0
10
154.925
20
-26.3375
11
168.925
21
-26.3375
0
LINE
8
0
10
154.925
20
-40.3375
11
168.925
21
-40.3375
0
LINE
8
0
10
154.925
20
-26.3375
11
154.925
21
-40.3375
0
LINE
8
0
10
168.925
20
-26.3375
11
168.925
21
-40.3375
0
LINE
8
0
10
173.975
20
-26.3375
11
187.975
21
-26.3375
0
LINE
8
0
10
173.975
20
-40.3375
11
187.975
21
-40.3375
0
LINE
8
0
10
173.975
20
-26.3375
11
173.975
21
-40.3375
0
LINE
8
0
10
187.975
20
-26.3375
11
187.975
21
-40.3375
0
LINE
8
0
10
193.025
20
-26.3375
11
207.025
21
-26.3375
0
LINE
8
0
10
193.025
20
-40.3375
11
207.025
21
-40.3375
0
LINE
8
0
10
193.025
20
-26.3375
11
193.025
21
-40.3375
0
LINE
8
0
10
207.025
20
-26.3375
11
207.025
21
-40.3375
0
LINE
8
0
10
212.075
20
-26.3375
11
226.075
21
-26.3375
0
LINE
8
0
10
212.075
20
-40.3375
11
226.075
21
-40.3375
0
LINE
8
0
10
212.075
20
-26.3375
11
212.075
21
-40.3375
0
LINE
8
0
10
226.075
20
-26.3375
11
226.075
21
-40.3375
0
LINE
8
0
10
231.125
20
-26.3375
11
245.125
21
-26.3375
0
LINE
8
0
10
231.125
20
-40.3375
11
245.125
21
-40.3375
0
LINE
8
0
10
231.125
20
-26.3375
11
231.125
21
-40.3375
0
LINE
8
0
10
245.125
20
-26.3375
11
245.125
21
-40.3375
0
LINE
8
0
10
4.90625
20
-45.3875
11
18.90625
21
-45.3875
0
LINE
8
0
10
4.90625
20
-59.3875
11
18.90625
21
-59.3875
0
LINE
8
0
10
4.90625
20
-45.3875
11
4.90625
21
-59.3875
0
LINE
8
0
10
18.90625
20
-45.3875
11
18.90625
21
-59.3875
0
LINE
8
0
10
26.3375
20
-45.3875
11
40.3375
21
-45.3875
0
LINE
8
0
10
26.3375
20
-59.3875
11
40.3375
21
-59.3875
0
LINE
8
0
10
26.3375
20
-45.3875
11
26.3375
21
-59.3875
0
LINE
8
0
10
40.3375
20
-45.3875
11
40.3375
21
-59.3875
0
LINE
8
0
10
45.3875
20
-45.3875
11
59.3875
21
-45.3875
0
LINE
8
0
10
45.3875
20
-59.3875
11
59.3875
21
-59.3875
0
LINE
8
0
10
45.3875
20
-45.3875
11
45.3875
21
-59.3875
0
LINE
8
0
10
59.3875
20
-45.3875
11
59.3875
21
-59.3875
0
LINE
8
0
10
64.4375
20
-45.3875
11
78.4375
21
-45.3875
0
LINE
8
0
10
64.4375
20
-59.3875
11
78.4375
21
-59.3875
0
LINE
8
0
10
64.4375
20
-45.3875
11
64.4375
21
-59.3875
0
LINE
8
0
10
78.4375
20
-45.3875
11
78.4375
21
-59.3875
0
LINE
8
0
10
83.4875
20
-45.3875
11
97.4875
21
-45.3875
0
LINE
8
0
10
83.4875
20
-59.3875
11
97.4875
21
-59.3875
0
LINE
8
0
10
83.4875
20
-45.3875
11
83.4875
21
-59.3875
0
LINE
8
0
10
97.4875
20
-45.3875
11
97.4875
21
-59.3875
0
LINE
8
0
10
102.5375
20
-45.3875
11
116.5375
21
-45.3875
0
LINE
8
0
10
102.5375
20
-59.3875
11
116.5375
21
-59.3875
0
LINE
8
0
10
102.5375
20
-45.3875
11
102.5375
21
-59.3875
0
LINE
8
0
10
116.5375
20
-45.3875
11
116.5375
21
-59.3875
0
LINE
8
0
10
121.5875
20
-45.3875
11
135.5875
21
-45.3875
0
LINE
8
0
10
121.5875
20
-59.3875
11
135.5875
21
-59.3875
0
LINE
8
0
10
121.5875
20
-45.3875
11
121.5875
21
-59.3875
0
LINE
8
0
10
135.5875
20
-45.3875
11
135.5875
21
-59.3875
0
LINE
8
0
10
140.6375
20
-45.3875
11
154.6375
21
-45.3875
0
LINE
8
0
10
140.6375
20
-59.3875
11
154.6375
21
-59.3875
0
LINE
8
0
10
140.6375
20
-45.3875
11
140.6375
21
-59.3875
0
LINE
8
0
10
154.6375
20
-45.3875
11
154.6375
21
-59.3875
0
LINE
8
0
10
159.6875
20
-45.3875
11
173.6875
21
-45.3875
0
LINE
8
0
10
159.6875
20
-59.3875
11
173.6875
21
-59.3875
0
LINE
8
0
10
159.6875
20
-45.3875
11
159.6875
21
-59.3875
0
LINE
8
0
10
173.6875
20
-45.3875
11
173.6875
21
-59.3875
0
LINE
8
0
10
178.7375
20
-45.3875
11
192.7375
21
-45.3875
0
LINE
8
0
10
178.7375
20
-59.3875
11
192.7375
21
-59.3875
0
LINE
8
0
10
178.7375
20
-45.3875
11
178.7375
21
-59.3875
0
LINE
8
0
10
192.7375
20
-45.3875
11
192.7375
21
-59.3875
0
LINE
8
0
10
197.7875
20
-45.3875
11
211.7875
21
-45.3875
0
LINE
8
0
10
197.7875
20
-59.3875
11
211.7875
21
-59.3875
0
LINE
8
0
10
197.7875
20
-45.3875
11
197.7875
21
-59.3875
0
LINE
8
0
10
211.7875
20
-45.3875
11
211.7875
21
-59.3875
0
LINE
8
0
10
223.98125
20
-45.3875
11
237.98125
21
-45.3875
0
LINE
8
0
10
223.98125
20
-59.3875
11
237.98125
21
-59.3875
0
LINE
8
0
10
223.98125
20
-45.3875
11
223.98125
21
-59.3875
0
LINE
8
0
10
237.98125
20
-45.3875
11
237.98125
21
-59.3875
0
LINE
8
0
10
9.66875
20
-64.4375
11
23.66875
21
-64.4375
0
LINE
8
0
10
9.66875
20
-78.4375
11
23.66875
21
-78.4375
0
LINE
8
0
10
9.66875
20
-64.4375
11
9.66875
21
-78.4375
0
LINE
8
0
10
23.66875
20
-64.4375
11
23.66875
21
-78.4375
0
LINE
8
0
10
35.8625
20
-64.4375
11
49.8625
21
-64.4375
0
LINE
8
0
10
35.8625
20
-78.4375
11
49.8625
21
-78.4375
0
LINE
8
0
10
35.8625
20
-64.4375
11
35.8625
21
-78.4375
0
LINE
8
0
10
49.8625
20
-64.4375
11
49.8625
21
-78.4375
0
LINE
8
0
10
54.9125
20
-64.4375
11
68.9125
21
-64.4375
0
LINE
8
0
10
54.9125
20
-78.4375
11
68.9125
21
-78.4375
0
LINE
8
0
10
54.9125
20
-64.4375
11
54.9125
21
-78.4375
0
LINE
8
0
10
68.9125
20
-64.4375
11
68.9125
21
-78.4375
0
LINE
8
0
10
73.9625
20
-64.4375
11
87.9625
21
-64.4375
0
LINE
8
0
10
73.9625
20
-78.4375
11
87.9625
21
-78.4375
0
LINE
8
0
10
73.9625
20
-64.4375
11
73.9625
21
-78.4375
0
LINE
8
0
10
87.9625
20
-64.4375
11
87.9625
21
-78.4375
0
LINE
8
0
10
93.0125
20
-64.4375
11
107.0125
21
-64.4375
0
LINE
8
0
10
93.0125
20
-78.4375
11
107.0125
21
-78.4375
0
LINE
8
0
10
93.0125
20
-64.4375
11
93.0125
21
-78.4375
0
LINE
8
0
10
107.0125
20
-64.4375
11
107.0125
21
-78.4375
0
LINE
8
0
10
112.0625
20
-64.4375
11
126.0625
21
-64.4375
0
LINE
8
0
10
112.0625
20
-78.4375
11
126.0625
21
-78.4375
0
LINE
8
0
10
112.0625
20
-64.4375
11
112.0625
21
-78.4375
0
LINE
8
0
10
126.0625
20
-64.4375
11
126.0625
21
-78.4375
0
LINE
8
0
10
131.1125
20
-64.4375
11
145.1125
21
-64.4375
0
LINE
8
0
10
131.1125
20
-78.4375
11
145.1125
21
-78.4375
0
LINE
8
0
10
131.1125
20
-64.4375
11
131.1125
21
-78.4375
0
LINE
8
0
10
145.1125
20
-64.4375
11
145.1125
21
-78.4375
0
LINE
8
0
10
150.1625
20
-64.4375
11
164.1625
21
-64.4375
0
LINE
8
0
10
150.1625
20
-78.4375
11
164.1625
21
-78.4375
0
LINE
8
0
10
150.1625
20
-64.4375
11
150.1625
21
-78.4375
0
LINE
8
0
10
164.1625
20
-64.4375
11
164.1625
21
-78.4375
0
LINE
8
0
10
169.2125
20
-64.4375
11
183.2125
21
-64.4375
0
LINE
8
0
10
169.2125
20
-78.4375
11
183.2125
21
-78.4375
0
LINE
8
0
10
169.2125
20
-64.4375
11
169.2125
21
-78.4375
0
LINE
8
0
10
183.2125
20
-64.4375
11
183.2125
21
-78.4375
0
LINE
8
0
10
188.2625
20
-64.4375
11
202.2625
21
-64.4375
0
LINE
8
0
10
188.2625
20
-78.4375
11
202.2625
21
-78.4375
0
LINE
8
0
10
188.2625
20
-64.4375
11
188.2625
21
-78.4375
0
LINE
8
0
10
202.2625
20
-64.4375
11
202.2625
21
-78.4375
0
LINE
8
0
10
209.69375
20
-64.4375
11
223.69375
21
-64.4375
0
LINE
8
0
10
209.69375
20
-78.4375
11
223.69375
21
-78.4375
0
LINE
8
0
10
209.69375
20
-64.4375
11
209.69375
21
-78.4375
0
LINE
8
0
10
223.69375
20
-64.4375
11
223.69375
21
-78.4375
0
LINE
8
0
10
231.125
20
-64.4375
11
245.125
21
-64.4375
0
LINE
8
0
10
231.125
20
-78.4375
11
245.125
21
-78.4375
0
LINE
8
0
10
231.125
20
-64.4375
11
231.125
21
-78.4375
0
LINE
8
0
10
245.125
20
-64.4375
11
245.125
21
-78.4375
0
LINE
8
0
10
4.90625
20
-83.4875
11
18.90625
21
-83.4875
0
LINE
8
0
10
4.90625
20
-97.4875
11
18.90625
21
-97.4875
0
LINE
8
0
10
4.90625
20
-83.4875
11
4.90625
21
-97.4875
0
LINE
8
0
10
18.90625
20
-83.4875
11
18.90625
21
-97.4875
0
LINE
8
0
10
26.3375
20
-83.4875
11
40.3375
21
-83.4875
0
LINE
8
0
10
26.3375
20
-97.4875
11
40.3375
21
-97.4875
0
LINE
8
0
10
26.3375
20
-83.4875
11
26.3375
21
-97.4875
0
LINE
8
0
10
40.3375
20
-83.4875
11
40.3375
21
-97.4875
0
LINE
8
0
10
47.76875
20
-83.4875
11
61.76875
21
-83.4875
0
LINE
8
0
10
47.76875
20
-97.4875
11
61.76875
21
-97.4875
0
LINE
8
0
10
47.76875
20
-83.4875
11
47.76875
21
-97.4875
0
LINE
8
0
10
61.76875
20
-83.4875
11
61.76875
21
-97.4875
0
LINE
8
0
10
173.975
20
-83.4875
11
187.975
21
-83.4875
0
LINE
8
0
10
173.975
20
-97.4875
11
187.975
21
-97.4875
0
LINE
8
0
10
173.975
20
-83.4875
11
173.975
21
-97.4875
0
LINE
8
0
10
187.975
20
-83.4875
11
187.975
21
-97.4875
0
LINE
8
0
10
193.025
20
-83.4875
11
207.025
21
-83.4875
0
LINE
8
0
10
193.025
20
-97.4875
11
207.025
21
-97.4875
0
LINE
8
0
10
193.025
20
-83.4875
11
193.025
21
-97.4875
0
LINE
8
0
10
207.025
20
-83.4875
11
207.025
21
-97.4875
0
LINE
8
0
10
212.075
20
-83.4875
11
226.075
21
-83.4875
0
LINE
8
0
10
212.075
20
-97.4875
11
226.075
21
-97.4875
0
LINE
8
0
10
212.075
20
-83.4875
11
212.075
21
-97.4875
0
LINE
8
0
10
226.075
20
-83.4875
11
226.075
21
-97.4875
0
LINE
8
0
10
231.125
20
-83.4875
11
245.125
21
-83.4875
0
LINE
8
0
10
231.125
20
-97.4875
11
245.125
21
-97.4875
0
LINE
8
0
10
231.125
20
-83.4875
11
231.125
21
-97.4875
0
LINE
8
0
10
245.125
20
-83.4875
11
245.125
21
-97.4875
0
LINE
8
0
10
85.86875
20
-88.25
11
99.86875
21
-88.25
0
LINE
8
0
10
85.86875
20
-102.25
11
99.86875
21
-102.25
0
LINE
8
0
10
85.86875
20
-88.25
11
85.86875
21
-102.25
0
LINE
8
0
10
99.86875
20
-88.25
11
99.86875
21
-102.25
0
LINE
8
0
10
77.43075
20
-89.25
11
84.43075
21
-89.25
0
LINE
8
0
10
77.43075
20
-104.25
11
84.43075
21
-104.25
0
LINE
8
0
10
77.43075
20
-89.25
11
77.43075
21
-104.25
0
LINE
8
0
10
84.43075
20
-89.25
11
84.43075
21
-104.25
0
LINE
8
0
10
101.30675
20
-89.25
11
108.30675
21
-89.25
0
LINE
8
0
10
101.30675
20
-104.25
11
108.30675
21
-104.25
0
LINE
8
0
10
101.30675
20
-89.25
11
101.30675
21
-104.25
0
LINE
8
0
10
108.30675
20
-89.25
11
108.30675
21
-104.25
0
LINE
8
0
10
133.49375
20
-88.25
11
147.49375
21
-88.25
0
LINE
8
0
10
133.49375
20
-102.25
11
147.49375
21
-102.25
0
LINE
8
0
10
133.49375
20
-88.25
11
133.49375
21
-102.25
0
LINE
8
0
10
147.49375
20
-88.25
11
147.49375
21
-102.25
0
LINE
8
0
10
125.05575
20
-89.25
11
132.05575
21
-89.25
0
LINE
8
0
10
125.05575
20
-104.25
11
132.05575
21
-104.25
0
LINE
8
0
10
125.05575
20
-89.25
11
125.05575
21
-104.25
0
LINE
8
0
10
132.05575
20
-89.25
11
132.05575
21
-104.25
0
LINE
8
0
10
148.93175
20
-89.25
11
155.93175
21
-89.25
0
LINE
8
0
10
148.93175
20
-104.25
11
155.93175
21
-104.25
0
LINE
8
0
10
148.93175
20
-89.25
11
148.93175
21
-104.25
0
LINE
8
0
10
155.93175
20
-89.25
11
155.93175
21
-104.25
0
LINE
8
0
10
0
20
-104.775
11
247.65
21
-104.775
0
LINE
8
0
10
0
20
0
11
247.65
21
0
0
LINE
8
0
10
0
20
-104.775
11
0
21
0
0
LINE
8
0
10
247.65
20
-104.775
11
247.65
21
0
0
ENDSEC
0
EOF